<?xml version="1.0" encoding="UTF-8"?>
<svg id="Layer_1" data-name="Layer 1" xmlns="http://www.w3.org/2000/svg" viewBox="0 0 500 500">
  <defs>
    <style>
      .cls-1 {
        fill: #b86028;
      }

      .cls-2 {
        fill: #572f2a;
      }

      .cls-3 {
        fill: #aa8e5c;
      }

      .cls-4 {
        fill: #a31e29;
      }

      .cls-5 {
        fill: #552e2a;
      }

      .cls-6 {
        fill: #b62128;
      }

      .cls-7 {
        fill: #703c29;
      }

      .cls-8 {
        fill: #b32028;
      }

      .cls-9 {
        fill: #aa4e79;
      }

      .cls-10 {
        fill: #d7a028;
      }

      .cls-11 {
        fill: #a15427;
      }

      .cls-12 {
        fill: #cf2528;
      }

      .cls-13 {
        fill: #cf5179;
      }

      .cls-14 {
        fill: #9c5227;
      }

      .cls-15 {
        fill: #921b29;
      }

      .cls-16 {
        fill: #56162a;
      }

      .cls-17 {
        fill: #a9822d;
      }

      .cls-18 {
        fill: #b32025;
      }

      .cls-19 {
        fill: #6c5728;
      }

      .cls-20 {
        fill: #b52128;
      }

      .cls-21 {
        fill: #62152a;
      }

      .cls-22 {
        fill: #a25427;
      }

      .cls-23 {
        fill: #cd6295;
      }

      .cls-24 {
        fill: #b42028;
      }

      .cls-25 {
        fill: #b12028;
      }

      .cls-26 {
        fill: #6a5528;
      }

      .cls-27 {
        fill: #8b4d7b;
      }

      .cls-28 {
        fill: #9a5127;
      }

      .cls-29 {
        fill: #d02528;
      }

      .cls-30 {
        fill: #5d3659;
      }

      .cls-31 {
        fill: #96b58b;
      }

      .cls-32 {
        fill: #cf3d56;
      }

      .cls-33 {
        fill: #b22028;
      }

      .cls-34 {
        fill: #14122b;
      }

      .cls-35 {
        fill: #bc6295;
      }

      .cls-36 {
        fill: #ae2024;
      }

      .cls-37 {
        fill: #995027;
      }

      .cls-38 {
        fill: #59302a;
      }

      .cls-39 {
        fill: #901b29;
      }

      .cls-40 {
        fill: #a35527;
      }

      .cls-41 {
        fill: #ad1f24;
      }

      .cls-42 {
        fill: #bc87a3;
      }

      .cls-43 {
        fill: #95ad6e;
      }

      .cls-44 {
        fill: #951c29;
      }

      .cls-45 {
        fill: #8f1c2a;
      }

      .cls-46 {
        fill: #d03e58;
      }

      .cls-47 {
        fill: #7e4229;
      }

      .cls-48 {
        fill: #cd6194;
      }

      .cls-49 {
        fill: #be6746;
      }

      .cls-50 {
        fill: #8dbb7f;
      }

      .cls-51 {
        fill: #9a1c1f;
      }

      .cls-52 {
        fill: #61162a;
      }

      .cls-53 {
        fill: #8f1b29;
      }

      .cls-54 {
        fill: #61152a;
      }

      .cls-55 {
        fill: #cb70ad;
      }

      .cls-56 {
        fill: #65162a;
      }

      .cls-57 {
        fill: #a8812d;
      }

      .cls-58 {
        fill: #b01f28;
      }

      .cls-59 {
        fill: #cb70ac;
      }

      .cls-60 {
        fill: #a99f96;
      }

      .cls-61 {
        fill: #894c7a;
      }

      .cls-62 {
        fill: #811719;
      }

      .cls-63 {
        fill: #82c77c;
      }

      .cls-64 {
        fill: #57152a;
      }

      .cls-65 {
        fill: #18122b;
      }

      .cls-66 {
        fill: #13122b;
      }

      .cls-67 {
        fill: #86181a;
      }

      .cls-68 {
        fill: #ca70ad;
      }

      .cls-69 {
        fill: #a11e21;
      }

      .cls-70 {
        fill: #532d2a;
      }

      .cls-71 {
        fill: #973956;
      }

      .cls-72 {
        fill: #b72228;
      }

      .cls-73 {
        fill: #88c07c;
      }

      .cls-74 {
        fill: #cd6296;
      }

      .cls-75 {
        fill: #c02326;
      }

      .cls-76 {
        fill: #562f2a;
      }

      .cls-77 {
        fill: #811619;
      }

      .cls-78 {
        fill: #82c67c;
      }

      .cls-79 {
        fill: #e6b622;
      }

      .cls-80 {
        fill: #a31e22;
      }

      .cls-81 {
        fill: #bc6296;
      }
    </style>
  </defs>
  <path class="cls-66" d="m368.63-2.85c43.33,0,86.66.04,129.98-.08,3.02,0,3.64.61,3.63,3.63-.13,35.23-.09,70.47-.09,105.7-1.62,3.02-4.61,3.95-7.54,5.05-2.67,1-5.33,2.15-4.62,5.88-.08,1.54-.34,3.05-.68,4.55-2.72,5-5.69,9.89-6.31,15.75-.17,1.59-1.01,2.82-2.47,3.57-3.03.8-4.16-1.37-5.35-3.45-2.18-3.81-3.43-8.04-5.49-11.91-4.07-7.62-17.41-12.16-25.28-8.59-4.14,1.88-8.31,3.8-13.02,3.46-2.8-.2-4,1.34-4.53,3.71-2.46,11.17-5.26,22.25-7.63,33.44-.6,2.85-.07,5.06,2.66,6.31,3.14,1.45,4.64,4.2,6.17,7.05,4.8,8.94,12.46,14.34,21.94,17.42,2.92.95,4.62.11,4.52-3.22-.07-2.12.38-4.3,2.16-5.42,9.53-5.99,12.28-16.31,16.54-25.64,1.04-2.28,1.88-4.68,2.85-7.01.87-2.09,2.1-3.95,4.92-3.2,3.49,2.58,1.8,6.85,3.28,10.13.85,1.9,1.25,3.93,4.09,3.12,8.43-2.39,9.15-2.14,13.78,4.63v9.1c-7.16,5.87-13.6,12.25-16.54,21.45-1.8,5.63-1.64,6.17,4.32,7.02,1.55.22,3.36.69,3.84,2.05,1.61,4.63,6.22,6.84,8.38,10.95v23.26c-7.91,2.26-15.39-2.29-16.21-9.99-.28-2.64-1.77-4.23-3.84-5.53-3.45-2.16-5.51-4.83-3.75-9.19,1.11-2.75-.51-4.12-2.97-4.65-3.93-.84-7.87-1.64-11.91-1.77-7.18-1.51-14.34-1.24-21.51.03-5.46.43-10.69-.3-15.58-2.99-2.44-1.34-5.05-1.77-7.77-.81-2.92,1.04-5.96.77-8.97.75-2.43-.14-4.87-.24-7.31,0-4.89.16-9.24,1.78-12.94,4.98-5.56,4.8-12.21,7.18-19.29,8.07-12.58,1.59-23.7,5.99-32.97,14.88-4.27,4.1-9.67,6.68-14.71,9.72-1.03.62-2.14,1.33-3.3,1.09-6.11-1.27-10.7,1.78-15.28,5.07-1.35.97-2.68,2.26-4.34,2.51-7.08,1.08-9.59,7.45-13.86,11.77-.23.24-.46.59-.43.89.62,6.16-4.07,10.57-5.35,15.94-2.65,11.2-7.18,21.72-10.49,32.67-.29.97-.53,1.95-.72,2.94-.4,2.1-1.52,4.36.46,6.16,1.27,1.15,2.61.22,3.56-.75,1.9-1.95,4.98-3.49,3.21-7.08-1.6-3.24-2.12-6.41.28-9.48,2.19-2.79,9.58-5.14,12.48-2.83,5.46,4.35,11.02,2.44,16.78,1.81-.11-2.13-2-2.97-3.14-4.3-2.29-2.66-5.58-5.06-2.29-9.01,2.67-3.21,9.01-3.49,12.41-.53,4.45,3.88,8.5,8.16,11.75,13.13,3.31,5.07,7.07,9.85,9.71,15.35.59,1.24,1.31,2.38,2.61,2.97,7.16,3.22,11.56,8.43,12.02,16.5.39.47.85.85,1.44,1.07,4.55.47,8.56-1.45,12.67-2.85,1.77-.6,2.69-1.97,2.67-3.87-.04-3.22.35-6.35,1.46-9.41,1.11-3.07-.27-4.01-3.24-3.57-3.18.46-7.15,2.47-8.76-1.98-1.63-4.5,2.77-5.83,5.45-7.9,2.3-1.78,5.01-2.7,7.74-3.57,9.03-2.88,15.86-8.13,20.46-16.74,3.41-6.39,9.08-12.45,16.67-10.87,7.92,1.64,14.79,2.09,21.77-2.17,1.2-.73,3.51-.79,4.4.04,5.73,5.44,13.93,1.6,19.98,5.58,3.23,2.12,3.41-.51,3.86-2.63,1-1.51,2.67-1.56,4.18-1.96,6.33,1.5,10.28,6.94,9.53,13.27-.45,3.79-2.79,5.01-6.41,4.51-1.78-.25-4.05-.81-5.02,1.14-1,2.02,1.51,2.65,2.47,3.87,5.32,6.75,3.19,18.05-4.18,21.97-1.8,2.35-1.87,5.32-2.88,7.96-1.55,2.09-3.17,1.36-4.69.02-.75-.66-1.41-1.52-1.58-2.53-2.03-12.22-12.17-14.95-21.6-18.52-1.79-.33-3.57-.34-5.36,0-9.57,2.21-17.13,7.3-22.21,15.77-1.48,2.47-2.06,5.28-2.14,8.16-.19,1.99-.19,3.97,0,5.97.12,6.57,3.04,11.46,8.49,15.12,5.27,3.54,5.25,4.59,1.36,9.36-6.23,7.65-12,15.73-20.17,21.57-1.49,1.07-1.89,2.72-1.8,4.49.28,5.4-1.69,10.21-4,14.91-1.49,3.02-2.84,6.07-3.58,9.38-1.66,7.39-.74,9.47,5.68,12.91,2.14,1.15,3.6-.19,5.02-1.19,3.96-2.79,6.92-2.22,8.69,2.39.85,2.22,1.94,2.93,4.11,1.62,1.15-.69,2.48-1.03,3.85-1.1,4.17.75,8.24-.32,12.35-.7,1.85-.13,3.74-.26,5.34-1.29,5.23-3.38,11.1-4.68,17.17-5.33,2.65-.29,5.88-1.19,7.03,2.07,1.22,3.44-1.61,5.4-4.31,6.37-5.72,2.06-9.5,6.08-12.8,10.91-1.59,2.33-2.62,4.52-2.1,7.47.67,3.82-1.36,6.02-5,6.89-5.6,1.33-9.67,8.14-8.21,13.84.79,3.09,2.1,6.04,2.64,9.21.07,1.73-.03,3.47,0,5.2-.17,1.49-.55,2.95-1.12,4.33-1.84,4.52-4.16,5.56-9.01,4.02-1.28-.41-2.6-1.08-3.77-.04-1.46,1.29-.55,2.76.04,4.12.79,1.83,1.77,3.58,2.57,5.42.77,1.79,1.08,3.53-.63,5.01h-58.67c-2.22-1.21-4.15-2.67-5.45-4.97-3.33-5.92-2.61-8.22,3.64-11.21-7.24-2.81-8.95-8.65-8.55-15.66.06-1.79.2-3.58-.51-5.3-2.58-4.27-5.8-8.03-9.39-11.62,2.92,8.76,1.75,18.63,8.39,26.31,4.64,5.36,3.86,13.01,6.76,19.21.51,1.09-.26,2.28-.97,3.25h-40.46c-2.97-1.21-6.13-1.58-9.24-2.2-2.04-.41-3.76-1.4-5.08-3.03-3.24-6.08-4.35-12.09-2.93-19.29,1.78-8.97-2.54-17.07-7.68-24.39-1.4-2-3.32-1.7-4.55.24-2.3,3.64-5.51,3.92-9.27,3.11-5.42-1.16-9.47,2.76-14.17,4.21-6.45,1.99-11.9,6.24-17.62,9.79-1.77,1.1-3.21,2.66-3.57,4.73-1.42,8.15-6.55,15.72-3.9,24.53.24.81-.46,1.58-.9,2.3h-11.13c-1.13-.95-1.98-2.11-2.46-3.52-.63-.73-1.51-.81-2.4-.87-.52,0-1.03,0-1.55.02-7.2-3.44-8.75-9.68-3.8-15.08,2.09-1.11,4.45-1.29,6.63-1.89-.07-.01.1-.33.03-.33-.22-.21-.39-.4-.63-.54-1.6-.58-3.17-.96-4.85-.7-.49.01-.97-.07-1.43-.22-3.77-1.71-3.86-5.5-4.84-8.74-1.04-3.44-1.14-7.28-4.44-9.67-3.82-2.86-5.14-6.23-2.12-10.46,1.65-2.39.04-3.99-1.38-5.63-1.69-4.27-2.08-8.84-2.81-13.3-1.83-11.24-5.62-21.8-10.44-32.04-1.52-3.22-2.1-6.34.28-9.5,1.2-1.59,1.02-3.48.5-5.34-.77-2.77-1.57-5.59-3.02-8.02-3.65-6.12-3.79-11.81.39-17.86,2.7-3.92.66-7.82-1.89-11.13-3.11-4.05-3.56-7.83.27-11.64.83-.83,1.77-1.82.95-3.08-.74-1.13-2.09-1.01-3.24-.87-16.19,1.95-32.5,3.22-48.3,7.59-3.27.9-6.61,1.21-9.89,1.98-1.86.11-3.71.1-5.57,0-22.74-1.26-40.28-24.75-42.02-45.38-.22-2.67-.94-5.29-.73-7.99.27-3.4.49-6.81,0-10.21-.03-17.61,7.02-31.68,20.68-42.79,9.75-7.93,18.91-16.58,29.11-23.99,6.59-4.79,13.45-8.88,21.7-10.01,2.88.26,5.77.32,8.65-.09,12.1,1.84,23.4,5.98,34.16,11.77,5.26,2.83,5.94,2.44,7.89-3.2,3.52-10.16,6.61-20.49,11.48-30.14.89-1.11,1.44-2.43,2.19-3.63.86-2.17,1.03-4.56,2.18-6.63.53-1.08,1.62-1.78,2.02-2.96.33-1.14,1.36-1.97,1.5-3.16,1.86-15.32,10.19-28.17,16.15-41.9,4.89-11.27,11.99-21.28,19.67-30.84,3.39-2.85,6.06-6.08,7.19-10.57.74-2.93,2.62-5.43,4.99-7.4,3.54-2.93,4.7-7.24,6.58-11.13.8-1.66.35-3.41-.79-4.72-5.29-6.1-7.44-13.35-8.12-21.2.04-2.1-.1-4.2.03-6.3,1.33-8.41,2.67-16.81,6.42-24.6,1.34-2.78,2.96-5.2,5.65-6.79h10.12c1.14,1.12,2.28,2.23,2.7,3.86.61,3.41-.57,6.64-.96,9.95-.55,3.81-.16,7.5,1.3,11.07.08.58.12,1.16.13,1.74.31,4.32-1.61,8.39-1.35,12.69-.1,1.92-.22,3.84.42,5.71.45,3.84.34,7.72.12,11.55-.39,6.6,2.74,10.78,8.32,13.59,5.91,1.77,11.82,2.21,17.7-.09,3.48-1.89,5.62-5.29,8.67-7.63,3.15-2.41,6.35-5.38,10.8-2.46,1.6,4.93.14,10.11-4.55,13.06-9.12,5.73-12.54,14.61-14.4,24.45-.9,4.78-.21,5.48,4.67,5.62,1.73.05,3.52.15,4.69,1.47,6.33,7.13,15.26,8.8,23.76,10.92,15.05,3.75,14.74,2.84,28.08-4.87,9.49-5.49,9.6-14.15,10.97-22.81.22-1.37-.36-2.77-1.24-3.76-4.42-4.94-6.13-11.09-7.94-17.19-1.03-.97-2.35-.82-3.61-.94-4.42-.93-8.89-.7-13.34-.85-2.97-.1-5.98-.22-8.27-2.57-.33-.52-.46-1.09-.4-1.71,2.83-4.68,8.2-3.96,12.37-5.8,1.9-.25,3.77.14,5.66.23,6.09,1.58,6.11,1.49,8.6-4.21,4.24-9.72,8.59-19.4,12.93-29.08,1.49-3.31,1.17-5.55-1.51-7.98-4.11-3.73-6.05-8.32-4.16-13.95Z"/>
  <path class="cls-1" d="m412.23,473.45c-.11-.83.04-1.84-.39-2.45-5.72-8.19-.71-14.89,2.87-21.84,1-1.95,2.07-2.32,3.92-1.1,1.28.84,2.84,1.01,4.09-.11,1.53-1.36,1.05-3.01.18-4.5-.84-1.45-1.05-2.96-.12-4.26,4.29-5.97,7.53-13.02,15.53-15.29,2.26-.64,4.26-1.86,5.76-4.87-7.6.34-14.66.96-20.96,4.75-2.23,1.34-4.35,2.36-6.93,2.4-4.73,1.02-9.58-.37-14.3.75-2.91-.17-3.57,1.84-4.02,4.1-.17.85-.7,1.66-1.6,1.51-.49-.08-.98-.86-1.25-1.43-.63-1.35-1.07-2.78-1.68-4.14-.86-1.9-.7-5.34-2.43-5.45-1.81-.12-4.22,1.92-5.59,3.64-3.15,3.94-4.86,1.74-6.55-1.1-.8-1.34-1.74-3.13-3.17-2.89-7.34,1.27-3.84-4.41-3.6-6.43.7-5.9,2.77-11.5,5.5-16.94,2.07-4.13,4.5-8.54,2.61-13.79-.67-1.88.99-3.99,2.75-4.96,7.87-4.34,12.46-11.89,18.1-18.38,1.73-1.99,2.94-4.42,6.37-5.63-8.8-4.38-14.72-10.13-14.6-20.02-.54-2.04-.54-4.09,0-6.13.16-8.38,4.85-14.22,11.04-19.03,4.56-3.54,9.55-6.4,15.4-7.36,2.03-.63,4.07-.55,6.11-.05,4.87,1.56,9.83,2.94,13.4,6.99.54.62,1.14,1.06,2.12.52,3.84-2.15,4.11.55,4.78,3.33.84,3.51,2.01,6.96,3.35,10.32.39.98.35,3.32,2.72,2.39,1.33-3.61-.74-7.56,1.12-11.12,1.34-.05,2.68-.12,4.02-.13,1.75-.01,3.69-1.71,3.38-2.37-2.09-4.63,1.42-9.85-1.71-14.26-1.04-1.46-2.69-1.87-4.13-2.67-3.37-1.87-3.45-3.69-.23-5.73,2.89-1.82,6.21-1.83,9.18-.82,3.17,1.07,3.77-.27,3.36-2.69-.78-4.61-1.78-9.22-7.03-11.05-1.49-.24-3.23-1.32-3.93,1.15,1.29,1.51,2.58,3.02,3.86,4.54.52.62,1.32,1.33.51,2.11-.62.6-1.48.37-2.34.04-3.57-1.36-7.17-2.63-10.77-3.87q-6.23-2.16-9.43,3.02c-1.71-.76-1.91-2.57-2.67-3.94-2.3-4.19-4.55-4.99-9.08-3.05-1.69.72-3.53,1.29-4.96,2.38-3.55,2.7-6.74,3.43-10.72.43-6.42-4.85-15.96,1.24-19.14,7.65-5.15,10.4-13.29,16.41-24.14,19.36-3.63.99-6.34,3.55-9.43,5.45-.98.61-2.56,1.45-1.41,3.19.83,1.26,1.81.82,3.05.46,2.39-.68,4.89-.97,7.35-1.39,3.83-.66,5.09.7,3.96,4.44-.58,1.91-1.37,3.76-2.21,5.57-.83,1.79-1.13,4.04-.38,5.39,2.61,4.69-.88,5.66-3.8,6.63-5.03,1.67-10.04,3.65-15.51,3.43-2.14.67-2.84-.1-2.21-2.21-.29-.95-.75-1.88-.84-2.84-.71-7.56-3.66-11.16-11.19-13.23-1.79-.49-3.24-.67-2.63-3.19.22-.91-.47-2.2-1.04-3.12-5.59-8.92-11.09-17.89-18.96-25.14-2.01-1.85-4.09-2.35-6.4-1.84-1.87.41-4.32.96-4.94,2.83-.54,1.63,1.75,2.62,2.86,3.8,2.19,2.34,4.56,4.49,6.74,6.84.66.71,2.47,1.29,1.29,2.67-.67.78-2.3,1.63-3.01,1.32-4.14-1.83-7.91-1.37-12,.42-1.99.87-3.96-1.18-5.67-2.58-2.64-2.15-9.48-2.14-12.02-.12-2.63,2.09-2.69,6.6.67,8.62,3.17,1.91,1.58,2.83.12,4.29-2.27,2.26-4.47,4.59-6.82,6.76-.85.78-1.54,2.72-3.09,1.56-1.48-1.11-3.78-1.46-3.88-4.16-.14-3.58.68-6.92,1.65-10.29,3.12-10.81,8.35-20.95,10.08-32.21.41-2.65,2.14-4.81,3.79-6.91,1.79-2.27,2.82-5.43,1.32-7.49-2.45-3.38-.1-3.68,1.91-4.65.59-.29,1.47-.5,1.68-.99,4.54-10.56,16.9-10.47,23.91-17.62.81-.82,1.89-.89,2.83-.71,9.42,1.8,16-4.23,21.97-9.4,10.45-9.07,21.82-14.67,35.62-16.15,6.73-.72,13.16-3.28,18.43-8.08,3.7-3.37,8.25-4.91,13.28-4.93,2.43-.67,4.87-.69,7.3,0,3.49.03,6.95.45,10.26-1.48,2.44-1.42,4.84-.07,7.06,1.19,4.61,2.62,9.49,4.06,14.85,3.26,7.81-.62,15.63-.68,23.44.03,4.57.73,9.16,1.3,13.69,2.22,3.68.75,5.17,2.86,2.67,6.33-2.31,3.2-1.9,5.64,1.83,7.19,4.59,1.9,6.71,4.76,5.18,10.04-.75,2.57,1.25,5.14,3.89,4.35,3.82-1.15,6.37-.81,8.27,2.81.2.39,1.2.36,1.82.52v3.03c-5.58,4.54-11.2,9.03-15.28,15.08-.53.79-1.58,1.35-1.06,2.65,2.12.19,2.64-1.77,3.68-2.89,1.51-1.61,3.18-2.52,5.36-1.96,2.33.59,4.12,2.24,4.11,4.55,0,3.83,2.04,7.51.6,11.43-.95,2.57,1.07,3.99,2.59,5.53,0,74.85-.03,149.7.1,224.55,0,3.46-.68,4.17-4.14,4.15-31.69-.17-63.39-.1-95.08-.1-.89-4.13-3.57-7.46-5.12-11.3-.69-1.71-2.44-3.13-.22-5.2,2.04-1.9,3.97-1.97,6.4-1.21,1.86.59,3.26,3.51,5.19,2.16,1.96-1.37,2.91-3.98,2.95-6.61.67-2.09.65-4.19.01-6.28Z"/>
  <path class="cls-29" d="m129.85,203.34c-9.35,1.07-16.4,6.74-23.43,12.15-11.61,8.92-22.6,18.59-33.11,28.82-7.22,7.03-9.81,15.89-11.02,25.32-.27,2.11-2,4.39-.28,6.64-.61,4.08-.61,8.15,0,12.23-.84,6.69.89,13.05,3.19,19.11,5.45,14.36,14.62,25.18,29.97,29.79,2.19.66,4.33.23,6.43.78,2.02.54,4.05.54,6.07,0,8.02-.44,15.44-3.76,23.35-4.77,9.06-1.16,18.11-2.36,27.17-3.47,5.24-.64,10.49-1.12,16.02-1.7-.61,3.22-1.2,6.43-3.95,8.24-2.45,1.61-3.37,3.48-2.86,6.2.59,3.14,3.23,3.4,5.9,3.75-.21,1.88-1.9,3.09-.35,5.46,1.97,3.01-.17,6.55-2.17,9.24-2.86,3.82-3,7.18-.58,11.45,2.34,4.14,3.49,8.94,5.22,13.43.68,1.78.42,3.21-1.21,4.28-3.22,2.1-2.06,4.58-.87,7.3,3.26,7.44,7.09,14.69,8.77,22.72,1.66,7.93,3.02,15.92,4.51,23.89.14,1.88-.34,3.43-2.25,4.23-1.58.51-2.94.02-4.28-.84-17.02-11.03-35.52-10.93-54.53-7.29-10.63,2.03-20.78,5.65-31,9.06-3.38,1.13-6.56,1.55-9.51-.97-4.62-1.95-8.14-5.74-12.77-7.68-15-9.51-29.63-19.63-45.05-28.43-7.6-4.34-9.96-10.67-10.62-18.48.3-2.44-1.18-4.59-1.1-6.91.01.08-.19.1-.15.17.39,2.46,1.53,4.71,1.26,7.21.94,7.7,4.39,14.87,4.74,22.68,1.21,7.26,2.3,14.54,3.23,21.84.88,6.91-1.14,9.21-7.96,8.2-3.99-.59-6.95,2.08-10.62,2.23-2.3.09-4.65,1.11-6.6-.95v-158.8c3.49,1.3,3.63,1.38,5.64-2.32,3.91-7.2,8.81-13.8,12.4-21.19,9.11-15.71,18.8-31.01,30.13-45.27,2.42-3.05,6.23-4.65,7.85-8.34,4.22-3.86,8.03-8.12,11.97-12.26,4.66-3.97,6.89-9.36,8.3-15.05.77-3.12,2.01-5.57,4.82-7.15,6.68-1.94,13.62-2.61,20.35-4.25,4.05-2.06,9.08-.94,12.8-3.99,1-1.28.81-2.8.82-4.28-.12-2.01.47-3.91.81-5.85.08-1.27.14-2.55.22-3.82.17-1.79.2-3.6.55-5.38.27-1.53.65-3.03.65-4.6,0-1.63-.24-3.28.22-4.89.25-1.1.31-2.23.4-3.35.07-.9.44-1.65,1.13-2.22,2.8-.25,5.33-1.63,8.16-1.89,6.68-.61,12.9.43,18.39,4.52,11.54,6.21,22.61,13.18,33.08,21.08,2.68,2.03,5.41,3.98,8.21,5.84,1.61,1.86,3.89,3.13,4.88,5.54-1.12,3.88,3.01,5.67,3.56,8.89-4.39,12.07-9.05,24.04-13.03,36.24-1.58,4.85-3.48,2.54-5.68,1.24-11.21-6.58-22.96-11.67-35.98-13.38-3.41-.62-6.81-.59-10.22-.02Z"/>
  <path class="cls-29" d="m118.84,135.6c-.03.75-.07,1.51-.1,2.26-3.48,7.76-8.62,14.32-14.7,20.19-2.36,5.23-7.37,7.76-11.45,11.24-3.19,4.76-7.88,7.5-13.02,9.64-3.43,3.03-6.76,6.22-11.18,7.84-10.43,6.02-21.59,10.11-33.43,12.12-7.33,1.24-13.31,4.11-17.53,10.5-2,3.03-4.57,5.72-7.28,8.21-1.4,2.86-3.39,5.31-5.51,7.63-1.37,1.5-2.97,2.79-5.22,1.54v-45.52c1.56-3.91,5.35-3.64,8.48-4.27,13.73-2.77,25.54-9.01,35.27-19.1,6.46-6.7,6.41-7.02-1.95-11.16-3.05-1.51-5.78-3.34-8.12-5.83-3.87-4.11-7.14-8.92-13.17-10.42-1.64-.41-2.57-2.09-2.75-3.92-.3-1.38-.12-2.7.38-4-.45-12.8.97-25.5,1.78-38.24.25-3.98,1.86-6.36,6.05-6.54,4.72-.2,9.02-1.81,12.47-4.9,5.19-4.65,10.51-4.48,16.08-1.41-.12-.05.05.02,0,0-2.63-1.44-4.11-3.94-5.89-6.11-6.37-7.75-13.16-15.15-20.09-22.37-5.69-5.93-13.43-8.63-21.5-10.07-2.69-.48-5.24-1.14-7.04-3.4C-.58,19.66-.5,9.8-.64-.06c-.03-2.27.31-2.95,2.79-2.87,7.18.23,14.37.08,21.55.08,5.38,1.97,11.04,3.34,15.53,7.22.89,2.18,2.69,3.51,4.58,4.73,1.23,1.47,3.11,1.68,4.74,2.39,8.32,7.57,17.19,14.6,24.12,23.6.83,1.08,2.06,1.72,3.15,2.51,4.42,2.33,8.59,5.23,13.66,6.11,4.6.8,6.83,3.71,7.45,8.18.35,2.48,1.14,4.88,1.72,7.31-.72,2.54.18,4.8.98,7.18,1.42,4.24,1.78,8.72,2.64,13.08.53.88,1.11,1.72,2,2.29,1.1.53,2.29.77,3.49.94,1.39.25,2.76.25,4.14-.04,1.6-.25,3.19-.56,4.82-.43,1.63.39,3.28.56,4.95.64,1.92.21,3.87.16,5.78.47,1.66.3,3.3.68,4.98.92,1.7.5,3.58.22,5.18,1.17,3.04,5.73,3.65,11.89,3.27,18.23-4.22,6.42-7.14,13.59-11.31,20.06-1.91,2.97-3.84,5.92-5.79,8.86-1.21,1.81-2.82,2.81-4.94,3.05Z"/>
  <path class="cls-55" d="m139.01,104.2c.35-6.1-2.35-11.84-2.06-17.93-1.66-1.26-3.58-.32-5.36-.61-1.63,0-3.26,0-4.89,0-1.64-.14-3.33.33-4.93-.37-1.67-.1-3.35-.21-5.02-.31-1.79-.65-3.64-.19-5.46-.33-1.62,0-3.24,0-4.86,0-1.64-.13-3.31.32-4.91-.36-1.43-.85-.93-2.1-.71-3.3.79-1.45.43-3.42,1.83-4.56,4.51-3.68,2.76-6.62-.9-9.58-2.34-1.89-4.28-4.19-5.22-7.16-2-3.82-.84-8.99-3.42-11.99-2.45-2.85-7.7-1.71-11.19-3.9-2.6-1.64-5.11-3.42-7.67-5.14-.34-.38-.47-.82-.39-1.32,5.32-5.67,6.87-12.87,8.16-20.17.28-2.08.24-4.16-.01-6.25-1.4-9.09-1.17-9.51,7.43-13.77h70.81c11.26,5.41,16.42,16.02,22.12,26.12.71,1.26,1.27,2.7,1.86,4.07.57,1.51-.04,2.94-.31,4.38-.35,1.98-.33,3.98-.16,5.98.43,2.78-.72,5.87,1.67,8.24,1.27.86,2.76.98,4.21,1.24,1.39.26,2.78.31,4.18.04,1.59-.23,3.18-.53,4.8-.42,1.6.37,3.23.57,4.88.63,1.87.18,3.75.13,5.61.46,1.03.36,2.06.7,3.06,1.14,2.27,2.79,5.11,4.78,8.45,6.1,2.62,6.62,4.96,13.3,3.77,20.62-5.75,4.1-10.74,3.75-15.56-1.08-7.94-7.97-7.9-7.87-18.34-2.98-10.24,4.79-19.54,12.05-31.51,12.4-.38-.04-.78-.12-1.16-.25,9.12,2.37,17.39,6.89,26.01,10.48,3.54,1.48,7.15,2.87,10.55,4.7,4.59,2.48,5.07,3.71,2.95,8.37-1.46,3.21-3.2,6.31-2.65,10.03-.12,2.23-.07,4.46,0,6.7-.29,6.72,2.95,12.75,3.83,19.27.33,2.46.4,4.58-.48,6.81-2.08,5.23-5.87,9.42-8.68,14.2-.86,1.46-2.33,1.84-3.96,1.66-4.44-.14-6.68-3.91-9.81-6.12-9.39-6.61-18.95-12.9-29.02-18.42-.67-.37-1.1-1.19-1.64-1.81-2.36-2.72-3.7-5.92-4.25-9.43-1.36-8.64-4.32-17.19-1.65-26.09Z"/>
  <path class="cls-29" d="m199.72,483.51c-4.64,4.17-3.33,9.51,3.05,12.47,2.11,1.67,3.11,3.53.98,5.9h-115.32c-8.06-7.58-18.1-9.97-28.69-10.88-3.45-.41-6.9-.43-10.35,0-7.2.21-13.87,2.57-20.3,5.48-4.43,2-8.85,3.93-13.48,5.39-4.72,0-9.44-.11-14.16.06-1.76.06-2.13-.32-2.08-2.08.15-5.73.06-11.46.06-17.19,2.34-8.55,4.65-17.1,7.7-25.43.75-2.04,1.48-4.09,2.31-6.11,1.41-3.45,3.53-4.47,7.43-4.13,6.97.6,14,0,21.04.69,5.64.56,11.36.55,16.98,1.53,5.58-.91,11.08.58,16.63.5.54-.05,1.09-.11,1.63-.19,1.93-.37,3.85-.43,5.78,0,1.1.35,2.18.73,3.29,1.07,18.3.58,36.53,2.34,54.83,2.85,4.23,2.47,8.89.86,13.3,1.11,6.94.38,13.84,1.36,20.8,1.29,6.46-1.06,12.38,1.88,18.61,2.55,3.82.31,2.89,3.78,3.84,5.93,1.93,4.34.73,9.86,5,13.35,3.45,1.35,2.53,3.55,1.12,5.83Z"/>
  <path class="cls-29" d="m222.96,75.89c-.58-6.86-2.21-13.51-4.2-20.08-1.47-2.81-4.25-3.77-6.91-4.89l-2.92-.23c-1.61-1.01-3.54.06-5.18-.77-1.67-.1-3.34-.2-5.01-.31-1.78-.75-3.64-.21-5.46-.37-1.62,0-3.24,0-4.86,0-1.64-.11-3.31.28-4.91-.32-4.02-3.13-.98-7.63-2.18-11.31-.5-2.03-.57-4.06.04-6.08.45-1.34.9-2.68,1.35-4.02.25-1.31-.53-2.67.18-3.97,4.5-8.23,8.34-16.9,15.16-23.63.53-.74,1.24-1.29,1.97-1.82.53-.37,1.22-.46,1.69-.94h56.65c-2.15,6.68-6.28,12.57-7.41,19.71-.61,3.88-1.81,7.67-1.84,11.66-.62,2.36-.52,4.72-.05,7.08-.03,7.1,2.38,13.27,7.11,18.54,2.65,2.96,3.03,5.37.73,9.38-2.58,4.51-5.13,8.76-8.86,12.38-1.25,1.21-2.39,3.09-2.54,4.75-.45,5.11-4.01,7.83-7.4,10.77-2.42,1.37-4.99,1.41-7.62.81-8.02-3.82-10.24-8.63-7.55-16.32Z"/>
  <path class="cls-29" d="m268.64,1.13c-.05-1.33-.1-2.66-.15-3.99,6.07,0,12.14,0,18.21,0,6.09,1.4,11.76,3.4,16.43,8.01,3.05,3.01,8.68,1.07,11.71,5.13.46.62,1.58-1.34,2.19-2.28,2.76-4.2,5.11-8.77,10.13-10.87h14.16c1.1,2.02-.43,3.12-1.54,4.32-1.95,2.1-4.18,3.93-6.09,6.07-5.45,6.12-3.33,16.04,4.09,19.49,1.58.31,3.15.29,4.74.07,4.07-.9,8.22-1.66,12.34-1.81,5.48-.2,8.19-2.98,9.33-7.94.31-1.86.37-3.71,0-5.57-.81-4.09-2.72-7.42-6.26-9.83-1.55-1.06-3.55-2.23-2.44-4.8,4.38,0,8.77,0,13.15,0,.66,1.52,1.84,3.02,1.87,4.55.08,4.62,2.79,7.4,6.24,9.6,2.01,1.28,2.78,2.48,1.73,4.8-5.38,11.93-10.64,23.91-16.02,35.85-2.79,6.19-2.86,6.16-9.01,2.72-2.02-.59-4.04-.56-6.06-.02-4.04,1.05-8.09,2.1-12.13,3.15-.71.18-1.4.42-2.15.4-5.54-2.37-11.41-4.26-14.47-10.16-.14-.26-.31-.51-.47-.77.28.41.53.84.77,1.29,1.1,2.83,2.75,5.58,1.01,8.73-1.19,1.19-2.48,1.66-4,.58-7.92.04-11.64,6.17-16.13,11.16-.33.36-.63.75-.95,1.12-7.1.51-14.2.65-21.29-.07-.15-.07-.32-.12-.45-.22-7.51-4.95-10.05-11.94-8.68-20.66.34-2.14.15-4.35.21-6.54.72-1.3,0-2.82.59-4.14,1.8-1.13,3.07-.12,4.41,1,1.91,1.6,3.86,3.18,6.41,3.68,1.27.19,2.54.2,3.78-.23,6.36-3.54,11.1-9.03,16.42-13.78,3.21-2.87,1.53-10.25-2.6-13.83-2.59-2.25-5.63-3.55-9.08-3.78-1.96-.23-3.93-.23-5.9.02-4.23.34-7.68,1.86-9.65,5.94-.64,1.33-1.55,2.67-3.48,1.98-1.13-2.64-.3-5.41-.56-8.11-.2-3.42.42-6.87-.36-10.28Z"/>
  <path class="cls-66" d="m-.58,29.52c13.55,1.38,25.64,5.13,34.67,16.64,5.52,7.03,12.12,13.28,17.85,20.23,1.79,2.17,3.52,4.41,5.27,6.61.22.36.14.66-.21.89-3.83-.89-7.64-1.96-11.52-2.58-2.09-.34-3.59,1.6-5.04,2.78-4.65,3.82-9.57,6.61-15.83,6.02-2.12-.2-2.95.63-2.99,2.85-.23,13.53-2.23,26.97-2.03,40.53-4.87,1.94-10.9-2.39-8.99-7.04,2.41-5.87.24-10.93-.77-16.18-1.91-9.95-6.03-19.17-10.43-28.25V29.52Z"/>
  <path class="cls-66" d="m18.61,126.69c.17.29.3.78.51.82,8.26,1.51,12.22,8.51,17.7,13.64,3.68,3.44,8.46,5.44,13.28,6.47,3.3.7,3.09,1.86,1.68,3.74-10.84,14.47-24.73,24.25-42.69,27.95-3.22.66-6.65.34-9.67,1.94v-47.54c4.65-4.85,11.27-5.56,17.03-8.06.73-.32,1.58.39,2.16,1.05Z"/>
  <path class="cls-55" d="m-.58,226.76c4.08-2.48,6.03-6.9,9.27-10.14,14.26-.38,28.07-4.4,42.28-5.18,2.25-.12,4.84-.5,6.06,2.34-15.1,16-26.43,34.66-37.57,53.45-8.59,6.01-11.1,6.26-16.5,1.83-1.63-1.34-2.36-3.24-3.53-4.87v-37.43Z"/>
  <path class="cls-29" d="m218.92,501.88c-2.91-4.26-3.37-8.56-1.43-13.54,1.73-4.43,2.32-9.28,3.62-13.89.66-2.35,1.58-4.45,4.13-5.86,8.08-4.48,15.4-10.45,24.8-12.3.61-.12,1.35-.47,1.68-.95,2.29-3.33,4.96-2.75,8.15-1.32,2.95,1.32,5.63,1.09,6.75-2.92.39-1.38.91-3.87,2.93-3.54,2.1.34,4.17.98,5.53,3.52,2.66,4.97,5.5,9.8,7.03,15.29,1.32,4.7,2.54,9.39.51,14.13-1.6,3.74-1.04,7.16,1.09,10.41,1,1.52.96,3.16,1,4.83.56,1.35.14,2.4-.98,3.23-2.24,1.33-4.78,1.91-7.15,2.92h-57.66Z"/>
  <path class="cls-63" d="m55.06,451.14c-7.69-1.68-15.6-.09-23.34-1.66-3.4-.69-7.05-.12-10.59-.21-1.82-.05-3.74.49-5.46-.45-2.11-1.14-2.5-.21-3.35,1.75-3.54,8.16-5.54,16.84-8.79,25.09-1.01,2.55-1.43,5.44-4.1,7.01v-34.39c6.36-1.64,12.74-3.44,19.36-2.95,4.19.31,4.32-1.92,3.85-4.81-1.24-7.57-2.59-15.11-3.83-22.68-.05-.31.55-.72.85-1.08,1.01-1.67,2.61-2.06,4.38-1.84,17.49,2.13,31.25,13.65,32.95,30.88.21,2.17-.01,4.02-1.92,5.35Z"/>
  <path class="cls-66" d="m355.48-2.85c5.12,3.58,10.34,7.08,11.26,14.03.58,2.11.61,4.21-.02,6.31-1.52,7.5-3.81,9.36-11.34,10.06-4.38.41-8.7,1.39-13.05,2.11-1.69.56-3.37.56-5.06,0-9.93-3.68-12.45-17.98-4.42-24.78,2.91-2.47,5.65-5.14,8.47-7.73,4.72,0,9.44,0,14.16,0Z"/>
  <path class="cls-55" d="m74.31,37.53c-.02.38-.03.75-.05,1.13-2.42-2.27-4.97-4.41-7.23-6.82-6.27-6.67-13.35-12.47-20.06-18.66-1.09-1.49-2.62-2.45-4.11-3.47-1.44-1.42-3.27-2.3-4.87-3.5-4.58-3.31-10.33-4.76-14.29-9.05h25.29c2.02.8,4.05.8,6.07,0h9.1c2.33,1.04,3.54,2.94,4.11,5.33,2.3,9.58,5.13,19.01,7.41,28.59.58,2.44.58,4.62-1.37,6.45Z"/>
  <path class="cls-66" d="m15.61,501.88c9.75-7.79,20.8-12.31,33.29-13.24,3.78-.67,7.55-.65,11.33-.01,8.16.18,15.72,2.85,23.2,5.73,3.33,1.29,3.33,5.02,5.01,7.52H15.61Z"/>
  <path class="cls-29" d="m502.16,162.02c-1.57.24-2.37-1.01-3.43-1.77-3.32-2.39-6.27-4.65-9.93.14-2.03,2.66-4.53,1.59-5.8-1.85-1.62-4.38-2.45-8.91-2.11-13.61-1.14-1.23-2.14-2.49-1.02-4.26,1.28-6.76,2.59-13.51,7.2-19,.68-1.75.68-3.51,0-5.26-.71-3.6.72-5.23,4.34-6.31,3.6-1.08,7.07-2.74,10.76-3.7v10.11c-1.26,1.14-1.9,2.74-3.06,3.99-7.9,8.55-7.74,18.14.4,26.74,1.06,1.12,1.81,2.41,2.66,3.66v11.13Z"/>
  <path class="cls-29" d="m18.61,126.69c-6.24,2.76-12.16,6.41-19.19,7.01v-14.16c2.03-1.82,1.66-4.58,2.61-6.82.81-2.66.58-5.34.12-8.02-1.07-4.12-.13-8.68-2.74-12.47v-20.23c6.49,2.75,6.4,9.61,8.98,14.72,2.82,5.6,3.07,12.14,5.17,17.95,1.55,4.29,1.93,7.64-.81,11.31-.89,1.2-.97,2.61.55,3.85,1.92,1.57,3.7,3.28,6.3,3.63-.33,1.07-.67,2.15-1,3.22Z"/>
  <path class="cls-77" d="m74.31,37.53c-1.39-10.59-5.4-20.55-7.52-30.97-.65-3.18-1.74-6.27-2.63-9.41,8.43,0,16.86,0,25.29,0-.13.29-.18.69-.4.86-4.48,3.43-7.27,7.41-4.48,13.28.49,2.03.54,4.07-.03,6.1-1.66,6.56-1.69,13.75-7.26,18.82-.87.79-1.58,1.79-2.98,1.32Z"/>
  <path class="cls-77" d="m199.83.19c-6.51,8.6-11.16,18.37-17.12,27.32-5-7.46-8.99-15.62-15.36-22.16-2.52-2.59-4.75-5.46-7.11-8.21,6.41,0,12.81,0,19.22,0,1.41.88,3.05.84,4.6,1.19,2.4.63,4.77.27,7.15-.15,1.31-.04,2.63-.02,3.94-.03,1.67.41,4.14-1,4.66,2.03Z"/>
  <path class="cls-29" d="m502.16,212.6c-4.76-1.63-8.97-3.72-9.88-9.49-.32-2.02-1.8-1.49-3.49-1.07-6.5,1.62-8.9-.89-6.63-7.08,3.08-8.4,6.34-16.78,14.49-21.89,1.72-1.07,3.35-2.17,5.5-1.95v10.11c-2.19,6.41-3.35,12.81,0,19.22v12.14Z"/>
  <path class="cls-1" d="m338.29,501.88c-3.15-10.64-7.62-20.61-12.77-30.49-3.19-6.12-2.8-14.08-5.11-20.99-.31-.93.17-3.18,1.59-3.78,1.22-.51,1.96,1.01,2.64,1.9,3.86,4.98,7.66,10,11.48,15.01,1.15,1.96.74,3.99.29,6.02-1,7.88,1.78,13.33,10.01,15.07-.17.56-.2.82-.33,1.03-1.81,2.98-7.99,2.25-7.11,6.89.63,3.34,3.5,6.25,5.38,9.35h-6.07Z"/>
  <path class="cls-66" d="m327.16-2.85c-4.1,6.76-9.11,12.93-12.52,19.99-.64-.13-1.18-.12-1.22-.26-1.26-4.48-1.91-9.56-8.79-7.82-.62.16-1.68-.45-2.19-1.02-4.37-4.92-10.44-7.35-15.75-10.89h40.46Z"/>
  <path class="cls-66" d="m502.16,273.28c-.17,0-.34,0-.51,0-6.86,0-6.9-.03-4.36-6.46.51-1.3,1.14-2.44.22-3.77-1.09-1.59-1.34-3.12-.56-5.09.79-1.99-.57-3.6-2.29-4.55-2.35-1.29-2.67,1.22-3.7,2.27-.57.58-.87,1.42-1.33,2.11-2.44,3.63-6.66,3.59-9.07.01-.87-1.29-.05-2.02.73-2.41,4.62-2.27,6.8-6.91,9.92-10.53,3.07-3.56,6.44-5.54,10.93-5.98v34.39Z"/>
  <path class="cls-77" d="m-.58,264.18c6.04,5.19,12.66,6.63,20.04,3.04-5.71,9.82-11.43,19.63-17.29,29.7-3.08-2.14-.51-5.64-2.75-7.45v-25.29Z"/>
  <path class="cls-66" d="m502.16,150.89c-8.66-2.62-11.75-10-11.13-21.27.31-5.56,5.08-11.24,11.13-13.12v34.39Z"/>
  <path class="cls-66" d="m-.58,92.23c5.06,2.62,3.81,7.95,5.23,12.13.32,3.37.94,6.74-.33,10.06-1.87,1.48-1.3,5.3-4.9,5.12v-27.31Z"/>
  <path class="cls-34" d="m502.16,200.46c-5.49-4.63-5.49-13.53,0-19.22v19.22Z"/>
  <path class="cls-12" d="m282.5,497.9c.74-.72,1.48-1.44,2.21-2.17,4.35,2.1,9.33,2.84,13.11,6.15h-14.16c-1.14-1.11-2.02-2.29-1.16-3.98Z"/>
  <path class="cls-59" d="m203.75,501.88c-.33-1.97-.65-3.93-.98-5.9.32-.09.63-.2.93-.32,1.76-.09,3.83-1.54,4.99,1.1-1.74,1.46-.53,3.43-.9,5.12h-4.05Z"/>
  <path class="cls-65" d="m282.5,497.9c.99,1.15,1.34,2.49,1.16,3.98h-7.08c2.25-.92,3.09-3.92,5.92-3.98Z"/>
  <path class="cls-29" d="m315.96,57.86c.98-.34,1.96-.69,2.94-1.03,3.9-1.95,7.74-.22,11.61.19,1.49.88,3.39.61,4.81,1.69,7.55,2.25,15.49.16,23.08,2.02,2.01-.44,4.03-.87,5.96.31-2.09,5.08-.54,10.19,2.61,13.52,6.04,6.38,4.99,13.11,3.73,20.54-1.07,6.31-3.58,11.07-9.68,13.58-.74.31-1.37.97-1.95,1.57-10.22,10.59-22.02,6.78-33.8,3.85-5.12-1.27-9.45-4.81-15.02-4.85-1.76,0-2.33-2.28-3.09-3.6-1.7-2.96-3.42-3.8-6.93-2.56-5.06,1.79-6.4-.1-5.66-5.61,1.03-7.65,2.74-14.99,7.35-21.34,1.36-1.88,2.77-4.2,4.71-5.11,5.75-2.7,7.85-7.63,9.35-13.16Z"/>
  <path class="cls-29" d="m479.85,140.67c.34,1.42.68,2.84,1.02,4.26-2.8-.43-2.24,2.21-2.67,3.39-3.06,8.43-6.1,16.84-11.36,24.22-.29.4-.9.84-.84,1.19.7,4.78-3.04,5.57-6.15,6.87-2.71,1.13-3.74,2.62-2.73,5.82,1.58,5.02-.62,6.85-5.77,5.29-11.8-3.57-21.34-9.99-26.51-21.62-1.43-3.22-4.54-3.59-6.95-5.18-1.17-.77-2.68-.92-2.04-3.57,3.43-14.1,6.38-28.31,9.47-42.49.39-1.78,1.29-2.11,2.85-1.43,5.74,2.5,10.71-.22,15.53-2.65,4.28-2.16,8.25-3.47,12.64-.46,1.05.72,2.46,1.02,3.76,1.26,8.72,1.62,12.09,8.19,14.79,15.55,1.24,3.37,2.51,6.79,4.99,9.53Z"/>
  <path class="cls-29" d="m121.82,245.17c10.44-1.61,20.58,1.87,30.92,1.87.33,0,.82,0,.97.2,3.4,4.51,7.1,5.83,12.06,1.97,1.32-1.03,3.18.26,3.56,2.37,2.11,11.77.94,22.96-7.21,32.26-2.92,3.34-4.88,6.62-4.88,10.97,0,2.46-.9,3.46-3.48,3.83-12.95,1.86-25.86,3.96-38.78,5.98-3.39.53-5.71-.35-6.28-4.19-.72-4.89-3.64-8.38-7.57-11.15-3.19-2.25-5.31-4.97-4.67-9.27.34-2.31.41-4.77,0-7.05-1.36-7.51,2.28-12.8,7.34-17.51,3.67-3.41,6.68-7.52,10.94-10.29,2.36.52,4.71.49,7.07.02Z"/>
  <path class="cls-77" d="m222.96,75.89c1.86,1.88,1.15,4.45,1.54,6.64.72,4.05,2.44,6.69,6.57,7.51-.16,2.97-2.65,3.73-4.72,4.63-4.94,2.15-10.04,3.92-15.51,3.94-3.73.01-5.4,1.62-5.69,5.4-1.2,15.54-2.13,31.09-3.03,46.65-.25,4.36-.89,8.67-1.7,12.95-.59,2.15-1.42,4.26-.85,6.56-1.01,2.04-2.02,4.08-3.03,6.12-4.79,1.56-5.17-2.73-6.92-5.21-1.6-1.51-3.91-2.42-4.23-5.01,3.73-5.64,7.51-11.25,11.17-16.93.97-1.52,1.05-2.99.37-5.05-2.1-6.34-4.63-12.63-5.13-19.42.53-2.74.57-5.48-.03-8.21.06-5.21,3.14-9.21,5.31-13.47-14.94-7.5-31.05-12.64-45.81-20.74,2.3-1.15,4.67-.65,7.03-.27,14.82-1.3,26.14-10.95,39.15-16.55,3.34-1.44,5.49-1.7,7.64,1.31.87,1.21,1.82,2.37,2.83,3.47,3.29,3.6,6.08,8.39,12.3,4.94.6-.33,1.82.48,2.76.76Z"/>
  <path class="cls-1" d="m366.5,366.17c-1.86,2.09-4.92,4.14-4.68,6.74.43,4.7,2.17,9.29,3.44,13.9.55,2,1.46.69,2.51.3,2.3-.86,3.41,1.25,4.27,2.62,1.44,2.27-1.35,1.48-2.07,2.23-.81.85-2.16,1.48-2.47,2.47-3.23,10.18-10.58,19.03-9.92,30.47.68,3.1.71,6.2-.02,9.3-.67.47-1.3,1.02-2.01,1.4-3.73,1.95-3.92,4.11-.56,6.67.61.46.96,1.26,1.88,2.52-5.02.18-8.72,3.59-13.79,1.51-4.7-1.93-3.03-4.98-2.74-8.13.33-3.66,2.99-2.94,5.25-3.03,1.16-.05,2.32,0,3.69,0-3.98-8.73-7.76-17.53-10.26-26.87-2.99-11.15-4.17-22.19-.93-33.49.81-2.84,1.61-5.79,1.25-8.88-.38-3.31.75-4.3,3.97-2.6,4.86,2.57,5.03,2.4,5.09-3.07.03-2.36-.48-5.33,1.65-6.51,2.43-1.35,4.56,1.27,6.69,2.38,1.94,1,3.28,2.69,4.14,4.81.67,1.65,1.37,3.55,3.72,3.58.5.72,2.49-.24,1.92,1.69Z"/>
  <path class="cls-55" d="m189.75,458.4c-6.22,2.38-12.16-.23-18.2-1.03-11.26-3.86-22.75-3.9-34.36-2.05-2.44,2.59-4.92-.12-7.36.07-8.02.61-15.92-1.04-23.9-1.08-7.31-.03-14.55-1.54-21.89-1.06-.87.06-1.79-.69-2.69-1.07-1.54-3.87.17-5.66,3.94-6.1,2.87,2.39,5.81,2.08,9.14.78,12.62-4.92,25.6-8.95,39.02-10.54,17.7-2.09,35.02-.82,49.91,10.83.22.17.66.05.99.07,2.36-.31,2.95,1.72,4.05,3.07-.19.42-.36.84-.58,1.25q-2.52,4.66,1.91,6.85Z"/>
  <path class="cls-79" d="m313.95,380.32c-6.14-1.08-11.76-3.18-15.91-8.15-.11-.13-.23-.36-.35-.35-8.57.31-8.97-5.89-9.76-12-.95-7.36-2.24-14.67-3.18-22.02-.15-1.2-1.11-3.38,1.16-3.75,6.49-1.04,10.11-5.74,13.87-10.35,5.43-.58,10.87-.58,16.3,0,4.2,4.1,8.35,8.25,12.62,12.27,1.24,1.17,1.56,2.49,1.61,4.02.77,2.33.19,4.73.37,7.1-.19,2.06.43,4.17-.42,6.19.02,4.14-1.71,8.13-1.12,12.32.02.16.06.4-.02.49-3.14,3.33-5.87,6.66-2.11,11.37.44.56-.92,1.59-1.78,2.11-3.71,1.1-7.58-.23-11.3.74Z"/>
  <path class="cls-55" d="m198.88,164.03c.9-13.55,1.67-27.11,2.58-40.65.55-8.28,1.75-16.6,1.26-24.95-.13-2.27.5-3.84,2.98-3.11,8.7,2.56,16.01-1.37,23.49-4.7.59-.26,1.25-.39,1.87-.58,2.36.46,4.71.91,7.07,1.37-11.06,14.24-20.3,29.5-26.39,46.57-1.37,3.85-2.96,7.63-5.44,11.03-1.3,1.78-2.44,4.23-2.37,6.34.13,4.37-1.51,8-3.34,11.68-2.58.14-.66-2.27-1.7-3Z"/>
  <path class="cls-66" d="m270.32,19.29c1.8-7.37,4.28-9.43,12.23-10.1,2.1-.64,4.19-.64,6.29,0,9.05.83,14.88,6.42,15.99,15.44.29,2.4-.34,5.16-2.12,6.32-6.59,4.31-11.39,10.71-18.03,14.89-1.69.55-3.37.55-5.06,0-4.5-.89-7.17-4.29-10.09-7.36-.7-.74-.49-1.68-.54-2.56.3-4.16-.63-8.37.51-12.49-.02-.38-.03-.75-.05-1.13-.96-1.36-.03-2.18.86-3.01Z"/>
  <path class="cls-68" d="m199.72,483.51c-.09-2,.43-4.12-1.12-5.83l.27-.22c2.68-.56,5.35-.61,8.03.04.27.07.54.16.81.25,1.02,1.64.71,3.33.21,5.03-.33,1.73-.49,3.59-2.97,1.66-1.52-1.18-3.18-2.37-5.23-.92Z"/>
  <path class="cls-29" d="m189.61,171.07c2.57,1.39,3.78,4.58,6.92,5.21-.59.99-1.19,1.98-1.78,2.97-2.92-1.97-5.5-4.15-5.14-8.18Z"/>
  <path class="cls-47" d="m464.8,202.39c-7.81-.01-15.63-.02-23.44-.03,7.82-1.45,15.63-1.48,23.44.03Z"/>
  <path class="cls-52" d="m277.58,70.07c7.1.02,14.19.05,21.29.07-7.1,1.32-14.2,1.43-21.29-.07Z"/>
  <path class="cls-62" d="m188.41,450.3c-2.17.06-3-1.65-4.05-3.07.75-1.01,1.5-2.02,2.26-3.03,2.52,1.47,2.01,3.83,1.8,6.1Z"/>
  <path class="cls-19" d="m316.09,323.71c-5.43,0-10.87,0-16.3,0,5.43-1.39,10.87-1.39,16.3,0Z"/>
  <path class="cls-2" d="m401.9,426.93c4.68-1.84,9.53-.61,14.3-.75-4.69,1.72-9.53.53-14.3.75Z"/>
  <path class="cls-16" d="m269.5,23.43c-.03,4.42-.06,8.85-.09,13.27-.26.51-.53.52-.81.02.24-4.43-1.08-8.98.9-13.29Z"/>
  <path class="cls-39" d="m62,288.51c-1.37-4.08-1.37-8.15,0-12.23,0,4.08,0,8.15,0,12.23Z"/>
  <path class="cls-58" d="m270.32,19.29c-.29,1-.57,2.01-.86,3.01-2.02-3.52-.61-7.29-.79-10.94.09-.24.18-.48.26-.72.16.2.32.4.48.59.34,2.68-.51,5.49.9,8.05Z"/>
  <path class="cls-76" d="m452.8,314.87c-.84,3.66.83,7.57-1.12,11.12.31-3.71-1.2-7.61,1.12-11.12Z"/>
  <path class="cls-17" d="m313.95,380.32c3.67-1.7,7.53-.47,11.3-.74-3.65,1.96-7.53.56-11.3.74Z"/>
  <path class="cls-53" d="m129.85,203.34c3.41-1.35,6.82-1.32,10.22.02-3.41,0-6.81-.01-10.22-.02Z"/>
  <path class="cls-45" d="m269.41,11.24c-.25.05-.5.09-.75.12,0-3.41-.02-6.82-.03-10.23,1.64,3.26.59,6.73.78,10.11Z"/>
  <path class="cls-14" d="m357.55,434.2c0-3.1.01-6.2.02-9.3,1.49,3.1,1.53,6.2-.02,9.3Z"/>
  <path class="cls-27" d="m206.89,477.49c-2.68-.01-5.35-.02-8.03-.03,2.68-1.37,5.36-1.29,8.03.03Z"/>
  <path class="cls-28" d="m409.19,199.38c-2.43,0-4.87,0-7.3,0,2.43-1.44,4.87-1.48,7.3,0Z"/>
  <path class="cls-24" d="m121.82,245.17c-2.36,1.13-4.72,1.15-7.07-.02,2.36,0,4.72.01,7.07.02Z"/>
  <path class="cls-81" d="m198.88,164.03c.57,1,1.14,2,1.7,3-.34,1.05-.68,2.09-1.02,3.14-1.66-1.88-.62-4.07-.68-6.13Z"/>
  <path class="cls-26" d="m330.34,347.02c0-2.34,0-4.68,0-7.02,1.48,2.27.74,4.78.76,7.2-.18.19-.36.38-.54.57-.07-.25-.14-.5-.21-.75Z"/>
  <path class="cls-30" d="m208.7,496.76c-1.32-1.91-3.39-.45-4.99-1.1,1.87-.56,4.11-2.8,4.99,1.1Z"/>
  <path class="cls-24" d="m249.08,35.59c-1.17-2.37-1.16-4.73.05-7.08-.02,2.36-.03,4.72-.05,7.08Z"/>
  <path class="cls-33" d="m107.66,338.19c-2.02,1.12-4.05,1.13-6.07,0,2.02,0,4.05,0,6.07,0Z"/>
  <path class="cls-45" d="m364.35,61.03c-1.99-.1-3.97-.2-5.96-.31,2.06-1.31,4.06-1.47,5.96.31Z"/>
  <path class="cls-2" d="m392.75,328.89c0,2.04,0,4.09,0,6.13-1.16-2.04-1.16-4.09,0-6.13Z"/>
  <path class="cls-38" d="m412.23,473.45c1.37,2.1,1.32,4.19-.01,6.28,0-2.09,0-4.19.01-6.28Z"/>
  <path class="cls-5" d="m336.4,469.54c-.1-2.01-.19-4.01-.29-6.02,1.72,1.93,1.35,3.96.29,6.02Z"/>
  <path class="cls-22" d="m455.72,276.29c.41-3.47,2.39-1.55,3.93-1.15-1.28.48-2.99-.5-3.93,1.15Z"/>
  <path class="cls-57" d="m330.34,347.02c.25.06.5.12.75.19-.09,2.05.89,4.24-.8,6.08.02-2.09.04-4.18.05-6.27Z"/>
  <path class="cls-6" d="m347.39,54.65c2.02-1.15,4.04-1.13,6.06.02-2.02,0-4.04-.01-6.06-.02Z"/>
  <path class="cls-25" d="m268.6,36.73c.27-.04.54-.04.81-.02.04.59.08,1.19.12,1.78-.06,1.44.01,2.91-.88,4.18-.02-1.98-.04-3.96-.06-5.94Z"/>
  <path class="cls-56" d="m335.32,58.7c-1.72,0-3.44,0-5.16,0,.3-2.96,2.87-.63,3.97-1.71.37.27.75.54,1.12.81.04.3.06.61.06.91Z"/>
  <path class="cls-70" d="m425.3,302.45c-2.04.02-4.07.04-6.11.05,2.03-1.16,4.06-1.25,6.11-.05Z"/>
  <path class="cls-64" d="m487.06,116.4c1.34,1.75,1.49,3.51,0,5.26,0-1.75,0-3.51,0-5.26Z"/>
  <path class="cls-37" d="m366.5,366.17c-.64-.56-1.28-1.13-1.92-1.69,1.06.03,2.37-.79,3.07.5.31.58-.43,1.1-1.15,1.2Z"/>
  <path class="cls-7" d="m346.25,335.92c.21,1.26.97,1.98,2.21,2.21-.86.69-1.8,1.07-2.6.03-.58-.76-.24-1.57.38-2.24Z"/>
  <path class="cls-61" d="m207.92,482.77c-.07-1.68-.14-3.35-.21-5.03,1.79,1.6,1.43,3.3.21,5.03Z"/>
  <path class="cls-66" d="m429.47,324.87c-.63,2.19,1.21,3.97,1.02,6.08.53,1.68.51,3.36.02,5.04-.68,1.85-1.22,3.78-2.08,5.55-2.54,5.22-7.99,7.32-13.18,5.11-1.68-.71-3.25-1.67-4.88-2.48-10.57-5.28-11.45-14.76-1.97-22.13,2.83-2.2,6.15-1.85,8.84-.03,2.6,1.76,5.17,2.06,8.04,1.71,1.55-.17,3.41-1.47,4.18,1.15Z"/>
  <path class="cls-40" d="m429.47,324.87c-1.07-1.56-2.79-.75-4.18-1.15,1.6-.37,3.71-2.56,4.18,1.15Z"/>
  <path class="cls-11" d="m430.51,335.99c0-1.68-.01-3.36-.02-5.04,1.04,1.68,1.07,3.36.02,5.04Z"/>
  <path class="cls-63" d="m57.03,213.77c-11.6.35-23.05,1.69-34.38,4.35-4.68,1.1-9.58,1.53-13.96-1.51,4.42-5.33,8.01-11.36,13.39-15.87,3.13-2.63,7.07-3.21,10.9-3.9,11.19-2.01,21.85-5.53,31.88-10.87,1.12-.6,2.24-.5,3.34-.84,1.46-.19,2.04.75,2.46,1.91.08,2.24.96,4.37.93,6.63-.29,3.01-2.75,5.1-3.39,7.98-2.66,5.02-7.08,8.42-11.17,12.12Z"/>
  <path class="cls-55" d="m55.06,451.14c-.36-16.99-9.61-29.36-27.55-33.16-2.59-.55-5.23-.83-7.85-1.23-2.49-7.49-3.13-15.29-3.91-23.07.59-.62,1.17-.62,1.76,0,.28.77.81,1.54.8,2.3-.12,8.45,6.28,11.53,12.18,15.23,14.09,8.84,28.07,17.85,42.07,26.82.39.25.59.78.88,1.19,3.2,4.33,1.84,8.28-1.01,12.1-2.19,1.85-4.74,1.29-6.98.55-3.46-1.14-6.97-.03-10.39-.72Z"/>
  <path class="cls-63" d="m139.01,104.2c2.5,3.11,1.24,7.04,1.65,10.42.95,7.84,2.54,15.48,4.38,23.11.15.62-.08,1.32-.13,1.98-6.04-2.86-12.23-5.04-19.08-3.98-2.35.36-4.7,2.08-6.99-.14,6.32-9.17,12.24-18.58,17.27-28.54.59-1.16.84-3.05,2.91-2.86Z"/>
  <path class="cls-55" d="m91.5,167.91c3.58-3.82,8.28-6.53,11.1-11.12,5.36-.62,10.52-.29,15.01,3.2-1,1.89-.97,3.91-.74,5.96.55,2.03.81,4.04-.19,6.02-4.77,2.02-9.77,2.92-14.91,3.19-4.5-.89-9.13-1.6-10.27-7.25Z"/>
  <path class="cls-63" d="m117.6,160c-5.27.18-10.42-.16-15.01-3.2,4.81-5.96,9.98-11.64,14.12-18.11.6-.95,1.21-.9,2.02-.82-.03.97-.06,1.95-.09,2.92-.73,1.77-.21,3.63-.37,5.45,0,1.62,0,3.24,0,4.86-.13,1.64.31,3.31-.36,4.91-.11,1.34-.21,2.67-.32,4.01Z"/>
  <path class="cls-59" d="m69.37,187.28c-.21-.81-.14-1.78-1.17-2.15,3.11-3.23,7.04-5.11,11.1-6.79.48.16.8.48.95.96-.39,1.41-1.89,2.09-1.99,3.87-.4,7.71-4.14,13.71-10.06,18.47-1.04-2.64.06-4.94,1.14-7.25.62-2.37.57-4.75.02-7.12Z"/>
  <path class="cls-77" d="m80.24,179.31c-.32-.32-.63-.64-.95-.96,4.07-3.48,8.14-6.96,12.21-10.43,3.52,2.27,7.33,4.14,10.27,7.25-6.9,2.82-14.14,3.85-21.52,4.15Z"/>
  <path class="cls-77" d="m72.42,451.31c-.95-4.14,1.06-8.03,1.01-12.1,4.58,1.21,7.87,4.66,11.86,6.88-1.31,2.03-2.63,4.07-3.94,6.1-1.01,0-2.03.02-3.04.02-1.59-.98-3.54.22-5.11-.85-.26-.02-.52-.03-.78-.05Z"/>
  <path class="cls-67" d="m17.5,393.68c-.59,0-1.17,0-1.76,0-.67-3.37-1.34-6.73-2.02-10.1.42-.65.66-1.63,1.78-.95.66,3.68,1.33,7.37,1.99,11.05Z"/>
  <path class="cls-36" d="m13.53,371.46c.12,1.61.24,3.21.43,5.68-1.86-2.23-1.22-4.05-1.31-5.71.31-.48.61-.47.88.03Z"/>
  <path class="cls-13" d="m116.68,171.97c.06-2.01.13-4.01.19-6.02,1.27,2.05,1.64,4.07-.19,6.02Z"/>
  <path class="cls-75" d="m13.53,371.46c-.29-.02-.59-.03-.88-.03-.73-1.05-1.51-2.1-.49-3.68.5,1.36.94,2.54,1.37,3.72Z"/>
  <path class="cls-80" d="m15.51,382.62c-.59.32-1.19.64-1.78.95.19-.99-.81-2.5.79-2.83.83-.17.92,1.08,1,1.87Z"/>
  <path class="cls-49" d="m117.92,155.99c.02-1.66.04-3.32.06-4.98.06-.27.12-.54.18-.8.17.21.35.42.52.63.03,1.76.4,3.57-.76,5.15Z"/>
  <path class="cls-3" d="m118.68,150.84c-.23.07-.47.12-.71.17,0-1.67-.01-3.33-.02-5,.05-.25.1-.51.15-.76.18.18.36.37.55.55.01,1.68.02,3.36.03,5.04Z"/>
  <path class="cls-43" d="m118.65,145.8c-.23.07-.47.14-.7.21-.22-1.8-.37-3.59.69-5.23,0,1.67,0,3.34,0,5.02Z"/>
  <path class="cls-66" d="m57.11,98.18c6.92,3.99,11.84,12.21,9.88,18.14-1.8,5.43-4.57,10.59-8.21,15.16-1.21,1.52-2.67,2.49-4.7,2.32-2.66,1.07-5.56-.27-8.22.8-4.92-1.16-9.32-3.1-12.77-7.08-2.06-2.38-3.57-4.77-3.47-7.98-.56-2.02-.53-4.05-.02-6.08.01-2.65,1.46-4.09,3.75-5.32,5.95-3.19,11.76-6.65,17.62-10,2.05-.54,4.1-.59,6.15.03Z"/>
  <path class="cls-77" d="m96.54,59.68c4.38,2.21,7.05,6.56,11.28,8.97,2.37,1.35,2.01,3.35.54,4.97-2.36,2.59-5.01,4.92-7.54,7.36-1.96-6.99-4.25-13.92-4.29-21.3Z"/>
  <path class="cls-29" d="m57.01,73.88c0-.31.08-.61.21-.89,1.05-.37,2.19-1.19,2.93.36.15.3-.11,1.01-.41,1.29-1.25,1.16-2.04.32-2.73-.75Z"/>
  <path class="cls-73" d="m37.99,6.19c2.4-.28,3.82,1.14,5.01,2.93.37.49.33.94-.12,1.36-1.71-1.33-4.29-1.68-4.89-4.29Z"/>
  <path class="cls-50" d="m42.88,10.48c.04-.45.08-.9.12-1.36,2.22.47,3.76,1.6,3.97,4.05-1.51-.67-3.3-.93-4.09-2.69Z"/>
  <path class="cls-15" d="m45.85,134.6c2.61-1.65,5.47-.64,8.22-.8-2.62,1.54-5.46.76-8.22.8Z"/>
  <path class="cls-44" d="m57.11,98.18c-2.05-.01-4.1-.02-6.15-.03,2.06-1.23,4.11-1.21,6.15.03Z"/>
  <path class="cls-8" d="m29.6,113.47c0,2.03.01,4.05.02,6.08-1.13-2.02-1.16-4.05-.02-6.08Z"/>
  <path class="cls-23" d="m131.88,85.2c1.77.01,3.6-.32,5.08,1.07-1.65-.1-3.31-.2-4.96-.31-.73-.15-.76-.41-.11-.76Z"/>
  <path class="cls-13" d="m131.88,85.2c.05.25.09.51.11.76-1.67.01-3.35.02-5.02.04-.25-.07-.51-.13-.76-.2.19-.17.39-.35.58-.52,1.69-.03,3.39-.05,5.08-.08Z"/>
  <path class="cls-32" d="m126.8,85.27c.06.24.12.48.18.72-1.78.13-3.6.52-5.2-.72,1.67,0,3.35,0,5.02,0Z"/>
  <path class="cls-48" d="m111.62,84.22c1.76-.05,3.54-.28,5.14.75-1.67,0-3.34,0-5,0-.24-.09-.48-.17-.72-.26.2-.16.39-.33.59-.49Z"/>
  <path class="cls-13" d="m111.62,84.22c.05.25.1.5.13.75-1.67,0-3.34,0-5.01,0-.26-.07-.52-.13-.78-.2.21-.17.41-.35.62-.52,1.68-.01,3.36-.02,5.05-.03Z"/>
  <path class="cls-46" d="m106.57,84.25c.06.24.11.48.17.72-1.78.08-3.61.61-5.21-.69,1.68-.01,3.36-.02,5.04-.03Z"/>
  <path class="cls-63" d="m145.18,11.18c9.94,1.76,18.16,5.69,21.65,16.2,1.14,3.42,2.95,6.62,4.57,9.86,4.29,8.61,1.83,16.3-3.99,22.83-8.27,9.28-18.26,14.76-31.34,10.93-7.06-2.06-12.07-6.53-15.48-12.88-1.61-3,.21-6.11.44-9.1.45-5.87,1.93-11.65,2.98-17.47.56-2.71.53-5.42.02-8.13,1.3-7.23,6.21-10.65,12.88-12.23,2.76-.64,5.51-.62,8.27-.02Z"/>
  <path class="cls-78" d="m211.84,50.93c3.75-.42,7.6-.96,6.91,4.89-3.14-.45-5.19-2.44-6.91-4.89Z"/>
  <path class="cls-31" d="m124.03,23.42c1.26,2.71,1.17,5.42-.02,8.13,0-2.71.01-5.42.02-8.13Z"/>
  <path class="cls-71" d="m191.76,116.44c1.21,2.73,1.38,5.47.03,8.21,0-2.74-.02-5.48-.03-8.21Z"/>
  <path class="cls-60" d="m145.18,11.18c-2.76,0-5.51.01-8.27.02,2.76-1.31,5.51-1.44,8.27-.02Z"/>
  <path class="cls-9" d="m158.29,81.96c-2.34.09-4.69.18-7.03.27,2.28-1.82,4.64-1.44,7.03-.27Z"/>
  <path class="cls-74" d="m181.37,31.53c-.01,2.03-.03,4.05-.04,6.08-1.13-2.03-1.12-4.06.04-6.08Z"/>
  <path class="cls-35" d="m84.54,17.39c0-2.03.02-4.06.03-6.1,1.13,2.04,1.1,4.07-.03,6.1Z"/>
  <path class="cls-48" d="m183.51,48.92c1.67,0,3.35-.01,5.02-.02.24.09.48.17.72.26l-.59.49c-1.76.05-3.54.27-5.15-.74Z"/>
  <path class="cls-13" d="m188.66,49.66c-.05-.25-.1-.5-.13-.75,1.67,0,3.34,0,5.01,0,.25.07.51.13.76.2-.19.17-.39.35-.58.52-1.68.01-3.37.03-5.05.04Z"/>
  <path class="cls-32" d="m193.72,49.62c-.06-.24-.12-.48-.18-.72,1.78-.13,3.6-.52,5.2.72-1.67,0-3.35,0-5.02,0Z"/>
  <path class="cls-48" d="m203.74,49.92c1.76.01,3.67-.93,5.18.77-1.77.02-3.57.25-5.18-.77Z"/>
  <path class="cls-63" d="m137.19,455.33c10.4-5.54,20.99-4.56,31.57-.69,1.11.41,1.87,1.8,2.79,2.74-1.02,1.7-2.77,1.16-4.06.94-8.97-1.56-18.09-.85-27.1-1.91-1.21-.14-2.24-.4-3.2-1.08Z"/>
  <path class="cls-21" d="m60.22,488.63c-3.78,0-7.55,0-11.33.01,3.78-1.44,7.55-1.51,11.33-.01Z"/>
  <path class="cls-51" d="m73.2,451.36c1.76-.03,3.53-.2,5.11.86-1.77.1-3.56.35-5.11-.86Z"/>
  <path class="cls-18" d="m194.64-.91c1.9-1.21,4.04-.89,6.12-.94-.31.68-.61,1.36-.92,2.04-1.53-1.34-3.44-.84-5.2-1.1Z"/>
  <path class="cls-66" d="m334.13,56.99c-1.32.57-2.65,1.14-3.97,1.71-3.93.41-7.75.21-11.27-1.87-.88-2.97-1.01-6.01-.72-9.07.23-.49.53-.57.92-.16,5.01,3.13,10.03,6.26,15.04,9.39Z"/>
  <path class="cls-4" d="m319.1,47.59c-.29.12-.6.18-.92.16-1.15-1.21-1.29-2.63-.87-5.04.77,2.11,1.28,3.49,1.78,4.88Z"/>
  <path class="cls-54" d="m288.83,9.19c-2.1,0-4.19,0-6.29,0,2.1-1.37,4.19-1.37,6.29,0Z"/>
  <path class="cls-56" d="m366.72,17.49c0-2.1.01-4.21.02-6.31,1.14,2.11,1.51,4.21-.02,6.31Z"/>
  <path class="cls-72" d="m279.62,45.85c1.69,0,3.37,0,5.06,0-1.69,1.07-3.37,1.07-5.06,0Z"/>
  <path class="cls-20" d="m337.27,29.66c1.69,0,3.37,0,5.06,0-1.69,1.08-3.37,1.08-5.06,0Z"/>
  <path class="cls-66" d="m258.56,463.6c8.03-.64,11.35,3.21,14.18,7.71,6.47,10.31,2.75,21.92-6.83,26.3-.95.44-1.8,1.47-3.2.93-6.6-2.54-13.42-4.61-19.82-7.59-7.36-3.43-7.86-14.15-1.23-21.39,5.07-5.54,12.35-4.74,16.89-5.96Z"/>
  <path class="cls-33" d="m4.32,114.42c.11-3.35.22-6.7.33-10.06,1.13,3.39,1.56,6.76-.33,10.06Z"/>
  <path class="cls-41" d="m183.45-.68c2.4-.02,4.8-.04,7.21-.06-2.39,1.31-4.79,1.27-7.21.06Z"/>
  <path class="cls-66" d="m330.19,67.83c3.74.9,5.61,3.66,7.02,6.94,1.65,3.83,3.5,7.58,6.12,10.84,4.67,5.82,2.53,13.45-3.59,16.78-4,2.18-8.04,5.74-12.84,3.15-6.6-3.56-15.51-4.66-17.08-14.31-.57-2.02-.55-4.05-.01-6.07.97-10.02,5.54-15.2,15.33-17.38,1.69-.45,3.38-.54,5.06.06Z"/>
  <path class="cls-20" d="m309.81,85.15c0,2.02,0,4.05.01,6.07-1.15-2.02-1.17-4.04-.01-6.07Z"/>
  <path class="cls-20" d="m330.19,67.83c-1.69-.02-3.37-.04-5.06-.06,1.7-1.06,3.39-1,5.06.06Z"/>
  <path class="cls-66" d="m454.04,139.68c4.57.57,7.6,3.59,9.7,7.84,3.88,7.86,1.07,14.33-4.26,20.24-3.03,3.37-5.27,7.8-10.78,7.83-7.11.05-13.45-2.09-17.84-7.72-4.25-5.44-5.14-11.73-1.93-18.2.59-1.19,1.08-2.34,2.57-2.85,6.57-2.22,13.1-4.58,19.66-6.83.77-.26,1.65-.19,2.89-.31Z"/>
  <path class="cls-66" d="m140.49,290.48c-2.67.82-4.37-.96-6.22-3.1-3.78-4.39-7.21-9.05-11.34-13.19-4.88-4.9-2.03-13.74,4.88-18.14,7.03-4.47,13.69-1.7,20.24.61,7.59,2.68,11.17,9.31,9.69,16.54-2.46,12.03-7.63,17.33-17.26,17.28Z"/>
  <path class="cls-69" d="m306.94,370.55c-7.18-.63-10.08-5.6-11.86-11.7-.66-2.24.59-3.97,1.97-5.31,3.59-3.48,7.19-6.99,11.15-10.03,4.69-3.61,11.55.03,14.07,5.06,4.07,8.1-.32,18.69-9.27,21.95-2.02.57-4.04.55-6.06.02Z"/>
  <path class="cls-10" d="m306.94,370.55c2.02,0,4.04-.01,6.06-.02-2.02,1.14-4.04,1.16-6.06.02Z"/>
  <path class="cls-42" d="m69.37,187.28c1.28,2.38,1.22,4.75-.02,7.12,0-2.37.01-4.75.02-7.12Z"/>
</svg>