<?xml version="1.0" encoding="UTF-8"?>
<svg id="Layer_1" data-name="Layer 1" xmlns="http://www.w3.org/2000/svg" viewBox="0 0 500 500">
  <defs>
    <style>
      .cls-1 {
        fill: #c3e0a8;
      }

      .cls-2 {
        fill: #fff;
      }

      .cls-3 {
        fill: #261348;
      }
    </style>
  </defs>
  <path class="cls-1" d="m499.56,499.63c-165.02,0-330.04-.02-495.05.11-4.58,0-5.61-1.03-5.61-5.61C-.97,329.52-.99,164.91-.99.3,1.12-.83,3.4-.27,5.6-.27c162.3-.03,324.6-.03,486.9-.02,8.68,0,7.64-.98,7.64,7.93.02,108.2.01,216.4.01,324.6,0,53.6,0,107.2-.03,160.8,0,2.19.56,4.47-.57,6.58Z"/>
  <path class="cls-2" d="m499.74,332.37c-.06-2.64-.17-5.28-.17-7.92,0-105.55-.07-211.09.14-316.64.01-6.26-1.65-7.65-7.74-7.65C327.65.33,163.33.3-.99.3.11-2.22,2.31-.85,3.89-.85c67.15-.09,134.29-.07,201.44-.07,96.85,0,193.71.03,290.56-.12,4.18,0,5.01.82,5,5-.15,109.47-.12,218.94-.12,328.41-.35.55-.69.58-1.04,0Z"/>
  <path class="cls-2" d="m499.74,332.37c.35,0,.69,0,1.04,0,0,54.12.02,108.25-.07,162.37,0,1.58,1.38,3.78-1.15,4.88,0-53.32,0-106.64,0-159.97,0-2.43.11-4.86.17-7.29Z"/>
  <path d="m357.98,498.4c-39.65,0-79.3-.07-118.96.1-4.42.02-5.92-.84-5.74-5.57.41-10.56.26-21.15.05-31.72-.07-3.44.93-4.4,4.39-4.4,80.12.09,160.24.11,240.35-.03,4.15,0,4.51,1.59,4.45,4.96-.17,10.37-.32,20.75.05,31.11.16,4.57-1.07,5.69-5.65,5.66-39.65-.2-79.3-.12-118.96-.12Z"/>
  <path class="cls-3" d="m213.88,308.93c.05,7.71-4.47,12.41-12,12.46-6.13.04-12.31-5.93-12.42-11.98-.12-6.84,5.88-12.6,12.97-12.44,6.64.15,11.4,5.12,11.44,11.96Z"/>
  <path class="cls-2" d="m357.94,493.52c-38.04,0-76.09-.09-114.13.12-4.54.02-5.92-1-5.63-5.62.44-7.09.36-14.25.02-21.35-.19-4.01,1.02-5.02,5-4.99,22.78.2,45.57.1,68.36.1,53.3,0,106.6.08,159.9-.13,5.05-.02,6.62,1.11,6.25,6.24-.5,6.88-.37,13.84-.03,20.74.2,4.01-1.03,5-4.99,4.99-38.25-.16-76.49-.09-114.74-.09Z"/>
</svg>