<?xml version="1.0" encoding="UTF-8"?>
<svg id="Layer_1" data-name="Layer 1" xmlns="http://www.w3.org/2000/svg" viewBox="0 0 500 500">
  <defs>
    <style>
      .cls-1 {
        fill: #fff;
      }
    </style>
  </defs>
  <g>
    <path class="cls-1" d="m0,484.32V15.68h500v468.65H0Zm198.33-240.08c-6.98-6.96-13.47-13.44-19.84-19.79,1.51-9.43,3.71-18.44,4.97-28.05-1.82.94-3.13,1.59-4.41,2.29-5.98,3.25-11.98,6.46-17.9,9.82-1.96,1.11-3.58,1.17-5.59.07-6.44-3.51-12.98-6.84-19.49-10.22-.73-.38-1.54-.6-2.7-1.04.35,1.72.63,2.87.81,4.03,1.07,6.97,2.1,13.94,3.17,20.91.32,2.09-.01,3.75-1.74,5.35-5.59,5.19-10.98,10.59-16.44,15.92-.59.58-1.07,1.27-1.9,2.25,9.72,1.44,18.99,2.19,27.9,3.85,1.87,4.02,3.58,7.63,5.23,11.27,1.62,3.58,3.77,6.93,4.94,10.97-.84.08-1.37.22-1.87.15-2.24-.31-4.53-.49-6.71-1.06-15.82-4.15-27.27-13.54-33.95-28.59-.27-.62-.79-1.13-1.33-1.89-6.48,20.08,1.21,42.27,18.16,54.2,17.66,12.42,42.37,12.14,60.04-3.1,15-12.93,20.35-34.71,13.86-51.47-3.74,9.26-9.2,17.07-17.3,22.77-8.1,5.7-17,9.06-27.6,9.16,4.02-8.03,7.77-15.52,11.57-23.12,9.13-1.54,18.17-3.05,28.11-4.72Zm216.56,57.23c3.57-.42,7.19-.58,10.69-1.3,14.93-3.1,24.68-12.11,29.01-26.66,2.14-7.19,2.56-14.59,1.32-22.14-2.43-14.67-10.37-24.53-24.49-29.26-11.61-3.89-23.12-3.23-34.34,1.48-8.15,3.42-14.44,9.07-18.45,17.02-5.75,11.39-6.33,23.2-2.58,35.31,3.53,11.41,11.04,18.89,22.3,22.75,5.37,1.84,10.84,2.73,16.54,2.8Zm-130.25-38.19c.27-2.71.61-4.95.7-7.2.13-3.6-.06-7.17-.69-10.76-2.08-11.87-8.58-20.06-20.06-23.67-8.12-2.56-16.54-2.57-24.97-1.07-11,1.95-19.11,7.67-24.2,17.7-5.85,11.54-7.12,23.68-4.65,36.21,1.84,9.3,6.64,16.85,14.93,21.79,5.25,3.13,11.16,4.39,17.19,4.67,5.61.26,11.26.37,16.86,0,5.28-.36,10.5-1.43,15.94-2.22.59-3.89,1.25-7.41,1.62-10.96.36-3.59,1.8-7.08,1.34-11.01-6.73,2.01-13.09,3.85-19.73,4.69-4.92.62-9.58.13-14.06-1.9-6.45-2.92-9.4-8.87-8.01-16.25h47.79Zm35.37-41.52h-23.2c-.06.64-.13,1.04-.14,1.43-.31,12.71-.61,25.42-.91,38.12-.02.8-.03,1.61-.08,2.41-.47,6.79-.93,13.58-1.43,20.37-.18,2.53-.51,5.04-.63,7.57-.11,2.49-.02,4.98-.02,7.55h22.98c.27-3.73.69-7.3.75-10.87.18-9.22.48-18.42,1.72-27.58.57-4.18,1.79-8.02,3.94-11.62,1.22-2.04,2.93-3.43,5.04-4.41,3.02-1.4,5.7-.87,8.15,1.28,1.56,1.36,2.68,3.01,3.04,5.05.38,2.22.85,4.48.81,6.72-.17,9.63-.48,19.25-.8,28.88-.09,2.8-.46,5.58-.59,8.38-.06,1.41-.52,2.89.22,4.29,7.49,0,14.85,0,22.21,0,.11,0,.23-.11.34-.18.11-.07.21-.16.31-.25.24-4.94.55-9.87.71-14.81.17-5.49,0-10.99.34-16.47.63-10,1.35-20.01.47-29.99-.7-7.88-4.7-13.72-12.52-16.53-3.62-1.3-7.32-1.4-11.06-1.31-7.06.18-12.92,2.86-17.38,8.43-.79.98-1.7,1.86-2.87,3.12.22-3.49.4-6.4.6-9.56ZM50.67,297.59c.59.35.9.66,1.27.74,8.75,1.91,17.56,3.21,26.58,2.81,5.15-.23,10.06-1.28,14.68-3.45,11.23-5.29,14.47-15.88,11.3-26.38-1.39-4.61-4.4-8.24-7.98-11.33-3.03-2.62-6.27-4.99-9.38-7.52-1.55-1.27-3.11-2.56-4.48-4.02-2.78-2.95-1.73-6.63,2.17-7.69,3.79-1.03,7.66-1.22,11.5-.38,3.46.76,6.88,1.71,10.68,2.66-.13-6.92.03-13.69-1.17-20.63-1.47-.3-3-.7-4.56-.92-3.04-.42-6.09-.72-9.13-1.09-8-.98-15.96-1.27-23.82,1.05-2.85.84-5.42,2.16-7.7,4.09-8.13,6.86-9.67,21.73-1.72,30.37,3.16,3.43,6.7,6.51,10.16,9.65,2.57,2.34,5.43,4.36,7.87,6.82,2.37,2.4,1.71,5.78-1.3,7.3-1.38.7-3.01,1.1-4.56,1.24-4.59.42-9.03-.47-13.34-2.03-2.83-1.03-5.65-2.1-8.99-3.34.38,3.95.74,7.5,1.05,11.05.32,3.71.59,7.42.87,10.99Zm271.44-87.51c.32-1.04.5-1.82.79-2.55,1.22-3.18,2.47-3.61,5.4-1.67,2.33,1.54,4.51,3.32,6.86,4.83,3.93,2.53,8.45,1.7,10.73-2.26,2.63-4.57,3.38-9.62,2.8-14.87h-9.11c-.14.45-.28.81-.37,1.18-1.22,4.83-2.89,5.45-6.9,2.53-1.29-.94-2.52-1.98-3.82-2.9-.98-.68-1.99-1.35-3.07-1.84-3.74-1.71-7.44-.73-9.24,2.89-2.26,4.55-3.11,9.47-2.49,14.67h8.44Z"/>
    <path d="m198.33,244.24c-9.94,1.67-18.98,3.19-28.11,4.72-3.8,7.6-7.55,15.09-11.57,23.12,10.6-.1,19.5-3.46,27.6-9.16,8.1-5.71,13.56-13.51,17.3-22.77,6.48,16.75,1.14,38.54-13.86,51.47-17.67,15.24-42.39,15.52-60.04,3.1-16.95-11.93-24.63-34.12-18.16-54.2.55.76,1.06,1.27,1.33,1.89,6.68,15.05,18.13,24.44,33.95,28.59,2.18.57,4.46.75,6.71,1.06.5.07,1.02-.08,1.87-.15-1.16-4.04-3.32-7.4-4.94-10.97-1.65-3.64-3.36-7.26-5.23-11.27-8.92-1.66-18.18-2.41-27.9-3.85.82-.98,1.31-1.67,1.9-2.25,5.45-5.33,10.85-10.73,16.44-15.92,1.73-1.61,2.06-3.26,1.74-5.35-1.07-6.97-2.1-13.95-3.17-20.91-.18-1.17-.46-2.32-.81-4.03,1.16.44,1.97.66,2.7,1.04,6.51,3.38,13.05,6.71,19.49,10.22,2.01,1.09,3.64,1.04,5.59-.07,5.92-3.36,11.92-6.57,17.9-9.82,1.28-.7,2.59-1.35,4.41-2.29-1.27,9.61-3.47,18.62-4.97,28.05,6.37,6.35,12.86,12.83,19.84,19.79Z"/>
    <path d="m414.89,301.48c-5.7-.08-11.17-.96-16.54-2.8-11.26-3.86-18.77-11.35-22.3-22.75-3.75-12.11-3.17-23.92,2.58-35.31,4.01-7.95,10.3-13.6,18.45-17.02,11.22-4.71,22.73-5.37,34.34-1.48,14.12,4.73,22.06,14.58,24.49,29.26,1.25,7.55.83,14.95-1.32,22.14-4.33,14.55-14.08,23.55-29.01,26.66-3.5.73-7.13.88-10.69,1.3Zm-13.8-39.22c-.12,4.24.75,8.22,2.98,11.86,2.56,4.18,7.53,6.25,12.32,5.45,5.99-1,9.4-4.82,11.15-10.22,1.78-5.5,2.45-11.18.91-16.91-1.96-7.28-6.1-10.29-12.34-10.58-5.48-.26-9.62,2.75-12.17,7.67-2.06,3.98-2.72,8.3-2.84,12.73Z"/>
    <path d="m284.63,263.29h-47.79c-1.4,7.38,1.55,13.33,8.01,16.25,4.48,2.03,9.13,2.52,14.06,1.9,6.63-.84,13-2.68,19.73-4.69.46,3.94-.98,7.43-1.34,11.01-.36,3.55-1.03,7.07-1.62,10.96-5.44.79-10.66,1.86-15.94,2.22-5.6.38-11.25.27-16.86,0-6.03-.28-11.93-1.54-17.19-4.67-8.29-4.94-13.1-12.49-14.93-21.79-2.47-12.53-1.19-24.67,4.65-36.21,5.08-10.03,13.19-15.74,24.2-17.7,8.43-1.5,16.85-1.49,24.97,1.07,11.48,3.62,17.99,11.8,20.06,23.67.63,3.59.83,7.16.69,10.76-.08,2.25-.42,4.49-.7,7.2Zm-25.05-11.51c0-2.16.26-4.05-.05-5.84-.68-3.86-2.4-7.16-6.52-8.28-8.38-2.28-16.57,5.22-15.39,14.12h21.97Z"/>
    <path d="m320,221.77c-.2,3.17-.38,6.07-.6,9.56,1.17-1.26,2.09-2.14,2.87-3.12,4.47-5.57,10.32-8.25,17.38-8.43,3.75-.1,7.44,0,11.06,1.31,7.81,2.81,11.82,8.66,12.52,16.53.89,9.98.17,19.99-.47,29.99-.35,5.47-.17,10.98-.34,16.47-.16,4.94-.47,9.87-.71,14.81-.1.08-.2.17-.32.25-.11.07-.23.18-.34.18-7.36,0-14.72,0-22.21,0-.74-1.4-.28-2.88-.22-4.29.12-2.8.49-5.58.59-8.38.32-9.62.64-19.25.8-28.88.04-2.24-.43-4.5-.81-6.72-.35-2.04-1.48-3.69-3.04-5.05-2.45-2.15-5.14-2.68-8.15-1.28-2.12.98-3.83,2.37-5.04,4.41-2.15,3.6-3.38,7.44-3.94,11.62-1.24,9.16-1.54,18.36-1.72,27.58-.07,3.57-.49,7.14-.75,10.87h-22.98c0-2.57-.09-5.07.02-7.55.11-2.53.44-5.05.63-7.57.49-6.79.96-13.58,1.43-20.37.06-.8.07-1.61.08-2.41.3-12.71.61-25.42.91-38.12,0-.39.07-.79.14-1.43h23.2Z"/>
    <path d="m50.67,297.59c-.28-3.57-.55-7.29-.87-10.99-.31-3.56-.67-7.11-1.05-11.05,3.34,1.24,6.16,2.31,8.99,3.34,4.31,1.56,8.75,2.45,13.34,2.03,1.55-.14,3.18-.54,4.56-1.24,3.01-1.52,3.67-4.9,1.3-7.3-2.43-2.46-5.3-4.48-7.87-6.82-3.45-3.14-7-6.22-10.16-9.65-7.96-8.64-6.41-23.51,1.72-30.37,2.29-1.93,4.85-3.25,7.7-4.09,7.85-2.32,15.82-2.02,23.82-1.05,3.04.37,6.09.67,9.13,1.09,1.56.22,3.09.62,4.56.92,1.21,6.95,1.05,13.71,1.17,20.63-3.8-.95-7.22-1.9-10.68-2.66-3.84-.84-7.72-.65-11.5.38-3.91,1.06-4.95,4.74-2.17,7.69,1.37,1.46,2.93,2.75,4.48,4.02,3.1,2.54,6.35,4.91,9.38,7.52,3.58,3.09,6.59,6.72,7.98,11.33,3.17,10.5-.07,21.09-11.3,26.38-4.62,2.17-9.52,3.22-14.68,3.45-9.02.4-17.82-.9-26.58-2.81-.37-.08-.68-.39-1.27-.74Z"/>
    <path d="m322.11,210.08h-8.44c-.62-5.2.23-10.12,2.49-14.67,1.8-3.62,5.5-4.6,9.24-2.89,1.08.49,2.1,1.15,3.07,1.84,1.31.92,2.53,1.96,3.82,2.9,4.02,2.92,5.69,2.3,6.9-2.53.09-.37.23-.72.37-1.18h9.11c.57,5.25-.17,10.3-2.8,14.87-2.28,3.96-6.8,4.79-10.73,2.26-2.35-1.51-4.52-3.29-6.86-4.83-2.93-1.93-4.18-1.51-5.4,1.67-.28.74-.47,1.51-.79,2.55Z"/>
    <path class="cls-1" d="m401.09,262.25c.12-4.43.78-8.74,2.84-12.73,2.55-4.92,6.69-7.92,12.17-7.67,6.24.29,10.38,3.3,12.34,10.58,1.54,5.72.88,11.41-.91,16.91-1.75,5.39-5.16,9.22-11.15,10.22-4.79.8-9.76-1.27-12.32-5.45-2.22-3.64-3.1-7.62-2.98-11.86Z"/>
    <path class="cls-1" d="m259.58,251.78h-21.97c-1.18-8.9,7.01-16.39,15.39-14.12,4.12,1.12,5.85,4.42,6.52,8.28.31,1.79.05,3.68.05,5.84Z"/>
  </g>
  <rect class="cls-1" width="500" height="15.68"/>
  <rect class="cls-1" y="484.32" width="500" height="15.68"/>
</svg>