<?xml version="1.0" encoding="UTF-8"?>
<svg id="Layer_1" data-name="Layer 1" xmlns="http://www.w3.org/2000/svg" viewBox="0 0 500 500">
  <defs>
    <style>
      .cls-1 {
        fill: #fff;
      }

      .cls-2 {
        fill: #a0ba3b;
      }

      .cls-3 {
        fill: #fae200;
      }

      .cls-4 {
        fill: #cb7329;
      }

      .cls-5 {
        fill: #ffc615;
      }

      .cls-6 {
        fill: #fbb117;
      }

      .cls-7 {
        fill: #fbb018;
      }

      .cls-8 {
        fill: #d53f2c;
      }

      .cls-9 {
        fill: #af5f27;
      }

      .cls-10 {
        fill: #f6c89e;
      }

      .cls-11 {
        fill: #070909;
      }
    </style>
  </defs>
  <rect class="cls-1" width="500" height="500"/>
  <g>
    <path class="cls-1" d="m300.7,499.97c-98.25,0-196.51,0-294.76.03-1.34,0-1.64-.3-1.64-1.64.04-165.57.04-331.14,0-496.71C4.3.3,4.6,0,5.94,0c64.81.04,129.62.03,194.42.03.11.21.22.41.33.62-1.54,1.25-2.81,2.7-3.74,4.49-.24.47-.51.86-.54,1.42-.33,6.99-.85,13.94-2.32,20.84-.76,3.58-1.85,7.02-2.94,10.45-1.93,6.05-4.5,11.81-7.62,17.4-4.09,7.32-8.91,14.03-14.59,20.14-4.16,4.47-8.47,8.81-13.28,12.57-8.69,6.8-18.24,12.11-28.49,16.18-2.77,1.1-5.67,1.79-8.49,2.74-7.1,2.39-14.42,3.46-21.87,3.82-.73-.07-1.46-.17-2.17.11-3.56.34-7.11.13-10.67-.07-.13,0-.26,0-.4-.01-4.93.13-9.74-.87-14.52-1.81-6.14-1.21-12.15-2.97-17.93-5.44-1.9-.81-3.66-.32-5.28.62-1.8,1.04-2.06,3.93-.68,6.44,1.9,3.44,3.92,6.82,5.75,10.29,8.87,16.87,15.09,34.59,16.19,53.78.41,7.06.35,14.19-.8,21.19-2.7,16.42-9.94,30.6-21.56,42.51-9.85,10.1-21.62,17.26-34.52,22.69-1.05.44-2.07.9-2.92,1.69-1.69,1.58-2.05,3.83-.88,5.79,1.02,1.71,2.75,2.41,4.48,3.05,16.78,6.16,31.81,15.06,44.28,28.09,6.85,7.16,12.33,15.2,16.13,24.34,2.48,5.95,3.83,12.15,4.54,18.61.73,6.6.3,13.05-.72,19.51-.76,4.83-2.5,9.35-4.33,13.89-1.93,4.78-4.76,8.92-7.51,13.16-1.3,2.01-1.6,4.36-.45,6.15,1.36,2.13,4.47,3.63,6.5,3.37,2.8-.35,5.57-.87,8.3-1.54,2.45-.6,4.98.16,7.37-.7.14,0,.27-.02.41-.03,2.12-.07,4.25-.14,6.37-.21.37.83.75.85,1.13,0,2.49.05,4.97.49,7.41.52,4.43.06,8.65,1.19,12.94,1.89,4.56.75,8.86,2.42,13.12,4.14,10.04,4.06,19.08,9.77,27.27,16.82,6.13,5.27,11.57,11.23,16.28,17.79,3.63,5.05,6.81,10.34,9.54,16,1.87,3.88,3.5,7.84,5.18,11.78.79,1.85,1.27,3.84,2.01,5.72.83,2.11,2.71,3.23,4.74,3.2,1.78-.03,3.81-.65,4.7-2.62,1.73-3.86,4.67-6.77,7.54-9.69,4.95-5.02,10.39-9.4,16.6-12.84,6.49-3.59,13.07-6.58,20.69-6.24.35.02.72.05.92-.35,1.18.48,2.07,1.35,2.93,2.26,4.93,5.16,9.92,10.26,14.77,15.48,10.08,10.85,20.23,21.64,30.6,32.21,2.69,2.74,5.46,5.43,9.31,6.53.09,0,.19,0,.28,0,.2.09.4.17.6.26l.33.89Z"/>
    <path class="cls-1" d="m205,.04C301.32.04,397.63.04,493.94,0c1.39,0,1.77.2,1.76,1.71-.05,53.28-.04,106.56-.04,159.84-3.09-3.64-6.89-3.84-11.17-2.57-2.13.63-4.39,1.04-6.61,1.09-5.61.11-11.23.28-16.83-.65-7.92-1.32-15.52-3.6-22.68-7.17-14.75-7.34-26.41-18.23-35.79-31.7-3.7-5.32-6.84-10.92-9.37-16.9-1.84-4.33-3.59-8.69-5.06-13.16-1.11-3.38-1.82-6.84-2.49-10.35-1.38-7.21-1.86-14.43-1.8-21.74.04-4.5.29-8.96,1.1-13.4.39-2.15,1.04-4.27.77-6.5-.2-1.69-1.57-3.26-3.21-3.68-2.13-.55-4.32.06-5.25,1.62-2.24,3.81-5.34,6.91-8.25,10.16-4.28,4.76-9.7,8.01-15.2,11.13-1.73.98-3.57,1.66-5.37,2.46-3.57,1.58-7.23,2.72-11.02,3.69-7.45,1.91-15,2.4-22.62,2.36-6.56-.04-13.07-.72-19.5-2.05-4.07-.84-8.06-1.95-12.04-3.13-4.92-1.45-9.76-3.1-14.42-5.21-7.39-3.35-14.46-7.28-21.18-11.87-14.08-9.63-26.29-21.2-36.54-34.86-1.92-2.57-3.39-5.49-5.81-7.67-.12-.08-.23-.17-.35-.25-.11-.07-.21-.13-.32-.2.11-.32.23-.64.34-.96Z"/>
    <path class="cls-1" d="m495.66,164.77c0,111.2,0,222.39.03,333.59,0,1.34-.3,1.65-1.64,1.65-61.95-.04-123.9-.03-185.85-.03.22-.29-.05-.51-.11-.76,4.12-.6,7.34-2.9,10.26-5.63,14.44-13.51,28.37-27.55,42.55-41.34,13.84-13.45,27.9-26.68,41.53-40.33,13.08-13.1,26.89-25.43,39.71-38.8,4.01-4.19,8.31-8.14,12.49-12.18,3.16-3.06,6.17-6.27,9.35-9.31,2.23-2.13,4-4.49,5.11-7.41,1.57-4.15,1.51-8.25-.06-12.34-1.94-5.02-6.06-8.33-9.69-11.98-2.04-2.05-4.29-3.88-5.93-6.29.58-.5,1.31-.85,1.6-1.63,1.52-.26,2.63-1.33,3.89-2.08,7.49-4.41,15.1-8.34,24.22-7.64,2.55.2,4.54-1.54,5.02-3.92.43-2.16-.88-4.44-3.18-5.36-1.6-.64-3.29-1.04-4.86-1.75-8.67-3.92-14.27-10.68-17.57-19.48-2.78-7.44-4.44-15.08-4.75-23.07-.35-8.79.2-17.5,2-26.05,1.84-8.74,4.73-17.16,8.63-25.28,3.15-6.58,6.78-12.73,11.65-18.15,2.87-3.19,6.01-6.11,9.33-8.81,2.19-1.78,4.69-3.19,6.3-5.62Z"/>
    <path class="cls-5" d="m495.66,164.77c-1.61,2.43-4.11,3.84-6.3,5.62-3.32,2.69-6.46,5.61-9.33,8.81-4.87,5.42-8.5,11.57-11.65,18.15-3.89,8.12-6.79,16.54-8.63,25.28-1.8,8.55-2.34,17.26-2,26.05.32,7.99,1.97,15.64,4.75,23.07,3.29,8.8,8.9,15.55,17.57,19.48,1.56.71,3.26,1.11,4.86,1.75,2.3.92,3.62,3.2,3.18,5.36-.48,2.38-2.46,4.12-5.02,3.92-9.12-.7-16.72,3.23-24.22,7.64-1.26.74-2.37,1.81-3.89,2.08-.91.49-1.89.31-2.86.33-.25-.27-.49-.55-.74-.82-.08-.09-.16-.17-.24-.26l-.09-.02-.02-.1c-.04-.1-.11-.16-.21-.21-.07-.1-.14-.19-.21-.29-.13-.14-.26-.27-.4-.41-.21-.2-.42-.4-.63-.59-.09-.5-.38-.8-.89-.88-.08-.09-.15-.18-.23-.27-.13-.14-.26-.27-.4-.41-.7-.72-1.4-1.44-2.1-2.15,6.44-3.33,12.4-7.6,19.34-9.98,1.03-.35,1.29-1.27.22-2.2-1.3-1.13-2.38-2.48-3.49-3.8-3.27-3.88-5.8-8.2-7.88-12.8-3.85-8.54-5.76-17.59-6.29-26.88-.42-7.24-.06-14.5.75-21.73.18-1.62.95-3.09.87-4.7-.07-1.45.25-2.87.63-4.17.47-1.61.57-3.33,1.27-4.86.76-1.68.76-3.6,1.49-5.23.93-2.06,1.6-4.21,2.35-6.3,2.31-6.43,5.37-12.48,8.79-18.34,2.68-4.6,5.73-8.98,9.49-12.79.42-.43.9-.87.6-1.54-.29-.64-.93-.4-1.43-.41-2.55-.05-5.09-.2-7.63-.3-6.33-.24-12.41-1.72-18.38-3.57-5.64-1.75-11-4.24-16.18-7.12-6.61-3.68-12.79-7.98-18.3-13.15-8.98-8.44-16.96-17.69-22.87-28.66-2.54-4.72-5.01-9.45-6.98-14.43-2.79-7.07-4.99-14.3-6.42-21.8-1.43-7.51-2.09-15.03-2.04-22.65,0-.68.32-1.59-.46-1.96-.75-.36-1.31.44-1.81.85-2.75,2.26-5.51,4.5-8.57,6.3-4.78,2.82-9.68,5.36-14.96,7.26-7.18,2.6-14.55,4.27-22.09,4.96-4.87.44-9.78.48-14.73.22-7.96-.41-15.75-1.58-23.48-3.36-5.72-1.31-11.32-3.15-16.71-5.34-4.49-1.83-9.04-3.6-13.24-6.26-3.63-2.3-7.75-3.78-11.33-6.34-4.7-3.37-9.62-6.39-14.12-10.09-4.03-3.32-7.95-6.75-11.82-10.25-4.85-4.4-8.88-9.56-13.4-14.28-1.04-1.08-1.61-.53-1.79.57-.9,5.49-2.06,10.9-3.58,16.26-1,3.54-2.3,6.97-3.6,10.39-1.34,3.53-3.22,6.86-4.87,10.27-2.36,4.88-5.22,9.44-8.39,13.78-4,5.48-8.48,10.58-13.29,15.42-5.41,5.44-11.42,10.07-17.63,14.47-4.55,3.22-9.53,5.72-14.5,8.22-5.42,2.73-11.1,4.75-16.87,6.55-4.69,1.47-9.46,2.55-14.31,3.43-4.97.91-9.96,1.35-14.97,1.54-10.42.4-20.67-.92-30.78-3.36-.58-.14-1.23-.44-1.66.08-.45.54.03,1.12.24,1.66,1.37,3.57,3.42,6.8,4.82,10.39,2.23,5.74,4.37,11.49,6.14,17.38,2.69,8.95,4.48,18.09,4.97,27.4.38,7.23.27,14.51-.97,21.71-1.48,8.56-3.74,16.85-7.62,24.67-2.01,4.04-4.33,7.87-6.71,11.7-3.04,4.9-6.86,9.11-10.82,13.16-2.51,2.56-5.16,5.05-8.08,7.24-5.83,4.37-11.71,8.65-18.26,11.9-.37.18-.87.21-.88.73-.02.55.43.86.86,1.04,1.14.51,2.33.89,3.46,1.41,4.41,2.06,8.48,4.71,12.65,7.19,6.61,3.93,12.47,8.83,18.07,14.05,3.57,3.32,6.83,6.94,9.76,10.85,2.88,3.83,5.61,7.76,7.9,11.99,2.03,3.76,3.68,7.67,5.19,11.67,2.66,7.06,4.2,14.31,4.46,21.83.2,5.83.11,11.66-1.1,17.4-.71,3.36-1.46,6.74-2.56,9.99-1.42,4.21-3.17,8.3-5.27,12.24-.22.42-.49.86-.14,1.33.39.52.91.37,1.46.31,3.29-.34,6.53-1.09,9.87-.97,4.32.15,8.62.16,12.95.58,4.96.47,9.89,1.05,14.68,2.3,5.74,1.5,11.39,3.33,16.82,5.84,7.65,3.54,14.79,7.93,21.66,12.75,2.78,1.96,5.26,4.39,7.74,6.74,5.96,5.64,11.53,11.64,16.34,18.31,5.25,7.29,9.42,15.21,13.08,23.4.32.71.47,1.54,1.39,1.67,1,.15,1.44-.66,1.95-1.31,1.74-2.21,3.66-4.31,5.89-5.95,3.84-2.84,7.57-5.81,11.61-8.41,3.92-2.53,8.06-4.5,12.3-6.29,1.94-.82,3.82-1.57,5.27-3.13,2.7,2.95,5.93,5.2,9.37,7.19,1.07.62,2.13,1.24,2.47,2.56-.2.4-.57.37-.92.35-7.63-.34-14.2,2.65-20.69,6.24-6.22,3.44-11.66,7.81-16.6,12.84-2.88,2.92-5.81,5.83-7.54,9.69-.89,1.97-2.92,2.59-4.7,2.62-2.03.03-3.9-1.08-4.74-3.2-.74-1.88-1.22-3.86-2.01-5.72-1.68-3.94-3.31-7.9-5.18-11.78-2.72-5.66-5.91-10.95-9.54-16-4.72-6.57-10.15-12.52-16.28-17.79-8.2-7.05-17.24-12.77-27.27-16.82-4.26-1.72-8.57-3.39-13.12-4.14-4.3-.7-8.51-1.84-12.94-1.89-2.44-.03-4.93-.48-7.41-.52-.38,0-.75,0-1.13,0-2.12.07-4.25.14-6.37.21-.15-.14-.28-.13-.41.03-2.39.86-4.92.1-7.37.7-2.72.67-5.5,1.19-8.3,1.54-2.03.25-5.14-1.24-6.5-3.37-1.15-1.79-.85-4.15.45-6.15,2.75-4.24,5.59-8.38,7.51-13.16,1.83-4.54,3.57-9.06,4.33-13.89,1.02-6.46,1.45-12.91.72-19.51-.71-6.45-2.06-12.66-4.54-18.61-3.81-9.14-9.29-17.19-16.13-24.34-12.46-13.03-27.49-21.93-44.28-28.09-1.73-.64-3.46-1.34-4.48-3.05-1.17-1.96-.82-4.22.88-5.79.85-.79,1.87-1.25,2.92-1.69,12.9-5.43,24.66-12.6,34.52-22.69,11.62-11.91,18.86-26.09,21.56-42.51,1.15-7,1.21-14.13.8-21.19-1.11-19.2-7.32-36.91-16.19-53.78-1.83-3.48-3.85-6.85-5.75-10.29-1.38-2.5-1.12-5.4.68-6.44,1.62-.93,3.39-1.43,5.28-.62,5.78,2.46,11.79,4.22,17.93,5.44,4.78.95,9.59,1.94,14.52,1.81.13,0,.26,0,.4.01,3.55.21,7.11.42,10.67.07.74.23,1.46.26,2.17-.11,7.45-.35,14.77-1.43,21.87-3.82,2.82-.95,5.71-1.64,8.49-2.74,10.25-4.07,19.8-9.38,28.49-16.18,4.81-3.76,9.12-8.1,13.28-12.57,5.68-6.11,10.49-12.82,14.59-20.14,3.12-5.59,5.7-11.36,7.62-17.4,1.09-3.43,2.18-6.87,2.94-10.45,1.47-6.9,1.99-13.84,2.32-20.84.03-.56.29-.95.54-1.42.92-1.79,2.19-3.24,3.74-4.49,1.34-.04,2.66.03,3.97.34.11.07.21.13.32.2.12.08.23.17.35.25,2.42,2.19,3.88,5.11,5.81,7.67,10.25,13.67,22.46,25.24,36.54,34.86,6.72,4.59,13.79,8.52,21.18,11.87,4.66,2.11,9.5,3.76,14.42,5.21,3.99,1.18,7.98,2.29,12.04,3.13,6.43,1.33,12.94,2.01,19.5,2.05,7.62.04,15.17-.44,22.62-2.36,3.79-.97,7.44-2.11,11.02-3.69,1.8-.8,3.63-1.47,5.37-2.46,5.5-3.12,10.92-6.37,15.2-11.13,2.92-3.24,6.01-6.35,8.25-10.16.92-1.56,3.12-2.17,5.25-1.62,1.64.42,3.01,1.99,3.21,3.68.27,2.23-.38,4.35-.77,6.5-.81,4.43-1.06,8.9-1.1,13.4-.06,7.3.42,14.53,1.8,21.74.67,3.51,1.38,6.97,2.49,10.35,1.47,4.47,3.22,8.83,5.06,13.16,2.53,5.98,5.67,11.58,9.37,16.9,9.38,13.47,21.04,24.36,35.79,31.7,7.17,3.57,14.77,5.85,22.68,7.17,5.6.93,11.21.76,16.83.65,2.21-.04,4.48-.45,6.61-1.09,4.27-1.27,8.08-1.06,11.17,2.57v3.22Z"/>
    <path class="cls-9" d="m308.09,499.21c.06.25.33.47.11.76h-2.86c.18-.74-.39-.7-.8-.7-.39,0-.88.06-.63.7h-1.07c-.22-.45-.38-.45-.71,0h-1.43c-.11-.3-.22-.6-.33-.89,2.58-.2,5.15-.29,7.72.14Z"/>
    <path class="cls-10" d="m204.66,1c-1.31-.31-2.63-.38-3.97-.34-.11-.21-.22-.41-.33-.62,1.55,0,3.09,0,4.64,0-.11.32-.23.64-.34.96Z"/>
    <path class="cls-11" d="m303.91,499.97c-.25-.64.23-.7.63-.7.41,0,.98-.04.8.7h-1.43Z"/>
    <path class="cls-11" d="m302.13,499.97c.34-.45.5-.45.71,0h-.71Z"/>
    <path class="cls-11" d="m308.09,499.21c-2.57-.43-5.14-.34-7.72-.14-.2-.09-.4-.17-.6-.26-.09-.22-.19-.19-.29,0-3.85-1.1-6.62-3.78-9.31-6.53-10.37-10.57-20.52-21.36-30.6-32.21-4.85-5.23-9.84-10.33-14.77-15.48-.86-.9-1.75-1.77-2.93-2.26-.34-1.32-1.4-1.94-2.47-2.56-3.43-1.99-6.66-4.25-9.37-7.19.04-.77-.53-1.29-.8-1.93-.96-2.21-1.94-4.37-2.23-6.84-.26-2.3,0-4.59-.21-6.88.69-9.2.2-18.4.29-27.61.02-16.05.1-32.1,0-48.14-.03-4.74,1.16-9.04,3.57-13.01,4.15-6.82,9.95-11.94,16.83-15.84,4.48-2.53,7.94-2.43,10.03,3.39,1.1,3.05,3.07,3.85,6.23,3.11,3.06-.71,5.3.3,6.9,3.09.44.77.86,1.58,1.39,2.28,2.84,3.74,7.91,3.7,10.66-.04,1.64-2.23,3.58-2.89,6.07-1.73,4.31,2,8.58-.87,10.75-3.08.3-.3.36-.71.44-1.14.81-4.55,2.27-5.86,6.98-6.25,1.1-.09,2.08-.44,2.94-1.13,4.11-3.32,4.51-9.06.89-12.88-3.23-3.41-2.59-6.46,1.75-8.26,8.5-3.53,17.24-6.42,25.89-9.55,14.18-5.12,28.37-10.21,42.59-15.22,5.12-1.8,10.08-4.12,15.84-3.55,4.78.48,8.62,2.39,11.9,5.69,1.41,1.41,2.69,2.95,4.03,4.44,1.31,1.49,2.54,3.05,3.94,4.45,1.53,1.53,2.94,3.21,4.91,4.25.79,1.49,2.04,2.62,3.25,3.73,4.69,4.28,8.7,9.21,13.23,13.66,2.71,2.65,5.3,5.48,7.84,8.32.7.72,1.4,1.44,2.1,2.15.13.14.26.27.4.41.08.09.15.18.23.27.2.39.48.69.89.88.21.2.42.4.63.59.13.14.26.27.4.41.07.1.14.19.21.29,0,.14.07.21.21.21l.02.1s.09.02.09.02c.08.09.16.17.24.26.25.27.49.55.74.82.42.43.83.87,1.25,1.3,1.65,2.41,3.9,4.25,5.93,6.29,3.63,3.65,7.76,6.95,9.69,11.98,1.57,4.08,1.64,8.19.06,12.34-1.11,2.92-2.87,5.28-5.11,7.41-3.18,3.04-6.19,6.25-9.35,9.31-4.18,4.05-8.47,8-12.49,12.18-12.82,13.37-26.63,25.7-39.71,38.8-13.63,13.65-27.7,26.88-41.53,40.33-14.18,13.78-28.11,27.83-42.55,41.34-2.93,2.74-6.14,5.04-10.26,5.63Zm58.29-141.43c-1.06.52-2.04,1.11-2.36,2.44,1.18.22,2.14-.31,3.1-.8,7.45-2.92,14.82-6.12,22.4-8.65,4.54-1.51,7.23-3.71,8.26-8.65,1.19-5.74,3.34-11.28,5.08-16.9.62-1.44,1.37-2.86,1.36-4.61-1.03.31-1.58.83-1.76,1.71-1.73,1.21-3.03,2.85-4.5,4.32-10.47,10.43-21.04,20.77-31.58,31.14Zm-129.3,65.49c-.09,1.65.67,3.02,1.68,4.17,1.82,2.1,3.92,3.02,6.73,1.31.73-.44,1.38-.97,1.9-1.6,2.85-3.42,6.29-6.23,9.43-9.36,6.86-6.85,13.72-13.7,20.69-20.44,10.64-10.3,20.81-21.09,31.58-31.27,2.32-2.19,4.56-4.46,6.83-6.69,13.54-13.28,27.11-26.53,40.33-40.14,3.87-3.99,7.83-7.92,11.84-11.77,4.06-3.89,8.05-7.87,12.15-11.72,6.93-6.52,13.52-13.41,20.32-20.08,1.11-1.09,1.11-1.76-.06-2.66-3.05-2.33-6.37-2.25-9.75-1.06-6.72,2.36-13.4,4.82-20.1,7.22-7.94,2.85-15.89,5.67-23.84,8.52-4.83,1.73-9.65,3.48-14.46,5.25-3.07,1.13-6.13,2.31-9.19,3.47-.8.3-1.22.64-.8,1.71,1.8,4.49,1.22,9.2-.52,13.31-1.96,4.63-5.49,8.38-10.73,9.82-1.12.31-1.95.96-2.45,2.07-.51,1.15-1.26,2.14-2.14,3.06-4.65,4.86-10.3,7.26-17.02,7.04-1.12-.04-2.1.26-2.98.85-1.57,1.05-3.23,1.84-5.08,2.3-6.32,1.6-11.56-.74-15.97-4.89-1.38-1.3-2.55-2.25-4.35-2.56-.75-.13-1.48,0-2.26-.19-3.02-.77-5.41-2.47-7.4-4.77-1.1-1.28-2.07-1.41-3.48-.41-3.17,2.28-5.86,5.04-8.2,8.14-1.82,2.42-2.67,5.13-2.67,8.26,0,23.21.21,46.43-.18,69.64-.08,4.41-.25,8.82.13,13.23l-.07.12.1.1Zm50.47,51.93c.53-.18.62-.66.78-1.11,1.42-3.98,3.89-7.2,7.02-9.97,4.17-3.7,9.26-5.79,14.19-8.14,8.93-4.26,15.89-10.24,19.14-20.05,1.52-4.58,4.22-8.66,7.3-12.43,3.63-4.45,8.6-6.85,13.66-9.13,5.61-2.53,10.97-5.44,15.46-9.77,3.56-3.44,6.14-7.6,8.47-11.89,5.13-9.42,11.89-17.11,21.79-21.71,2.03-.94,3.79-2.46,5.8-3.46,6.73-3.34,12.92-7.31,17.61-13.36,3.12-4.02,5.55-8.48,8.11-12.83,4.81-8.19,10.03-15.85,19.26-19.61,1.15-.47.62-.93.07-1.51-6.81-7.09-13.6-14.19-20.41-21.28-2.16-2.25-2.14-2.22-3.47.52-.96,1.99-2.24,3.85-2.98,5.91-1.58,4.41-3.04,8.88-4.27,13.39-1.05,3.83-2.42,7.55-3.63,11.32-1.77,5.51-3.3,11.09-5.01,16.62-.39,1.27-.92,2.49-1.22,3.81-.63,2.8-1.82,5.32-4.69,6.47-6.4,2.57-12.79,5.19-19.26,7.56-5.87,2.15-11.65,4.55-17.55,6.66-3.04,1.09-6,2.41-9.07,3.47-.85.29-1.14.85-1.12,1.74.05,1.67.18,3.36-.06,5-2.13,14.52-9.72,25.66-21.78,33.55-8.33,5.45-15.79,11.48-21.24,20.01-4.1,6.42-9.59,11.66-16.1,15.76-6.01,3.78-12.39,6.83-18.82,9.78-1.29.59-1.37,1-.45,1.96,3.88,4.04,7.73,8.1,11.61,12.15.23.24.41.61.85.57Zm127.37-185.74c.13-1-.35-1.73-.97-2.41-.96-1.06-1.93-2.11-2.89-3.17-2.25-2.5-2.22-2.48-4.51-.17-6.85,6.9-13.84,13.66-20.91,20.34-4.81,4.55-9.27,9.48-13.94,14.18-11.22,11.28-22.62,22.37-33.95,33.54-14.27,14.07-28.49,28.2-42.84,42.2-14.45,14.1-28.3,28.82-43.16,42.52-.47.44-.71.86-.19,1.33,2.29,2.08,4.17,4.59,6.8,6.3.69.45,1.41.47,2.03.28,2.13-.64,4.31-1.17,5.98-2.87,1.42-1.45,3.01-2.72,4.48-4.12,5.5-5.27,10.69-10.84,16.24-16.06,6.3-5.91,12.15-12.29,18.5-18.15,3.97-3.66,7.53-7.72,11.56-11.34,3.52-3.16,6.83-6.58,10.25-9.87,7.26-6.96,14.42-14.04,21.53-21.16,10.02-10.04,20.12-19.99,30.34-29.83,9.92-9.55,19.76-19.17,29.46-28.94,3.48-3.51,5.46-7.75,6.2-12.6Zm-110.81,200.2c2.83,0,4.93-.79,6.73-2.65,1.5-1.55,3.21-2.86,4.69-4.47,2.5-2.72,5.31-5.18,7.99-7.74,3.17-3.04,6.35-6.08,9.47-9.19,7.42-7.39,14.85-14.77,22.52-21.9,4.56-4.24,8.9-8.71,13.41-13.02,6.55-6.25,12.96-12.65,19.32-19.09,3.28-3.32,6.82-6.36,9.97-9.83,2.17-2.39,4.8-4.34,7.13-6.59,3.31-3.2,6.55-6.47,9.85-9.68,3.89-3.78,7.85-7.51,11.73-11.31,10.08-9.89,20.19-19.74,30.37-29.51,4.07-3.9,4.41-7.4,1.43-12.14-1.81-2.88-4.81-4.04-7.81-2.81-3.38,1.39-6.49,3.28-8.8,6.22-3.87,4.94-6.83,10.47-10.05,15.82-4.43,7.38-9.47,14.14-16.76,18.97-4.89,3.24-10.17,5.78-15.17,8.84-4.89,3-9.93,5.73-13.34,10.56-2.15,3.05-4.08,6.24-5.93,9.48-4.12,7.25-9.29,13.51-16.43,18.04-3.88,2.46-7.89,4.68-12.15,6.35-6.05,2.37-10.31,6.47-13.04,12.28-.86,1.83-1.68,3.68-2.44,5.56-2.99,7.45-7.76,13.45-14.37,18.02-4.82,3.34-10.11,5.78-15.38,8.26-4.96,2.34-8.55,5.92-10.31,11.24-1.48,4.45-1.52,4.43,2.13,7.59,1.61,1.4,3.09,3.06,5.22,2.7Zm-36.25-35.53c.2-.08.6-.2.96-.38,5.89-2.85,11.58-6.04,17.19-9.42,6.48-3.9,12.04-8.79,16.18-15.11,6.04-9.2,13.92-16.25,23.22-22.05,9.15-5.71,15.34-13.9,17.74-24.66.1-.45.28-1.04-.19-1.31-.58-.34-.95.18-1.31.6-.35.41-.74.78-1.12,1.15-22.43,22.02-44.87,44.04-67.29,66.08-1.47,1.45-3.16,2.51-4.99,3.38-.32.15-.66.27-.97.45-.33.2-.5.52-.36.91.12.34.43.36.94.37Z"/>
    <path class="cls-10" d="m91.79,396.19c.38,0,.75,0,1.13,0-.38.85-.76.83-1.13,0Z"/>
    <path class="cls-10" d="m96.82,110.71c-.71.37-1.43.34-2.17.11.71-.28,1.44-.18,2.17-.11Z"/>
    <path class="cls-9" d="m299.49,498.81c.1-.19.2-.21.29,0-.1,0-.19,0-.29,0Z"/>
    <path class="cls-10" d="m85.01,396.42c.13-.15.26-.17.41-.03-.14,0-.27.02-.41.03Z"/>
    <path class="cls-10" d="m83.98,110.75c-.13,0-.26,0-.4-.01.13,0,.26,0,.4.01Z"/>
    <path class="cls-10" d="m205.33,1.44c-.12-.08-.24-.17-.35-.25.12.08.24.17.35.25Z"/>
    <path class="cls-6" d="m453.39,313.6c-.42-.43-.83-.87-1.25-1.3.96-.02,1.95.16,2.86-.33-.3.78-1.02,1.13-1.6,1.63Z"/>
    <path class="cls-3" d="m226.8,416.92c.21,2.29-.06,4.58.21,6.88.28,2.47,1.27,4.63,2.23,6.84.28.64.85,1.16.8,1.93-1.46,1.56-3.34,2.31-5.27,3.13-4.24,1.79-8.38,3.77-12.3,6.29-4.03,2.6-7.77,5.57-11.61,8.41-2.22,1.64-4.15,3.74-5.89,5.95-.51.65-.95,1.45-1.95,1.31-.92-.14-1.07-.96-1.39-1.67-3.66-8.2-7.83-16.11-13.08-23.4-4.81-6.67-10.38-12.67-16.34-18.31-2.49-2.35-4.96-4.78-7.74-6.74-6.87-4.83-14.01-9.22-21.66-12.75-5.43-2.51-11.08-4.34-16.82-5.84-4.78-1.25-9.71-1.83-14.68-2.3-4.33-.41-8.63-.42-12.95-.58-3.34-.12-6.58.63-9.87.97-.55.06-1.07.21-1.46-.31-.36-.47-.09-.91.14-1.33,2.1-3.93,3.84-8.03,5.27-12.24,1.1-3.25,1.85-6.63,2.56-9.99,1.21-5.74,1.3-11.57,1.1-17.4-.26-7.52-1.79-14.78-4.46-21.83-1.51-4-3.16-7.91-5.19-11.67-2.28-4.23-5.02-8.16-7.9-11.99-2.93-3.91-6.2-7.53-9.76-10.85-5.6-5.22-11.45-10.11-18.07-14.05-4.17-2.48-8.24-5.13-12.65-7.19-1.13-.53-2.32-.91-3.46-1.41-.42-.19-.87-.49-.86-1.04.02-.52.51-.55.88-.73,6.55-3.25,12.43-7.52,18.26-11.9,2.92-2.19,5.57-4.68,8.08-7.24,3.96-4.05,7.78-8.26,10.82-13.16,2.38-3.83,4.7-7.66,6.71-11.7,3.88-7.82,6.15-16.11,7.62-24.67,1.24-7.2,1.35-14.47.97-21.71-.49-9.31-2.28-18.46-4.97-27.4-1.77-5.89-3.9-11.65-6.14-17.38-1.4-3.59-3.45-6.82-4.82-10.39-.21-.55-.69-1.13-.24-1.66.44-.52,1.08-.22,1.66-.08,10.12,2.43,20.37,3.76,30.78,3.36,5.01-.19,10-.63,14.97-1.54,4.85-.88,9.62-1.96,14.31-3.43,5.77-1.81,11.45-3.82,16.87-6.55,4.97-2.51,9.95-5.01,14.5-8.22,6.22-4.4,12.23-9.03,17.63-14.47,4.81-4.84,9.29-9.94,13.29-15.42,3.17-4.33,6.03-8.9,8.39-13.78,1.65-3.41,3.52-6.74,4.87-10.27,1.3-3.42,2.6-6.85,3.6-10.39,1.51-5.36,2.67-10.77,3.58-16.26.18-1.09.75-1.65,1.79-.57,4.52,4.71,8.55,9.88,13.4,14.28,3.86,3.5,7.78,6.94,11.82,10.25,4.5,3.7,9.42,6.72,14.12,10.09,3.58,2.56,7.7,4.04,11.33,6.34,4.2,2.66,8.76,4.43,13.24,6.26,5.4,2.2,10.99,4.03,16.71,5.34,7.74,1.77,15.52,2.94,23.48,3.36,4.94.26,9.86.22,14.73-.22,7.54-.68,14.91-2.36,22.09-4.96,5.27-1.9,10.17-4.44,14.96-7.26,3.06-1.81,5.83-4.05,8.57-6.3.5-.41,1.06-1.21,1.81-.85.77.37.46,1.28.46,1.96-.05,7.62.61,15.14,2.04,22.65,1.43,7.5,3.63,14.73,6.42,21.8,1.97,4.98,4.44,9.71,6.98,14.43,5.9,10.98,13.88,20.22,22.87,28.66,5.51,5.17,11.68,9.47,18.3,13.15,5.18,2.88,10.54,5.37,16.18,7.12,5.98,1.85,12.05,3.33,18.38,3.57,2.54.1,5.09.25,7.63.3.5,0,1.14-.24,1.43.41.3.67-.17,1.11-.6,1.54-3.76,3.82-6.81,8.2-9.49,12.79-3.42,5.86-6.49,11.91-8.79,18.34-.75,2.09-1.43,4.25-2.35,6.3-.73,1.62-.73,3.55-1.49,5.23-.7,1.54-.79,3.25-1.27,4.86-.38,1.29-.7,2.72-.63,4.17.08,1.61-.69,3.08-.87,4.7-.8,7.23-1.17,14.49-.75,21.73.54,9.29,2.45,18.34,6.29,26.88,2.07,4.6,4.61,8.92,7.88,12.8,1.11,1.32,2.19,2.67,3.49,3.8,1.07.93.81,1.84-.22,2.2-6.94,2.38-12.9,6.65-19.34,9.98-2.54-2.85-5.13-5.67-7.84-8.32-4.53-4.44-8.55-9.37-13.23-13.66-1.21-1.11-2.45-2.23-3.25-3.73.36-.87.92-1.72,1.06-2.62.96-6.4,1.87-12.8,1.89-19.3.19-.14.19-.29.01-.44.4-4.46.17-8.9.05-13.37-.19-7.52-.93-14.95-2.21-22.35-1.35-7.79-3.05-15.5-5.45-23.03-2.48-7.76-5.31-15.39-9.03-22.64-2.35-4.57-4.48-9.26-7.2-13.65-3.14-5.06-6.42-10.01-9.97-14.77-7.08-9.5-15.18-18.06-24.13-25.83-10.3-8.94-21.48-16.55-33.59-22.76-11.09-5.68-22.7-10.05-34.78-13.11-11.19-2.84-22.52-4.79-34.09-4.97-11.56-.18-23.11-.13-34.57,1.77-5.58.93-11.14,2.01-16.6,3.42-4.45,1.14-8.87,2.51-13.19,4.16-6.79,2.6-13.57,5.2-20.05,8.57-7.04,3.66-13.89,7.6-20.39,12.16-6.69,4.69-12.96,9.88-18.9,15.48-4.06,3.83-7.88,7.89-11.51,12.16-4.89,5.74-9.61,11.59-13.58,18.01-3.7,5.99-7.25,12.09-10.32,18.44-3.45,7.14-6.64,14.41-9.03,21.98-1.82,5.77-3.39,11.61-4.64,17.53-1.05,5-1.69,10.07-2.44,15.11-.6,3.97-1.47,7.92-1.06,11.99,0,1.79,0,3.57-.01,5.36,0,.24,0,.48,0,.72,0,.24,0,.48,0,.72,0,.6,0,1.2,0,1.79-.02,1.48-.11,2.96-.04,4.43.11,2.35-.32,4.72.34,7.04-.15,1.44.38,2.85.31,4.25-.22,4.46.78,8.78,1.62,13.06,2.98,15.17,7.45,29.88,14.26,43.82,9.57,19.58,22.1,36.92,38.16,51.71,11.55,10.64,24.22,19.59,38.22,26.64,6.16,3.11,12.55,5.73,19.05,8.04,5.48,1.94,11.02,3.68,16.69,4.98,3.41.78,6.83,1.5,10.25,2.24Z"/>
    <path class="cls-6" d="m449.61,309.61c-.4-.19-.69-.48-.89-.88.51.08.8.38.89.88Z"/>
    <path class="cls-6" d="m451.4,311.48c-.08-.09-.16-.17-.24-.26.08.09.16.17.24.26Z"/>
    <path class="cls-6" d="m451.04,311.11c-.14,0-.21-.07-.21-.21.09.04.16.11.21.21Z"/>
    <path class="cls-6" d="m450.63,310.61c-.13-.14-.26-.27-.4-.41.13.14.26.27.4.41Z"/>
    <path class="cls-6" d="m448.49,308.46c-.13-.14-.26-.27-.4-.41.13.14.26.27.4.41Z"/>
    <path class="cls-6" d="m412.82,271.49c-1.34-1.48-2.63-3.02-4.03-4.44-3.29-3.3-7.13-5.21-11.9-5.69-5.77-.58-10.72,1.74-15.84,3.55-14.22,5.01-28.41,10.09-42.59,15.22-8.65,3.13-17.39,6.02-25.89,9.55-4.34,1.8-4.98,4.85-1.75,8.26,3.62,3.83,3.22,9.57-.89,12.88-.86.7-1.84,1.04-2.94,1.13-4.7.39-6.16,1.7-6.98,6.25-.08.43-.14.84-.44,1.14-2.17,2.21-6.45,5.08-10.75,3.08-2.49-1.15-4.43-.5-6.07,1.73-2.75,3.75-7.82,3.78-10.66.04-.54-.71-.95-1.51-1.39-2.28-1.6-2.79-3.84-3.8-6.9-3.09-3.16.73-5.13-.07-6.23-3.11-2.1-5.82-5.55-5.92-10.03-3.39-6.89,3.89-12.69,9.02-16.83,15.84-2.41,3.97-3.6,8.27-3.57,13.01.09,16.05,0,32.1,0,48.14-.39.46-.27,1.02-.27,1.55-.03,4.6-.11,9.19-.04,13.79.02,1.52-.4,1.8-1.85,1.53-5.95-1.14-11.8-2.7-17.54-4.61-10-3.33-19.7-7.36-28.79-12.76-9.86-5.85-19.42-12.1-27.85-19.97-3.26-3.04-6.52-6.06-9.58-9.31-5.56-5.9-10.63-12.19-15.27-18.84-5.98-8.58-10.93-17.74-15.14-27.3-2.16-4.9-4.16-9.89-5.69-15.02-1.96-6.58-3.62-13.25-5.06-19.99-1.29-6.04-2.06-12.18-2.35-18.26-.66-13.87.01-27.73,3.12-41.36.91-3.98,1.47-8.06,3.02-11.88,1.01,1.31,2.02,2.64,3.05,3.94,1.12,1.41,2.64,1.65,4.32,1.5,2.67-.23,3.19-2.86,4.74-4.32,1.26-1.18,1.01-3.07,1.56-4.59.9-2.5,2.39-4.79,2.57-7.54.01-.22.09-.55.25-.64,1.72-.98,1.08-3.19,2.35-4.51.52-.53,1.27-1.53,1.37-2.13.26-1.55.92-2.4,2.33-2.82.1-.03.2-.16.23-.26.66-2.39,2.65-4.35,2.06-7.18-.29-1.37-.09-2.85-.04-4.28.06-1.52-.6-2.17-2.12-2.14-2.74.05-5.47.02-8.21.02,1.58-3.41,3.76-6.45,5.79-9.58,6.8-10.49,15.04-19.76,24.03-28.38,4.13-3.96,8.55-7.57,13.15-10.98,13.38-9.9,27.82-17.77,43.58-23.15,7.75-2.65,15.63-4.73,23.73-6.13,6.13-1.06,12.29-2,18.46-2.24,11.27-.44,22.53-.36,33.74,1.58,8.79,1.52,17.43,3.54,25.87,6.35,9.55,3.19,18.67,7.35,27.48,12.25,11.39,6.33,21.69,14.13,31.24,22.94,7.41,6.83,13.83,14.57,19.73,22.71,8.13,11.21,14.65,23.29,19.43,36.37,2.76,7.55,5.12,15.16,6.7,23.02.83,4.13,1.38,8.31,2.08,12.46.94,5.57,1.52,11.15,1.66,16.78.09,3.62.58,7.24.09,10.87-.02.48-.03.96-.05,1.44-.27,3.73-.9,7.42-.84,11.18.01.83-.24,1.8-1.33,2.08Zm-116.13-65.22c1.78,1.24,3.36,2.78,5.65,3.19,1.64.3,3.16-.52,4.75-.28,1.88.29,3.03-.65,3.85-2.2,1.11-2.11,2.44-4.13,1.93-6.73-.17-.86-.07-1.78-.02-2.67.23-3.67-1.13-6.29-4.76-7.49-.45-.15-.58-.56-.62-1,3.84-2.83,8.07-4.66,12.86-5.03.85-.03,1.75.27,2.54-.28,3.2.05,6.36.32,9.39,1.48,2.59.99,5.2,1.93,7.41,3.68,3.24,2.57,6.06,5.54,8.19,9.1.67,1.12,1.39,1.26,2.46.89,4.78-1.61,9.55-3.22,14.34-4.79.63-.21.6-.63.68-1.09,1.8.23,3.53.88,5.39.73.9-.07,1.68-.31,1.94-1.24.43-1.56.97-3.08,1.6-4.57,1.93,3.41,3.5,7,4.98,10.63,2.83,6.95,5.28,14.03,6.81,21.4.37,1.8.94,2.07,2.64,1.39,1.99-.8,4.05-1.38,6.12-1.89,1.3-.32,1.7-.83,1.31-2.25-2.05-7.53-4.28-14.98-7.25-22.21-4.17-10.18-9.09-19.96-15.73-28.75-6.82-9.03-14.14-17.54-22.91-24.87-13.49-11.26-28.02-20.5-44.65-26.3-5.31-1.85-10.69-3.54-16.1-4.9-3.31-.83-6.82-1.44-10.27-1.99-5.3-.84-10.62-1.4-15.93-1.72-9.38-.55-18.74-.03-28.04,1.51-7.98,1.33-15.8,3.24-23.51,5.63-5.4,1.67-10.61,3.84-15.79,6.09-1.09.47-1.61.9-.73,2.22,1.3,1.96,2.35,4.1,3.37,6.23.62,1.29,1.45,1.22,2.46.72,4.76-2.32,9.75-4.02,14.72-5.79,4.74-1.69,9.59-3.02,14.54-3.81,4.77-.76,9.48-2.06,14.4-1.9,2.1.07,4.23-.61,6.34-.57,5.44.1,10.87-.4,16.33.5,3.4.56,6.89.43,10.37,1.06,7.36,1.33,14.55,3.13,21.67,5.43,4.73,1.53,9.45,3.14,13.88,5.3,5.2,2.54,10.33,5.29,15.21,8.48,10.62,6.93,20.19,15.05,28.47,24.66,2.63,3.05,5.36,6.06,7.4,9.59-3.02.02-6.05.07-9.07.03-1.54-.02-2.93-.01-2.9,2.1,0,.45-.42.69-.83.83-.69-.02-1.24-.38-1.76-.78-4.36-3.35-9.34-5.35-14.57-6.8-4.13-1.15-8.34-1.18-12.62-1.18-4.8,0-9.37.8-13.9,2.24-3.18,1.01-6.07,2.62-9.07,4.02-.14-.98-.9-.81-1.52-.77-1.83.12-3.64.39-5.49.37-4.64-.07-9.28.02-13.92-.04-1.25-.02-1.67.38-1.62,1.63.05,1.6-.01,3.19-.26,4.8-.34,2.23.21,4.48.66,6.69.11.55.31,1.38,1.08,1.12,1.22-.4,1.74.42,2.06,1.17.64,1.55,1.71,2.03,3.25,1.79-.14,1.04-.79,1.85-1.2,2.77-2.75,6.12-4.98,12.34-4.56,19.23.16,2.55.13,5.11.39,7.66.2,1.97.76,2.38,2.53,1.5.42-.21.87-.35,1.31-.5,4.1-1.38,8.32-2.33,12.38-3.85,1.03-.39,1.35-.84,1.32-1.91-.06-2.59-.31-5.22.62-7.74Zm-64.96,23.34c.52.1,1.04.2,1.56.29,2.68.47,4.7-.56,5.18-2.78.28-1.32.47-2.8.32-4.04-.35-2.87-.22-5.71-.18-8.55.03-2.2-1.42-3.57-2.37-5.2-1.5-2.57-4.95-.99-6.8-2.98-3,.43-4.13-1.84-5.02-3.91-.92-2.13-2.99-2.89-4.5-3.1-3.67-.51-7.47-.23-11.21-.09-.94.03-2.54.21-1.32,2.04.33.49.25,1.28-.17,1.87-.25.35-.6.77-.32,1.13,1.51,1.95.58,3.81-.13,5.69-.52-.1-1.05-.15-1.55-.3-6.9-2.07-13.88-2.34-20.93-.89.46-1.3-.54-3-.18-3.67,1.12-2.05.28-3.92.37-5.86.07-1.55-.66-2.88-2.2-2.94-1.84-.07-3.68-.01-5.53-.02-.64,0-1.11.24-1,.92.32,2.05-.94,2.01-2.36,1.96-1.78-.07-3.61.24-5.34-.08-2.01-.38-3.08,1.34-4.78,1.74-2.8.66-4.37,3.89-7.32,4.77-.05.01-.08.09-.11.14-.26.49-.7.62-1.2.57-1.19-.11-2.11.36-3.09,1.06-1.29.92-2.38,1.95-3.4,3.16-1.29,1.55-2.34,3.2-2.39,5.23-.1,3.63.19,7.29-.09,10.91-.33,4.3,2.33,5.32,6.16,6.53-.86,2.14-1.53,4.34-2.3,6.5-2.37,6.59-2.88,13.31-2.01,20.21.37,2.92.7,3.15,3.44,2.28,4.18-1.33,8.35-2.7,12.59-3.85,1.22-.33,1.52-.8,1.5-1.91-.05-3.03.17-5.98.89-9,1.84-7.76,6.1-13.56,12.87-17.58,8.4-4.99,17.12-5.19,25.9-1.25,4.82,2.16,8.5,5.83,11.37,10.26,1.74,2.68,2.06,2.85,5.02,1.85,3.88-1.31,7.76-2.63,11.64-3.94,1.83-.62,2.03-1.03,1.17-2.86-.68-1.45-1.44-2.85-2.16-4.28Zm108.85,25.39c1.76.14,3.93-.25,6.07-.73,9.22-2.08,17.21-6.17,22.3-14.55,4.86-7.99,2.96-17.48-5.74-22.15-7.34-3.94-15.02-3.8-22.73-1.82-8.4,2.16-15.32,6.5-19.57,14.51-3.94,7.43-2.63,14.92,2.95,19.35,4.67,3.71,10.23,5.46,16.72,5.38Zm-159.7,50.54c9.82.01,18.03-3.05,24.98-9.25,3.34-2.98,5.93-6.5,6.86-10.99.81-3.92.65-7.66-1.67-11.24-2.52-3.89-6.18-5.99-10.29-7.54-4.68-1.77-9.54-1.87-14.39-1.04-3.01.52-6.13,1.09-8.86,2.37-5.46,2.57-10.51,5.77-13.81,11.2-3.53,5.81-4.82,11.62-1.15,17.8,1.55,2.61,3.83,4.61,6.48,5.93,3.85,1.92,7.97,3.07,11.84,2.75Zm87.12-14.34c2.55.2,5.09-.39,7.62-1.03,6.98-1.76,11.59-6.48,15.28-12.32.65-1.03,1.09-1.21,2.03-.39.89.78,1.86,1.51,2.89,2.07,4.72,2.58,9.66,4.19,15.15,3.49,1.29-.17,1.66-.55,1.26-1.82-.41-1.3-.62-2.66-.91-3.99q-.81-3.73-4.57-4.25c-6.53-.9-11.85-5.51-13-11.98-1.08-6.09.22-11.7,7.03-16.04,1.14-.72,1.8-1.57,1.34-3.07-.59-1.92-1.05-3.89-1.52-5.85-.45-1.89-1.09-2.21-2.91-1.35-2.86,1.35-5.36,3.13-7.48,5.56-5.44,6.27-7.49,13.6-6.51,21.67.92,7.53-2.91,14.86-9.81,17.65-6.98,2.83-15,.41-19.26-5.98-6.48-9.71-15.67-13.79-27.3-12.12-1.5.21-2.01.86-1.42,2.28.92,2.2,1.85,4.39,2.77,6.58.34.81,1.01,1.3,1.83,1.11,1.21-.28,2.36-.03,3.53.07,10.9.87,17.15,12.81,11.89,22.23-1.19,2.13-2.79,3.82-4.66,5.33-.5.4-1.15.82-.8,1.61,1.07,2.44,2.15,4.88,3.29,7.3.39.83,1.1,1.07,1.92.5,6.22-4.31,10.48-9.95,11.8-17.56.18-1.01.5-1.47,1.66-1.06,2.81.99,5.72,1.57,8.83,1.38Z"/>
    <path class="cls-10" d="m237.05,423.04c-.38-4.41-.21-8.82-.13-13.23.4-23.21.19-46.43.18-69.64,0-3.13.84-5.84,2.67-8.26,2.34-3.1,5.03-5.86,8.2-8.14,1.4-1.01,2.37-.87,3.48.41,1.99,2.3,4.38,4,7.4,4.77.77.2,1.51.06,2.26.19,1.8.31,2.97,1.26,4.35,2.56,4.41,4.15,9.65,6.49,15.97,4.89,1.84-.47,3.5-1.25,5.08-2.3.89-.59,1.86-.89,2.98-.85,6.72.22,12.37-2.18,17.02-7.04.88-.92,1.63-1.91,2.14-3.06.49-1.12,1.33-1.77,2.45-2.07,5.25-1.44,8.77-5.19,10.73-9.82,1.74-4.11,2.32-8.82.52-13.31-.43-1.06,0-1.4.8-1.71,3.06-1.16,6.12-2.34,9.19-3.47,4.81-1.77,9.64-3.52,14.46-5.25,7.94-2.85,15.89-5.67,23.84-8.52,6.7-2.4,13.39-4.86,20.1-7.22,3.38-1.19,6.71-1.27,9.75,1.06,1.18.9,1.17,1.57.06,2.66-6.8,6.67-13.38,13.56-20.32,20.08-4.1,3.86-8.09,7.83-12.15,11.72-4.01,3.85-7.97,7.78-11.84,11.77-13.22,13.61-26.79,26.85-40.33,40.14-2.28,2.23-4.52,4.5-6.83,6.69-10.77,10.18-20.94,20.97-31.58,31.27-6.97,6.74-13.82,13.6-20.69,20.44-3.13,3.13-6.58,5.94-9.43,9.36-.52.63-1.17,1.15-1.9,1.6-2.81,1.71-4.91.79-6.73-1.31-1-1.16-1.77-2.52-1.68-4.17,0,0,.06-.12.06-.12l-.09-.1Z"/>
    <path class="cls-9" d="m412.82,271.49c1.09-.27,1.35-1.25,1.33-2.08-.06-3.76.57-7.45.84-11.18.46-.46.44-.94.05-1.44.49-3.63,0-7.25-.09-10.87-.14-5.63-.72-11.21-1.66-16.78-.7-4.15-1.25-8.33-2.08-12.46-1.58-7.86-3.94-15.47-6.7-23.02-4.78-13.08-11.3-25.16-19.43-36.37-5.9-8.13-12.33-15.88-19.73-22.71-9.55-8.81-19.85-16.61-31.24-22.94-8.81-4.89-17.94-9.06-27.48-12.25-8.44-2.82-17.09-4.83-25.87-6.35-11.2-1.94-22.47-2.02-33.74-1.58-6.17.24-12.33,1.17-18.46,2.24-8.1,1.41-15.98,3.48-23.73,6.13-15.76,5.38-30.2,13.26-43.58,23.15-4.6,3.4-9.03,7.02-13.15,10.98-8.99,8.62-17.23,17.89-24.03,28.38-2.03,3.13-4.21,6.17-5.79,9.58-2.8,5.1-5.53,10.24-7.74,15.64-2.58,6.32-5.28,12.59-6.71,19.3-1.55,3.82-2.11,7.89-3.02,11.88-3.11,13.63-3.79,27.49-3.12,41.36.29,6.08,1.06,12.21,2.35,18.26,1.44,6.73,3.09,13.4,5.06,19.99,1.53,5.13,3.53,10.12,5.69,15.02,4.22,9.56,9.16,18.72,15.14,27.3,4.64,6.65,9.71,12.94,15.27,18.84,3.06,3.25,6.32,6.27,9.58,9.31,8.43,7.87,17.99,14.12,27.85,19.97,9.1,5.4,18.8,9.42,28.79,12.76,5.74,1.91,11.59,3.47,17.54,4.61,1.45.28,1.87,0,1.85-1.53-.07-4.59,0-9.19.04-13.79,0-.53-.12-1.08.27-1.55-.1,9.2.4,18.41-.29,27.61-3.42-.74-6.84-1.46-10.25-2.24-5.67-1.29-11.21-3.03-16.69-4.98-6.5-2.31-12.88-4.93-19.05-8.04-14-7.06-26.67-16.01-38.22-26.64-16.06-14.79-28.59-32.13-38.16-51.71-6.81-13.94-11.28-28.65-14.26-43.82-.84-4.28-1.84-8.6-1.62-13.06.07-1.4-.46-2.81-.31-4.25,0-2.43.06-4.86-.02-7.28-.04-1.39.35-2.83-.28-4.18,0-.6,0-1.2,0-1.79.32-.24.32-.48,0-.72,0-.24,0-.48,0-.72.49-1.78.49-3.57.01-5.36-.41-4.06.46-8.02,1.06-11.99.76-5.05,1.39-10.11,2.44-15.11,1.25-5.93,2.82-11.77,4.64-17.53,2.39-7.58,5.57-14.85,9.03-21.98,3.07-6.35,6.61-12.45,10.32-18.44,3.97-6.42,8.69-12.26,13.58-18.01,3.63-4.27,7.45-8.33,11.51-12.16,5.93-5.59,12.21-10.79,18.9-15.48,6.51-4.56,13.36-8.5,20.39-12.16,6.48-3.37,13.26-5.97,20.05-8.57,4.32-1.65,8.74-3.02,13.19-4.16,5.46-1.4,11.02-2.49,16.6-3.42,11.46-1.9,23.01-1.95,34.57-1.77,11.58.18,22.91,2.13,34.09,4.97,12.08,3.07,23.69,7.43,34.78,13.11,12.11,6.21,23.29,13.82,33.59,22.76,8.95,7.77,17.05,16.33,24.13,25.83,3.55,4.76,6.83,9.71,9.97,14.77,2.73,4.39,4.86,9.08,7.2,13.65,3.72,7.24,6.55,14.88,9.03,22.64,2.41,7.53,4.1,15.24,5.45,23.03,1.28,7.4,2.02,14.83,2.21,22.35.12,4.47.34,8.91-.05,13.37,0,.15,0,.29-.01.44-.02,6.49-.93,12.9-1.89,19.3-.14.91-.69,1.75-1.06,2.62-1.96-1.03-3.38-2.72-4.91-4.24-1.4-1.4-2.64-2.96-3.94-4.45Z"/>
    <path class="cls-2" d="m287.54,475.2c-.44.04-.62-.33-.85-.57-3.87-4.05-7.72-8.11-11.61-12.15-.92-.95-.84-1.37.45-1.96,6.43-2.95,12.8-6,18.82-9.78,6.52-4.09,12-9.34,16.1-15.76,5.45-8.53,12.91-14.56,21.24-20.01,12.06-7.9,19.65-19.03,21.78-33.55.24-1.63.11-3.33.06-5-.02-.89.27-1.45,1.12-1.74,3.06-1.05,6.03-2.38,9.07-3.47,5.89-2.11,11.67-4.5,17.55-6.66,6.47-2.37,12.86-4.99,19.26-7.56,2.87-1.15,4.06-3.67,4.69-6.47.3-1.32.83-2.54,1.22-3.81,1.71-5.53,3.24-11.11,5.01-16.62,1.21-3.77,2.58-7.49,3.63-11.32,1.23-4.52,2.69-8.98,4.27-13.39.74-2.06,2.02-3.93,2.98-5.91,1.33-2.74,1.31-2.77,3.47-.52,6.81,7.09,13.6,14.2,20.41,21.28.55.57,1.09,1.04-.07,1.51-9.23,3.76-14.46,11.42-19.26,19.61-2.56,4.36-4.99,8.81-8.11,12.83-4.69,6.04-10.89,10.02-17.61,13.36-2.01,1-3.77,2.52-5.8,3.46-9.9,4.6-16.67,12.28-21.79,21.71-2.33,4.29-4.91,8.45-8.47,11.89-4.49,4.33-9.85,7.24-15.46,9.77-5.06,2.28-10.03,4.68-13.66,9.13-3.08,3.77-5.78,7.85-7.3,12.43-3.25,9.81-10.21,15.79-19.14,20.05-4.93,2.35-10.02,4.44-14.19,8.14-3.12,2.77-5.6,6-7.02,9.97-.16.45-.25.93-.78,1.11Z"/>
    <path class="cls-4" d="m414.92,289.46c-.74,4.85-2.72,9.09-6.2,12.6-9.7,9.77-19.54,19.39-29.46,28.94-10.22,9.83-20.32,19.79-30.34,29.83-7.11,7.12-14.26,14.2-21.53,21.16-3.43,3.28-6.73,6.71-10.25,9.87-4.03,3.62-7.59,7.68-11.56,11.34-6.36,5.86-12.21,12.24-18.5,18.15-5.56,5.22-10.74,10.79-16.24,16.06-1.47,1.4-3.06,2.67-4.48,4.12-1.67,1.7-3.85,2.23-5.98,2.87-.63.19-1.34.17-2.03-.28-2.63-1.71-4.51-4.23-6.8-6.3-.52-.47-.28-.9.19-1.33,14.86-13.69,28.71-28.41,43.16-42.52,14.35-14,28.56-28.13,42.84-42.2,11.33-11.17,22.73-22.26,33.95-33.54,4.67-4.7,9.13-9.62,13.94-14.18,7.07-6.68,14.05-13.44,20.91-20.34,2.29-2.3,2.26-2.32,4.51.17.96,1.06,1.93,2.11,2.89,3.17.62.68,1.11,1.42.97,2.41Z"/>
    <path class="cls-4" d="m304.11,489.66c-2.13.36-3.61-1.3-5.22-2.7-3.65-3.16-3.61-3.14-2.13-7.59,1.76-5.32,5.35-8.9,10.31-11.24,5.27-2.48,10.55-4.92,15.38-8.26,6.61-4.57,11.37-10.57,14.37-18.02.75-1.88,1.58-3.73,2.44-5.56,2.73-5.81,6.99-9.91,13.04-12.28,4.25-1.66,8.26-3.88,12.15-6.35,7.13-4.53,12.31-10.79,16.43-18.04,1.84-3.24,3.77-6.43,5.93-9.48,3.42-4.83,8.45-7.56,13.34-10.56,4.99-3.06,10.28-5.61,15.17-8.84,7.29-4.83,12.33-11.59,16.76-18.97,3.22-5.35,6.18-10.89,10.05-15.82,2.31-2.94,5.41-4.83,8.8-6.22,2.99-1.23,6-.07,7.81,2.81,2.98,4.74,2.64,8.24-1.43,12.14-10.19,9.77-20.3,19.63-30.37,29.51-3.87,3.8-7.83,7.53-11.73,11.31-3.3,3.2-6.54,6.48-9.85,9.68-2.33,2.25-4.96,4.2-7.13,6.59-3.15,3.47-6.69,6.51-9.97,9.83-6.37,6.44-12.78,12.84-19.32,19.09-4.51,4.3-8.85,8.78-13.41,13.02-7.67,7.14-15.1,14.51-22.52,21.9-3.11,3.1-6.29,6.15-9.47,9.19-2.68,2.56-5.48,5.02-7.99,7.74-1.48,1.61-3.2,2.92-4.69,4.47-1.8,1.86-3.9,2.66-6.73,2.65Z"/>
    <path class="cls-8" d="m267.86,454.13c-.51,0-.82-.03-.94-.37-.14-.39.03-.71.36-.91.3-.18.65-.29.97-.45,1.83-.88,3.52-1.94,4.99-3.38,22.42-22.04,44.86-44.05,67.29-66.08.38-.38.77-.74,1.12-1.15.36-.42.73-.94,1.31-.6.47.27.29.86.19,1.31-2.39,10.76-8.59,18.95-17.74,24.66-9.3,5.8-17.18,12.85-23.22,22.05-4.14,6.32-9.7,11.21-16.18,15.11-5.61,3.38-11.3,6.56-17.19,9.42-.37.18-.76.3-.96.38Z"/>
    <path class="cls-6" d="m402.85,325.22c-1.74,5.63-3.89,11.16-5.08,16.9-1.02,4.94-3.72,7.13-8.26,8.65-7.58,2.53-14.95,5.73-22.4,8.65.12-.71-.3-1.18-.74-1.64,10.54-10.37,21.11-20.71,31.58-31.14,1.48-1.47,2.77-3.11,4.5-4.32.68.89.3,1.93.39,2.9Z"/>
    <path class="cls-4" d="m366.37,357.77c.44.46.86.93.74,1.64-.96.49-1.92,1.02-3.1.8.32-1.33,1.3-1.92,2.36-2.44Z"/>
    <path class="cls-4" d="m402.85,325.22c-.09-.97.28-2.01-.39-2.9.17-.89.73-1.4,1.76-1.71,0,1.76-.74,3.17-1.36,4.61Z"/>
    <polygon class="cls-2" points="237.05 423.04 237.13 423.15 237.08 423.27 236.97 423.16 237.05 423.04"/>
    <path class="cls-4" d="m87.94,250.72c.64,1.36.24,2.79.28,4.18.07,2.43.02,4.86.02,7.28-.66-2.32-.23-4.69-.34-7.04-.07-1.47.02-2.96.04-4.43Z"/>
    <path class="cls-4" d="m87.96,242.13c.48,1.79.47,3.57-.01,5.36,0-1.79,0-3.57.01-5.36Z"/>
    <path class="cls-4" d="m87.95,248.21c.31.24.31.48,0,.72,0-.24,0-.48,0-.72Z"/>
    <path class="cls-4" d="m424.62,258.27c0-.15,0-.29.01-.44.18.15.18.3-.01.44Z"/>
    <path class="cls-10" d="m364.38,171.88c-2.04-3.53-4.77-6.53-7.4-9.59-8.28-9.61-17.85-17.74-28.47-24.66-4.88-3.18-10.01-5.94-15.21-8.48-4.42-2.16-9.15-3.77-13.88-5.3-7.11-2.3-14.31-4.1-21.67-5.43-3.48-.63-6.97-.5-10.37-1.06-5.46-.89-10.89-.4-16.33-.5-2.11-.04-4.23.64-6.34.57-4.92-.16-9.63,1.14-14.4,1.9-4.95.79-9.8,2.12-14.54,3.81-4.97,1.77-9.97,3.47-14.72,5.79-1.01.49-1.84.57-2.46-.72-1.02-2.13-2.07-4.27-3.37-6.23-.88-1.32-.36-1.75.73-2.22,5.18-2.25,10.39-4.42,15.79-6.09,7.72-2.39,15.54-4.3,23.51-5.63,9.3-1.55,18.67-2.07,28.04-1.51,5.31.31,10.64.88,15.93,1.72,3.45.55,6.96,1.16,10.27,1.99,5.41,1.36,10.8,3.05,16.1,4.9,16.63,5.8,31.16,15.05,44.65,26.3,8.78,7.32,16.1,15.84,22.91,24.87,6.64,8.79,11.56,18.57,15.73,28.75,2.96,7.23,5.2,14.68,7.25,22.21.39,1.42,0,1.94-1.31,2.25-2.08.5-4.13,1.08-6.12,1.89-1.69.68-2.26.4-2.64-1.39-1.54-7.37-3.99-14.45-6.81-21.4-1.47-3.62-3.04-7.21-4.98-10.63-1.53-3.67-3.6-7.06-5.78-10.36-1.29-1.96-2.25-4.19-4.12-5.73Z"/>
    <path class="cls-9" d="m184.29,208.78c7.05-1.45,14.03-1.19,20.93.89.5.15,1.04.2,1.55.3.75.33,1.5.69,2.26.98,3.34,1.28,6.54,2.82,9.51,4.84,5.39,3.66,9.71,8.33,13.19,13.82.72,1.42,1.49,2.83,2.16,4.28.86,1.83.66,2.24-1.17,2.86-3.88,1.31-7.76,2.63-11.64,3.94-2.96,1-3.28.83-5.02-1.85-2.87-4.43-6.55-8.09-11.37-10.26-8.78-3.94-17.5-3.75-25.9,1.25-6.77,4.02-11.03,9.82-12.87,17.58-.71,3.01-.94,5.97-.89,9,.02,1.12-.28,1.58-1.5,1.91-4.23,1.15-8.4,2.52-12.59,3.85-2.74.87-3.07.64-3.44-2.28-.88-6.9-.36-13.61,2.01-20.21.78-2.16,1.44-4.37,2.3-6.5,1.25-2.27,2.61-4.46,4.13-6.55,7.08-9.74,16.76-15.29,28.33-17.85Z"/>
    <path class="cls-9" d="m299.66,172.36c3-1.4,5.89-3.01,9.07-4.02,4.53-1.44,9.1-2.25,13.9-2.24,4.27,0,8.49.03,12.62,1.18,5.23,1.45,10.22,3.45,14.57,6.8.52.4,1.07.75,1.76.78.17.46.44.83.92,1.01.11.1.22.21.33.31,5.44,4.68,9.68,10.26,12.52,16.88-.07.46-.05.88-.68,1.09-4.79,1.57-9.56,3.18-14.34,4.79-1.07.36-1.79.23-2.46-.89-2.13-3.56-4.95-6.53-8.19-9.1-2.21-1.75-4.82-2.69-7.41-3.68-3.03-1.16-6.19-1.43-9.4-1.48-.85.04-1.75-.32-2.54.28-4.8.37-9.02,2.2-12.86,5.03-1.72,1.16-3.26,2.56-4.61,4.12-3.03,3.48-5.29,7.38-6.06,12.02,0,.12,0,.24,0,.36-.04.22-.07.45-.11.67-.94,2.52-.69,5.14-.62,7.74.03,1.07-.29,1.53-1.32,1.91-4.06,1.52-8.28,2.48-12.38,3.85-.44.15-.89.29-1.31.5-1.77.88-2.33.47-2.53-1.5-.26-2.55-.24-5.11-.39-7.66-.43-6.89,1.81-13.12,4.56-19.23.41-.92,1.06-1.73,1.2-2.77,0,0,.01,0,.01,0l.28-.33c.15-.44.21-.96.47-1.32,1.99-2.79,3.96-5.58,6.34-8.08,2.59-2.72,5.65-4.83,8.67-7.01Z"/>
    <path class="cls-8" d="m340.58,255c-6.5.07-12.05-1.67-16.72-5.38-5.58-4.44-6.89-11.93-2.95-19.35,4.26-8.02,11.18-12.35,19.57-14.51,7.71-1.98,15.39-2.12,22.73,1.82,8.7,4.67,10.6,14.17,5.74,22.15-5.1,8.37-13.08,12.47-22.3,14.55-2.14.48-4.31.87-6.07.73Z"/>
    <path class="cls-8" d="m180.88,305.55c-3.86.32-7.99-.83-11.84-2.75-2.65-1.32-4.93-3.33-6.48-5.93-3.67-6.17-2.39-11.99,1.15-17.8,3.31-5.43,8.36-8.63,13.81-11.2,2.73-1.28,5.85-1.85,8.86-2.37,4.84-.83,9.71-.73,14.39,1.04,4.11,1.55,7.77,3.65,10.29,7.54,2.32,3.58,2.48,7.32,1.67,11.24-.93,4.48-3.52,8.01-6.86,10.99-6.96,6.2-15.16,9.27-24.98,9.25Z"/>
    <path class="cls-9" d="m268,291.21c-3.11.19-6.01-.39-8.83-1.38-1.16-.41-1.49.05-1.66,1.06-1.32,7.62-5.58,13.26-11.8,17.56-.82.57-1.53.33-1.92-.5-1.14-2.41-2.22-4.85-3.29-7.3-.35-.79.31-1.21.8-1.61,1.87-1.5,3.47-3.2,4.66-5.33,5.26-9.42-.99-21.36-11.89-22.23-1.17-.09-2.32-.35-3.53-.07-.82.19-1.49-.3-1.83-1.11-.93-2.19-1.86-4.38-2.77-6.58-.59-1.42-.08-2.06,1.42-2.28,11.63-1.67,20.81,2.41,27.3,12.12,4.26,6.38,12.27,8.81,19.26,5.98,6.9-2.8,10.73-10.13,9.81-17.65-.98-8.07,1.07-15.4,6.51-21.67,2.11-2.43,4.61-4.21,7.48-5.56,1.82-.86,2.46-.54,2.91,1.35.47,1.96.92,3.92,1.52,5.85.46,1.49-.2,2.34-1.34,3.07-6.81,4.34-8.12,9.95-7.03,16.04,1.15,6.48,6.46,11.09,13,11.98q3.76.52,4.57,4.25c.29,1.33.5,2.69.91,3.99.4,1.28.03,1.66-1.26,1.82-5.49.7-10.44-.91-15.15-3.49-1.03-.57-2.01-1.29-2.89-2.07-.94-.82-1.38-.64-2.03.39-3.69,5.84-8.3,10.56-15.28,12.32-2.54.64-5.08,1.23-7.62,1.03Z"/>
    <path class="cls-7" d="m184.29,208.78c-11.57,2.56-21.25,8.11-28.33,17.85-1.52,2.1-2.88,4.29-4.13,6.55-3.23,4.18-6.51,4.3-6.18,0,.28-3.62-5.07.47-4.97-3.17.06-2.03-3.21-2.66-1.92-4.21-14.92,13.6-1.05-11.11.24-12.03-8.95-5.56,5.46-19.52,6.65-19.41.51.05,5.33-1.73,5.59-2.22.03-.05,4.99-2.33,5.04-2.34,2.95-.88,3.2,3,6,2.34,1.7-.4,3.75-.38,5.76,0,1.72.32,3.02-.07,4.8,0,1.42.05,4.16,2.05,3.84,0-.11-.68,3.45.12,4.08,0,3.43-.66,22.73-4.81,8.31,2.94,1.55.06.88,2.4.81,3.95-.09,1.94.4,5.76-.72,7.81-.37.67-4.41.64-4.87,1.94Z"/>
    <path class="cls-7" d="m231.73,229.61c-3.47-5.49-7.8-10.17-13.19-13.82-2.97-2.01-6.17-3.56-9.51-4.84-.77-.29-1.51-.66-2.26-.98.71-1.88-5.48-2.07-6.99-4.02-.28-.36.83-4.87,1.08-5.22.41-.59,4.13-2.57,3.8-3.06-1.21-1.83,3.36-1.36,4.3-1.39,3.74-.13,8.75-.51,12.42,0,1.51.21,4.3,1.78,5.22,3.91.89,2.06,1.5,3.67,4.5,3.24,1.85,1.99,7.32,2.65,8.82,5.22.95,1.63,1.65,6.08,1.62,8.28-.04,2.84-.35,7.03,0,9.9.15,1.25-1.34,3.54-1.62,4.86-.48,2.22-3.34,2.68-6.03,2.21-.52-.09-1.65-4.18-2.16-4.28Z"/>
    <path class="cls-7" d="m103.81,206.88c1.44-6.71,4.13-12.99,6.71-19.3,2.21-5.4,4.94-10.54,7.74-15.64,5.19-7.92,7.74-4.47,10.48-4.52,1.52-.03,3.21,6.04,3.16,7.56-.05,1.43-1.17,5.11-.88,6.48.59,2.82-.06,2.11-.72,4.5-.03.1-2.06,3.55-2.16,3.58-1.41.42-2.62,1.89-2.88,3.44-.1.6-2,2.76-2.52,3.29-1.28,1.32.64,2.39-1.08,3.37-.16.09-1.61,1.76-1.62,1.98-.18,2.75.54.74-.36,3.24-.55,1.52-.56,4.58-1.82,5.76-1.55,1.46-3.79,3.91-6.46,4.14-1.67.15-5.18-.34-6.3-1.75-1.03-1.3-.27-4.82-1.29-6.13Z"/>
    <path class="cls-7" d="m352.5,175.86c-.47-.18-.75-.55-.92-1.01.41-.15-3.12-4.29-3.12-4.74-.02-2.12,2.83-3.26,4.37-3.24,3.02.03,8.53,5.02,11.55,5.01,1.87,1.55,2.83,3.78,4.12,5.73,2.18,3.3,4.25,6.69,5.78,10.36-.64,1.49,2.14,7.94,1.71,9.5-.25.92-5.76,1.73-6.66,1.8-1.86.15-2.19-5.99-3.99-6.22-2.85-6.62-7.08-12.2-12.52-16.88-.11-.1-.22-.21-.33-.31Z"/>
    <path class="cls-7" d="m296.8,205.23c.76-4.64,3.03-8.54,6.06-12.02,1.36-1.56,2.89-2.95,4.61-4.12.03.44,2.55-.48,3.01-.33,3.63,1.2,6.35.97,6.12,4.64-.06.89,1.09,4.48,1.26,5.34.51,2.6-1.59,8.15-2.7,10.26-.82,1.55-5.19,5.68-7.07,5.39-1.59-.24-6.79-.6-8.43-.89-2.29-.41-1.19-5.99-2.97-7.23.04-.22.07-.45.11-.67.04-.03.13-.08.12-.1-.02-.09-.08-.18-.12-.26Z"/>
    <path class="cls-7" d="m299.66,172.36c-3.02,2.18-6.08,4.29-8.67,7.01-2.37,2.49-4.35,5.29-6.34,8.08-.26.37-.32.88-.47,1.32-.09.11-.19.22-.28.33,0,0-.01,0-.01,0-1.54.24-4.1,2.1-4.74.56-.31-.76-3.46-.9-4.68-.5-.77.25-6.19-1.58-6.3-2.13-.45-2.21.52-8.63.86-10.86.25-1.61,4.05-4.1,4-5.7-.04-1.25,3.79-1.64,5.04-1.62,4.64.06,9.58-.07,14.22,0,1.85.03,4.47.1,6.3-.02.62-.04.92,2.54,1.06,3.52Z"/>
    <path class="cls-4" d="m320.34,184.07c.79-.6,1.69-.24,2.54-.28-.8.56-1.69.25-2.54.28Z"/>
    <path class="cls-4" d="m415.04,256.8c.39.49.41.97-.05,1.44.02-.48.03-.96.05-1.44Z"/>
    <path class="cls-6" d="m296.8,205.23c.04.09.09.17.12.26,0,.02-.08.07-.12.1,0-.12,0-.24,0-.36Z"/>
    <path class="cls-6" d="m283.91,189.1c.09-.11.19-.22.28-.33-.09.11-.19.22-.28.33Z"/>
    <path class="cls-6" d="m352.5,175.86c.11.1.22.21.33.31-.11-.1-.22-.21-.33-.31Z"/>
  </g>
</svg>