<?xml version="1.0" encoding="UTF-8"?>
<svg id="Layer_1" data-name="Layer 1" xmlns="http://www.w3.org/2000/svg" viewBox="0 0 500 500">
  <defs>
    <style>
      .cls-1 {
        fill: #201c16;
      }

      .cls-2 {
        fill: #684922;
      }

      .cls-3 {
        fill: #df9326;
      }

      .cls-4 {
        fill: #392e1d;
      }

      .cls-5 {
        fill: #6f542d;
      }

      .cls-6 {
        fill: #e69924;
      }

      .cls-7 {
        fill: #9b6d2d;
      }

      .cls-8 {
        fill: #8a632d;
      }

      .cls-9 {
        fill: #fff;
      }

      .cls-10 {
        fill: #4f3b21;
      }

      .cls-11 {
        fill: #f59e25;
      }

      .cls-12 {
        fill: #6f4d24;
      }

      .cls-13 {
        fill: #7d5a2d;
      }

      .cls-14 {
        fill: #5f441a;
      }

      .cls-15 {
        fill: #4c4b4b;
      }

      .cls-16 {
        fill: #574125;
      }

      .cls-17 {
        fill: #1f1d17;
      }

      .cls-18 {
        fill: #96682c;
      }

      .cls-19 {
        fill: #4b3c27;
      }

      .cls-20 {
        fill: #838081;
      }

      .cls-21 {
        fill: #ee9921;
      }

      .cls-22 {
        fill: #2c251c;
      }

      .cls-23 {
        fill: #4b3921;
      }

      .cls-24 {
        fill: #080909;
      }

      .cls-25 {
        fill: #392f21;
      }

      .cls-26 {
        fill: #4e3b25;
      }

      .cls-27 {
        fill: #ad742c;
      }

      .cls-28 {
        fill: #432f18;
      }

      .cls-29 {
        fill: #ab732a;
      }

      .cls-30 {
        fill: #2e2818;
      }

      .cls-31 {
        fill: #08090a;
      }

      .cls-32 {
        fill: #453620;
      }

      .cls-33 {
        fill: #bc802b;
      }

      .cls-34 {
        fill: #de9427;
      }

      .cls-35 {
        fill: #d79128;
      }

      .cls-36 {
        fill: #d58f29;
      }

      .cls-37 {
        fill: #433624;
      }

      .cls-38 {
        fill: #412f18;
      }

      .cls-39 {
        fill: #322a1e;
      }

      .cls-40 {
        fill: #a06b29;
      }

      .cls-41 {
        fill: #352b1e;
      }

      .cls-42 {
        fill: #ca882a;
      }

      .cls-43 {
        fill: #f19c24;
      }

      .cls-44 {
        fill: #8a6127;
      }

      .cls-45 {
        fill: #986b2d;
      }

      .cls-46 {
        fill: #cd872a;
      }

      .cls-47 {
        fill: #85602e;
      }

      .cls-48 {
        fill: #ca872a;
      }

      .cls-49 {
        fill: #7a592d;
      }

      .cls-50 {
        fill: #4b3b26;
      }

      .cls-51 {
        fill: #1e1e1f;
      }

      .cls-52 {
        fill: #d18929;
      }

      .cls-53 {
        fill: #6c5028;
      }

      .cls-54 {
        fill: #96692e;
      }

      .cls-55 {
        fill: #251e16;
      }

      .cls-56 {
        fill: #2c2419;
      }

      .cls-57 {
        fill: #090a0a;
      }

      .cls-58 {
        fill: #e59924;
      }

      .cls-59 {
        fill: #4a361a;
      }

      .cls-60 {
        fill: #73552e;
      }

      .cls-61 {
        fill: #faa41e;
      }

      .cls-62 {
        fill: #694c26;
      }

      .cls-63 {
        fill: #b47b2d;
      }

      .cls-64 {
        fill: #e19626;
      }

      .cls-65 {
        fill: #8a6027;
      }

      .cls-66 {
        fill: #503c22;
      }

      .cls-67 {
        fill: #b87c2b;
      }

      .cls-68 {
        fill: #ed9d22;
      }

      .cls-69 {
        fill: #e4e3e3;
      }

      .cls-70 {
        fill: #95692e;
      }

      .cls-71 {
        fill: #43331a;
      }

      .cls-72 {
        fill: #483723;
      }

      .cls-73 {
        fill: #755124;
      }

      .cls-74 {
        fill: #92662d;
      }

      .cls-75 {
        fill: #493a26;
      }

      .cls-76 {
        fill: #171511;
      }

      .cls-77 {
        fill: #795726;
      }

      .cls-78 {
        fill: #f3a020;
      }

      .cls-79 {
        fill: #a5722c;
      }

      .cls-80 {
        fill: #7d5a2c;
      }

      .cls-81 {
        fill: #493926;
      }

      .cls-82 {
        fill: #926527;
      }

      .cls-83 {
        fill: #8e632b;
      }

      .cls-84 {
        fill: #eb9b23;
      }

      .cls-85 {
        fill: #bf7f2b;
      }

      .cls-86 {
        fill: #a46e2b;
      }

      .cls-87 {
        fill: #5e4629;
      }

      .cls-88 {
        fill: #c5832a;
      }

      .cls-89 {
        fill: #dc9127;
      }

      .cls-90 {
        fill: #d58f28;
      }

      .cls-91 {
        fill: #835e2e;
      }

      .cls-92 {
        fill: #e09526;
      }

      .cls-93 {
        fill: #694d29;
      }

      .cls-94 {
        fill: #92682e;
      }

      .cls-95 {
        fill: #cc8a2a;
      }

      .cls-96 {
        fill: #bb7d2b;
      }

      .cls-97 {
        fill: #3a3021;
      }

      .cls-98 {
        fill: #61492a;
      }

      .cls-99 {
        fill: #cd8b2a;
      }

      .cls-100 {
        fill: #9c6d2d;
      }

      .cls-101 {
        fill: #e89923;
      }

      .cls-102 {
        fill: #d68d28;
      }

      .cls-103 {
        fill: #d3932b;
      }

      .cls-104 {
        fill: #c6822a;
      }

      .cls-105 {
        fill: #4b3a25;
      }

      .cls-106 {
        fill: #df9526;
      }

      .cls-107 {
        fill: #4d381c;
      }

      .cls-108 {
        fill: #a5732c;
      }

      .cls-109 {
        fill: #faa51b;
      }

      .cls-110 {
        fill: #ab742a;
      }

      .cls-111 {
        fill: #352c1e;
      }

      .cls-112 {
        fill: #9f702d;
      }

      .cls-113 {
        fill: #2a1f13;
      }

      .cls-114 {
        fill: #59442a;
      }

      .cls-115 {
        fill: #d99029;
      }

      .cls-116 {
        fill: #996c2e;
      }

      .cls-117 {
        fill: #2d261c;
      }

      .cls-118 {
        fill: #080a0a;
      }

      .cls-119 {
        fill: #534129;
      }

      .cls-120 {
        fill: #835c29;
      }

      .cls-121 {
        fill: #a2702a;
      }

      .cls-122 {
        fill: #272116;
      }

      .cls-123 {
        fill: #31291f;
      }

      .cls-124 {
        fill: #e69724;
      }

      .cls-125 {
        fill: #a4722c;
      }

      .cls-126 {
        fill: #372d20;
      }

      .cls-127 {
        fill: #e79824;
      }

      .cls-128 {
        fill: #3b3020;
      }

      .cls-129 {
        fill: #654d2c;
      }
    </style>
  </defs>
  <path class="cls-61" d="m499.9,463.57v6.52c-1.29,1.25-2.67.46-4.03.19-1.51-.31-3.09-.37-3.31,1.58-.2,1.77,1.29,2.35,2.75,2.72,1.52.39,3.27-.37,4.59.95v10.87c-1.87,1.43-6.06-.84-6.06,2.72s4.19,1.29,6.06,2.72v8.69c-1.5,1-3.18.34-4.76.51-1.77-.33-1.76-2.54-3.15-3.22-1.99.57-1.98,3.66-4.51,3.25-9.08-.01-18.15-.01-27.21,0-2.18-1.34-6.95-1.34-9.88,0-66.81-.02-133.59,0-200.38,0-81.18,0-162.36,0-243.55-.03-2.12,0-4.32.53-6.37-.5C.1,335.18.12,169.83,0,4.49,0,.42.91-.5,4.97-.5c163.35.12,326.7.12,490.06,0,4.06,0,4.98.92,4.97,4.99-.16,54.51-.1,109.02-.1,163.53-3.12,1.51-5.67.33-6.32-2.67-.98-4.56-3.43-5.44-7.37-4.41-3.27-.97-4.45-4.13-6.56-6.3-2.38-2.31-2.87-5.63-4.45-8.36-1.2-1.46-2.87-2.4-4.17-3.74-2.11-2.16-3.39-5.16-6.41-6.39-2.83-2.07-6.21-2.65-9.47-3.54-5.48-.15-10.04,1.97-13.95,5.69-2.32,2.16-4.72,4.27-5.13,7.71-.79,5.66-1.52,11.32.07,16.96.39,1.25.79,2.5,1.22,3.73,1.5,4.48,4.01,8.53,5.57,12.99,2.79,5.66,4.01,11.83,5.85,17.81.43,1.4.47,2.82-.15,4.19-.71,1.13-2.25,2.29-2.98,1.52-4.22-4.41-6.05-.31-8.41,2.1-1.72-.48-2.65-1.71-3.12-3.35-.33-1.66.32-3.17.8-4.69.81-2.61.35-4.62-2.53-5.48-1.59-.48-2.96-1.21-3.75-2.77-.84-1.66-1.82-3.2-4-2.89-2.44.34-2.07,2.56-2.57,4.16-.22.69-.52,1.33-1.03,1.86-3.92.37-6.95-1.22-9.35-4.22-.75-5.14-3.8-7.56-8.88-7.31-3.07.15-5.41-1.81-8.08-2.72-5.13-1.75-8.89-2.09-9.52,4.72-1.63.89-3.29.6-4.97.19-2.63-.26-5.25-.33-7.86.1-4.52.28-9.71,3.13-12.55-3.2.83-2.76,4.14-2.26,5.64-4.58,4.67-7.23,3.83-13.61-2.66-19.81-3.17-3.03-6.14-6.82-7.62-10.68-2.7-7.05-8.16-10.19-14.08-13.23-1.89-.97-3.83-.7-5.68.33-1.59.88-3.35,1.96-5.07.9-3.62-2.25-4.21.47-5.11,2.85-3.61,4.66-8.44,7.16-13.75,9.76-7.46,3.66-13.26,10.07-16.91,17.96-.56.92-1.23,1.74-2.04,2.44-5.24,1.9-8.93,5.59-9.97,10.99-1.52,7.89-5.82,14.03-10.73,19.94-1.13.88-1.84,1.88-.88,3.34,2.5,4.39.58,8.2-1.5,12-1.26,6.27-.47,12.58-.43,18.86,1.8,3.82,4.13,7.63.53,11.69-.53.61-1.15,1.12-1.76,1.65-2.32,2.06-4.46,4.36-5.01,7.5-.43,2.46.22,5.24-3.34,5.84-3.81.64-2.92-3.36-5.01-5.17-.55,5.15-1.5,9.51-7.52,10.46-1.98.31-.33,2.8-.18,4.29.19,1.82.59,3.83-1.08,5.02-1.52,1.08-2.55-.73-3.72-1.39-1.95-1.09-3.84-.9-5.68.04-2.9,1.47-5.69,3.08-9.17,2.64-1.62-.2-2.75.93-3.25,2.38-.87,2.52-2.68,4.2-4.56,5.92-1.61,1.47-2.83,3.19-2.43,5.7,1.11,6.93,1.65,13.87-.12,20.8-.78,3.07-.71,5.82,3.14,6.78.34.09.68.29.93.54,2.03,2.01,3.74,4.58,2.35,7.21-1.37,2.59-3.22-1.48-5.85-.15,2.78,4.88-1.04,11.27,4.43,16.09,2.25,1.99-.33,4.5-2.33,5.59-3.21,1.73-5.71,4.22-9.06,6.98,4.83-1.58,7.77.46,8.38,4.09.69,4.05-2.62,5.46-6.23,5.73-1.44.11-3.38.16-3.2,2.05.24,2.58,2.26,1.5,3.78,1.22,3.78-.69,4.8.67,2.95,4.09-.34.64-.59,1.31-.77,2.02-.66,2.58,3.25,6.75-.67,7.56-5.92,1.22-12.63,3.25-17.91-2.55-1.66-1.82-1.56-3.2.45-4.34,1.9-1.08,5.15-.45,5.31-3.67.15-3.13-3.17-2.97-4.87-4.37-1.52-1.25-1.19-3.03-.82-4.54.95-3.94-.04-6.87-3.15-9.61-3.51-3.1-2.53-5.85,2.11-7.17,2.24-.64,4.68-.09,6.77-1.04.31-.43.32-.84-.05-.97-2.14-.74-5.24-.95-3.83-4.37,1.23-3.01,3.98-1.48,6.18-1.15.71.1,1.32.54,1.95.9,1.24.7,1.94,3.4,3.83,1.7,1.75-1.58,1.37-4.02.84-6.15-.56-2.25-2.37-1.81-3.97-1.47-1.69.35-3.2-.14-4.7-.83-3.37-1.56-6.5-1.66-9.53.99-3.34,2.91-6.71.85-9.38-1.02-2.42-1.69-.23-3.81,1.31-4.68,3.63-2.05,7.32-4.44,11.97-3.13-.36-.95-1.06-1.21-1.62-1.62-2.25-1.67-3.71-4.02-2.23-6.52,1.57-2.66,4.27-1.16,6.27-.19,2.53,1.23,4.92,2.21,7.72,1.11,1.89-.74,3.52-1.67,3.72-4.65-5.99,2.49-8.39.68-7.26-5.47.25-1.36-.68-2.41-2.18-2.61-1.5-.21-2.36.64-2.89,1.92-1.5,3.62-4.62,6.09-6.62,9.47-2.16,3.65-5.26,7.06-10.19,9.01-5.04,1.99-7.3,8.38-10.55,12.98-1.35,1.92,1.34,3.32,2.84,4.57,1.54,1.27,3.43,2.68,2.68,4.88-.88,2.58-3.49,2.07-5.6,2.1-3.34.05-5.64-2.09-8.05-3.99-2.32-1.83-4.46-2.58-5.96.95-1.26,2.96-4.02,4.63-6.28,6.61-2.4,2.11-4.38,4.06-4.71,7.47-.24,2.5-2.11,3.59-4.6,3.67-1.21.04-2.76-.07-2.83,1.74-.06,1.58,1.26,2,2.47,2.45.67.25-.16-.05.53.12,2.49.64,4.21,2.13,4.84,4.61.8,3.1-2.55,2.98-4.02,4.86,2.11,2.18,4.36,2.51,7.02,1.09,3.93-2.11,6.73-.63,6.02,3.7-1.2,7.29,3.21,14.11,1.24,21.41-.43,1.58,1.41,2.8,2.29,4.15,2.97,4.57,2.74,8.36-.84,12.59-1.25,1.47-1.89,3.09-1.88,4.94.02,6.5.05,13,.08,19.5.02,5.46,1.81,6.97,7.45,8,.5.12.97.32,1.42.57.41.3.71.69.93,1.14.94,2.91,2.98,2.04,4.93,1.42.42-.19.8-.43,1.12-.75.98-2.38.31-4.86.46-7.29.13-2.78-.35-5.6.55-8.32,1.68-2.67,4.05-3.49,6.8-2.01,2.65,1.42,2.98,3.91,1.78,6.45-1.21,2.56-.31,4.42,1.47,6.16.3.43.54.89.75,1.36-.17,6.65,6.23,8.4,9.89,9.73,3.89,1.42,9.24-1.67,11.84-6.45.9-.15,1.77.02,2.6.33,4.35,1.58,6.8.09,7.31-4.56.38-18.48.52-36.95-.09-55.4-.27-.47-.63-.87-1.09-1.16-1.51-.63-3.22-.31-4.72-.99-.5-.23-.92-.56-1.27-.99-1.27-3.38.56-4.76,3.49-5.12,2.3-.29,3.67-1.22,3.81-3.67.18-3.1,3.04-4.76,4.02-7.53.97-2.75,2.44-5.12.78-8.17-1.26-2.31.22-4.15,1.9-5.67.93-.84,1.99-1.78,3.33-1.29,1.38.51,1.47,1.95,1.64,3.19.24,1.81-.05,3.6-.23,5.4-.13,1.27-.32,2.82,1.06,3.37,6.2,2.52,4.16,6.93,2.74,11.25-.19.32-.45.55-.75.72-1.02.57-1.94-.92-2.93-.16-.25.19-.11.71.19.94,1.52,1.15,2.13-.55,3.14-1.04,2.19-1.47,4.97-2.11,6.17-4.94.84-1.96,2.48-1.73,4.1-.88,1.8.94,3.78,1.71,5.71,1.12,4.49-1.39,8.49-2.45,13.3.22,2.36,1.31,6.47-.83,9.81-1.33,5.53-.83,7.59-.26,9.69,4.67,1.42,3.35,2.89,2.9,4.32.3,1.64-2.99,3.69-3.74,6.63-2.05,1.58.91,3.09.8,4.5-.37.14-.11.3-.2.44-.31,3.28-2.8,6.18,2.89,8.91.71,2.73-2.18,4.84-4.29,8.37-1.71,1.25.91,2.73.34,4.15-.12,5.52-1.78,8.34-.76,11.78,4.18,1.02,1.46,2.17,2.72,3.87,3.51-2.62-3.96-6.14-7.25-7.78-11.89-.59-1.67-2.79-2.21-4.69-2.06-2.17.17-4.29.37-6.28-.88-1.78-1.12-2.98.17-4.32,1.1-1.91,1.33-4.48,3.26-6.18,1.03-1.75-2.29,1-4.14,2.63-5.73,1.45-1.4,2.51-3.04,3.47-4.79,2.38-4.33,5.03-5.08,7.48-1,3.54,5.9,8.67,3.69,13.34,4.21.95.11,1.77-.36,1.99-1.42.26-1.27-.49-2.06-1.48-2.62-1.78-1.01-3.82-.93-5.74-1.36-1.41-.31-3.05-.67-2.84-2.6.19-1.72,1.67-2.29,3.16-2.4,3.36-.24,6.85.79,10.05-1.05,4.79.96,8.39-3.04,12.93-3.12,1.28,1.94.97,6.71,5.39,3.03,3.9-2.47,7.91-4.52,12.75-3.44,2.09,1.43,2.67,4.28,5.08,5.41,1.17.95,2.16,2.04,2.61,3.52.31,1.57-.21,3.2.36,4.75.3.86.65,1.64,1.78,1.54.46-.07.92-.08,1.38-.05.75.11,1.37.43,1.81,1.07.66,2.08,2.37,3.94,1.38,6.38-5.77,3.39-7.61,3.15-12.39-1.68-.76-.76-1.46-1.85-2.67-1.17-1.47.82-.91,2.15-.41,3.32.49,1.16.94,2.52,2.02,3.13,3.44,1.91,6.91,3.62,3.13,8.29-.44.54.03,1.48.84,1.68,1.07.26,1.92-.46,1.83-1.39-.59-5.88,2.48-6.15,6.99-5.04,2.62.65,3.19-.87,2.14-3.15-.64-1.38-2.31-2.45-1.28-4.33,3.02-2.2,7.6-.49,10.07-4.06.41-.26.86-.42,1.35-.49,1.71.54,3.34,1.47,5.25,1.09,1.15-.14,2.14-.61,2.96-1.42.46-.53.92-1.06,1.38-1.59,2.34-1.72,3.05-5.08,6.06-6.12.79-.09,1.51.08,2.15.58.76,1.28.5,2.81,1.06,4.15,1.16,2.79.2,4.43-2.67,5.2-1.39.37-2.99,1.07-2.3,2.94.6,1.62,2.27,1.57,3.72,1.33,5.42-.9,10.79-2.65,16.33-.63.72.26,1.46-.18,1.67-.96.29-1.11-.44-1.62-1.41-1.83-.35-.08-.72-.09-1.07-.02-2.66.52-4.93-.4-5.57-2.95-.8-3.17,2.12-4.07,4.25-5.29,2.89.38,5.92,2.05,7.92-2.08.67-1.38,3.13-1.2,4.88-1.3.53.03,1.04.17,1.56.28,1.31.27,2.8.34,2.66-1.47-.12-1.61-1.51-1.74-2.85-1.24-.99.37-1.78,1.18-2.88,1.35-3.27-.83-6.98-.32-9.6-3.16-.06-3.55,2.63-5.88,4.29-8.47,1.66-2.59,4.57-1.07,5.56,1.22,1.58,3.63,4.63,3.5,7.57,4.07,2.71.53,3.9-.31,2.9-3.16-.55-1.59-1.34-3.4,1.23-3.7,2.45-.28,4.68.42,5.65,3.1.32.87.1,1.78-.01,2.68-.81,6.46,1.79,9.34,8.39,8.88,3.39-.23,5.42.7,5.04,4.35-.28,2.58,1.33,3.91,2.72,5.57,1.79,2.15,2.48,4.81.13,6.76-2.36,1.96-4.23.21-5.81-1.85-2.1-2.74-5.68-3.82-7.67-6.75-.49-.72-1.39-1.33-2.35-.86-1.27.62-1.09,1.78-.6,2.79,1.74,3.58,1.02,4.9-3.2,4.29-3.34-.48-4.83,3.54-7.95,4.11-3.27.59-4.14,2.5-4.69,5.98-1.04,6.54-8.42,8.45-13.41,3.98-1.22-1.1-2.35-2.22-3.97-2.7-2.7-.79-5.09-.96-5.73,2.68-.36,2.08-1.5,3.71-3.14,4.9-2.27,1.66-4.57,2.7-5.81-1.16-.4-1.26-1.16-2.93-2.34-2.62-4.78,1.26-9.2-1.3-13.77-1.02-4.27.26-5.77,2.71-4.72,6.8.65,2.55.48,5.02-1.96,6.11-2.62,1.17-4.22-1.15-5.7-2.97-.46-.56-.5-1.35-.78-2.01-.48-1.16-.95-2.72-2.6-1.75-1.21.71-.51,1.89.09,2.82.3.45.7.85.92,1.34,2.29,5,.34,7.63-5.44,7.36-.88-.71-1.42-1.64-1.79-2.69-.63-2.13-.59-4.29-.22-6.46.08-1.52,1.56-2.96.23-4.54-.22-.02-.41-.07-.62-.11-.22-.03-.43-.07-.64-.1-1.8-.11-3.62-.59-5.28.52-1.43,2.3-.49,4.82-.72,7.23.08,2.29-.22,4.6.49,6.84,1.04,10.03,1.23,20.11,2.02,30.13.25,2.23,1.88,2.25,3.55,2.19,2.46-.13,5.4.31,6.36-2.69,1.04-3.25-2.11-4.05-3.99-5.49-.84-.65-1.8-1.15-2.49-2-.93-6.05-1.03-12.03,1.68-17.73,2.46-1.31,3.2.13,3.58,2.23.22,1.22.24,2.9,1.94,2.71,1.99-.23,1.59-2.09,1.61-3.48.02-1.64.12-3.27.46-4.85.63-2.97,3.91-5.25,6.34-4.23,3,1.26,3.69,3.36,2.37,6.58-1.78,4.33-3.77,8.67,2.88,11.55,2.61,1.13-.31,3.07-1.78,4.17-1.55,1.16-5.32,1.06-4.05,3.81,1.23,2.64,4.14.56,6.25-.13,1.36-.45,2.61-1.22,3.92-1.82,2.9-1.33,4.9-1.11,5.09,2.74.18,3.68,1.66,4.21,4.21,1.55.92-.96,1.98-2.02,3.09-.55,2.31,3.04,4.35,2.47,6.55-.07.86-.99,2.09-1.47,3.4-1.39,3.1.21,4.58-1.11,4.91-4.3.28-2.61,2.39-3.61,4.77-3.25,2.33.36,3.48,2.34,2.97,4.43-1.19,4.82,1.05,5.89,5.13,5.37,2.03-.26,3.33.72,4.61,2.18,2.46,2.8,4.3,2.37,5.03-1.4.3-1.53.76-3.1,2.5-3.03,5.39.21,6.34-3.78,7.51-7.63.67-2.19.55-5.15,3.25-5.79,3-.71,4.82,1.9,6.83,3.65,1.95,1.68,1.81,3.6.05,5.1-2.97,2.52-4.7,6.49-8.89,7.61-.85.22-1.66.93-1.21,2.05.3.75,1.31,1.19,1.75.71,3.31-3.61,7.9-1.17,11.71-2.61,3.4-1.29,5.64-2.47,3.55-6.53-1.04-2.02-.16-3.51,1.75-4.39,2.08-.96,3.98-.09,4.24,1.88.68,5.16,6.52,5.12,8.52,9.08.85,1.69,2.52-.08,2.86-1.59.69-3.08,2.46-3.45,5.23-2.78,3.48.84,4.95-.02,4.96-4.42.01-6.95-.68-14.04,1.2-20.92.48-1.76.36-4.32,3.49-3.08v59.76c-.25.27-.54.46-.87.59-1.52.6-4.26-.36-4.26,2.13s2.74,1.53,4.26,2.13c.33.13.62.32.87.59Z"/>
  <path class="cls-61" d="m486.01,160.41c6.13-3.18,7.38-2.75,8.41,3.71.57,3.54,3.32,3.09,5.47,3.9v230.36c-3.85,4.53-3.89,10.16-2.93,15.29.77,4.14-1.07,7.89-.03,12.24.75,3.1-4.62,3.6-7.77,2.14-2.32-1.07-2.98-1.14-2.49,1.66.42,2.4-1.11,3.87-3.19,4.27-2.08.4-3.51-1.2-3.87-3.01-.4-2.02-1.08-2.33-3.1-2.43-2.73-.13-3.71-2.46-3.69-5.11,0-1.12-.27-2.45-1.48-2.54-.93-.07-2.15.52-2.83,1.22-1.08,1.11.33,1.82.83,2.69,2.28,3.98,1.29,6.5-3.32,7.15-2.88.41-5.49,3.94-8.91.72-1.03-.97-1.81,1.27-2.65,2.08-1.26,1.22-2.55,2.18-4.26.99-1.18-.83-2.38-1.86-2.02-3.54.38-1.72,1.55-2.95,3.28-3.21,4.42-.66,5.76-5,8.84-7.24.88-.64,1.09-1.29-.04-2-2.09-1.31-3.22-4.14-6.06-4.19-1.24-.02-1.68,1.49-1.69,2.44-.05,2.83-1.26,5.23-2.28,7.73-.14.33-.17.71-.3,1.04-1.45,3.75-4.68,1.89-7.11,2.64-1.9.58.7,5.58-3.17,6.72-2.27.67-4.32-.06-5.01-2.01-1.02-2.88-2.56-2.48-4.91-2.16-5.19.69-6.88-1.41-5.21-6.23.5-1.45.19-2.44-.55-3.49-.77-1.09-1.83-.98-2.88-.5-1.17.54-2.08,1.06-1.79,2.81.76,4.61-1.69,5.94-5.73,4.86-1.81-.48-2.51.39-3.51,1.59-3.74,4.48-4.82,4.29-7.99-1.2-1.4,1.88-2.06,5.07-5.24,4.1-4.17-1.27-2.1-4.98-2.17-8.09-4.34,1.25-7.6,3.91-11.64,4.74-2.75.57-4.38-.49-5.03-2.72-.67-2.33,1.13-3.73,3.16-4.26,1.92-.5,3.87-.75,5.42-2.45-.61-1.6-2.11-.78-3.13-1.1-1.86-.59-3.84-1.89-3.3-3.66.89-2.92-.2-6.27,1.98-8.81.97-1.13,2.14-2.16.49-3.59-.88-.77-1.74-2.48-3.03-1.29-1.07.98-3.72.38-3.24,2.83.43,2.15-1.33,4.01-.27,6.34,1.15,2.53-.66,4.49-2.94,4.7-2.7.24-4.38-1.6-3.76-4.53.31-1.45.55-2.48-1.28-2.75-.75-.5-.92-1.24-.89-2.08.23-1.35.62-2.61,1.9-3.36,5.56-1.72,6.14-3.38,2.53-7.68-1.13-1.35-2.05-2.62-.81-4.29.87-1.17,1.91-2.36,3.57-1.91,1.66.45,2.81,1.62,3.11,3.38.15.85-.31,2.24.1,2.52,1.41.96,2.35,3.48,4.23,2.69,1.66-.7,2.24-3.04,1.29-4.68-1.16-2-3.71-4.03-.78-5.86,2.68-1.67,5.24-4.76,9.16-3.26,3.29,1.25,6.26,2.1,10.12.89,4.06-1.27,5.14,2.49,5.29,6.2,2.99-.55,5.4-2.54,5.6-5.05.2-2.4.19-4.71,2.51-5.22,2.97-.66,6.19.15,8.53,2.2,5.78,5.08,8.62,5.01,12.44-.82.1-.15.37-.3.35-.39-3.24-10.86,9.93-5.84,11.77-12.12.37-1.25,3.05.81,4.77,1.06.1-1.93-1.57-2.49-2.22-3.71-.83-1.56-.26-2.76.86-3.87,1.13-1.12,2.94-2.02,3.75-.7,2.43,3.97,7.07,5.37,9.66,8.92,1.06,1.46,1.8,3.06,3.58,1.91,1.81-1.17,1.61-3.55.31-4.75-2.6-2.41-5.99-3.91-3.36-8.62.63-1.13-1.77-2.31-3.6-1.3-4.27,2.34-6.75-1.01-9.33-3.26-2.13-1.85-2.57-3.93-.92-7.09,2.34-4.47-2.34-3.77-4.57-5-.84,1.99.88,2.4,1.39,3.39,1.24,2.44-.17,3.88-1.98,4.84-2.4,1.28-10.55-1.92-11.34-4.57-.5-1.67-1.22-2.48-2.8-2.74-2.24-.38-1.61,1.51-1.8,2.51-.51,2.58-3.29,3.28-4.23,5.45-.65.55-1.37.58-2.13.3-2.28-2.77-4.52-5.82-7.74-.95-3.48,1.04-5.63-1.2-7.86-3.22-1.2-1.81-2.37-3.63-2.04-5.97,2.99-2.8.74-4.7-1.14-6.68-.36-1.09-.15-2.18-.09-3.28.15-2.92-.1-5.85.21-8.77.85-3.64,3.49-4.57,6.77-4.55,2.27.12,4.6,1.24,6.81-.33,8.26-1.67,16.88-1.12,24.94-4.07,4.27-1.57,8.23-3.63,11.63-6.7,1.61-1.46,3.27-2.93,5.31-3.68,6.8-2.49,10.77-7.49,13.19-14.12,2.78-7.63,5.9-15.14,8.49-22.85,1.19-4.7.31-9.48.56-14.22-.07-3.67.22-7.34-.23-11-.81-4.09-1.89-8.14-1.98-12.35,0-2.5.49-5.04-.54-7.48-.23-.51-.41-1.04-.57-1.57-1.05-4.98-3.39-9.47-5.48-14.02-1.62-3.53-1.59-6.74-.21-10.37,2.2-5.82,2.92-11.85.46-17.87-1.42-3.52-3.13-7-1.34-10.91,1.64-1.9,3.89-1.81,5.99-1.5,3.55.53,4.96-1.18,5.29-4.39.26-.81.66-1.51,1.43-1.93Z"/>
  <path d="m250,501.6c0-.3,0-.6,0-.91,10.43-.06,20.85-.17,31.28-.17,54.85-.02,109.7,0,164.55-.02,2.15,0,4.31-.11,6.46-.17,2.16-1.6,4.33-1.6,6.49,0h30.29c1.8-1.34,3.61-1.34,5.41,0l5.41.18c-1.2,2.27-3.28,1.02-4.87,1.02-81.68.08-163.35.07-245.03.07Z"/>
  <path class="cls-61" d="m499.9,475.53c-2.04.24-3.89,1.4-6.19.32-2.46-1.16-4.08-2.62-3.01-5.26,1.02-2.52,3.12-3.21,5.71-1.74,1.06.6,2.32.84,3.49,1.24v5.43Z"/>
  <path class="cls-61" d="m499.9,491.82c-2.73,1.35-5.39,1.93-7.7-.79-1.08-1.27-1.08-2.58,0-3.85,2.31-2.72,4.97-2.14,7.7-.79v5.43Z"/>
  <path class="cls-61" d="m499.9,463.57c-.52.09-1.1.07-1.54.3-2.04,1.09-3.69.71-5.1-1.1-1.02-1.3-1.02-2.54,0-3.84,1.41-1.81,3.07-2.19,5.1-1.1.44.24,1.03.21,1.54.3v5.43Z"/>
  <path class="cls-57" d="m482.41,230.02c.24,4.05,1.07,7.99,2.16,11.88-.82,4.12-.15,8.29-.37,12.43-.25,4.95.54,9.93-.46,14.86-3.05,8.24-5.96,16.53-9.2,24.7-2.19,5.54-5.83,9.85-11.74,11.84-2.36.79-4.29,2.28-6.17,4-6.32,5.78-13.92,9.04-22.39,9.2-5.2.1-10.11,2.88-15.39,1.35-1.65,1.71-3.85-.24-5.59.84-2.51.51-6.11-1.13-6.6,3.37-.54,3.27-.6,6.53.03,9.79-.24.72-.48,1.44-.73,2.17,1.41,2,1.92,4.14,1.1,6.52.67,1.77,1.34,3.55,2.01,5.32,1.1,4.38-2.04,4.55-4.91,5-2.6-.78-2.74-3.08-3.11-5.21-.89-5.07-2.86-9.64-5.66-13.97-2.26-3.49-4.1-4.36-6.52-.31-.65,1.08-1.72,1.84-2.89,2.38-1.35.56-3.13.75-2.47,3-.11.73-.38,1.41-.83,1.97-5.6,7.11-5.6,7.28.08,14.31.34.42.66.85.96,1.3,1.74,4.08,4.54,2.14,7.15,1.25,2.02-.81,4.06-1.46,6.21-.44,1.9,2.41,5.71,3.6,4.94,7.74-.03.54-.15,1.06-.38,1.56-.78,1.25-1.54,2.56-3.38,1.97-1.81-.78-4.24.31-5.58-1.88l-.48-.09-.49.02c-.23.04-.47.07-.7.11-2.12.2-4.27.18-6.34.82-2.62.31-4.56-.75-5.93-2.94-.74-.12-1.48-.25-2.22-.37-1.99-1.64-.9-4.74-3-6.33-.84-1.09-1.68-2.17-2.52-3.26-1.23-1.87-1.62-4.41-4.15-5.25-4.85-.34-9.06,1.4-13.02,3.98-3.77-.23-2.92-3.25-3.18-5.57-1,.3-1.41,1.22-2.24,1.53-4.31,1.11-7.54,6.49-12.94,3.32-3.32.29-6.08-1.57-9.1-2.41-1.25-1.69-1.77-3.59-1.58-5.69.14-.87.5-1.69.59-2.55-.35-1.45-1.48-.9-2.39-.92-.49.03-.96-.03-1.43-.17-1.57-.78-2.24-2.05-2.09-3.78.27-1.58,1.25-2.81,2.03-4.13.75-1.2,1.73-2.27,1.97-3.74.47-2.97-.09-5.06-3.8-4.4-1.91.34-3.81.84-5.79.64-1.29-.13-2.5-.53-3.65-1.11-2.46-1.1-3.87-3.96-6.9-4.11-3.83-.23-6.84-1.83-8.73-5.29-.34-.63-.68-1.36-1.26-1.72-5.87-3.71-9.89-8.95-12.67-15.24-1.47-1.56-3.51-2.56-4.49-4.59-1.33-4.32.31-9.38-3.3-13.13-1.12-1.66-1.59-3.51-1.61-5.5,2.14-8.23.95-15.89-3.88-22.94-.71-1.21-1.08-2.5-.94-3.91.47-2.13.52-4.41,2.05-6.19,3.04-3.64,1.93-6.83-1.08-9.8,1.21-7.27-.32-14.63.8-21.9,3.31-3.21,3.33-6.85,1.39-10.75-.14-1.25-.15-2.46,1.06-3.27,1.63-2.57,2.49-5.58,5.42-7.35,1.97-1.19,3.04-3.41,3.14-5.92.21-5.1,3.03-9.31,4.87-13.83,1.41-3.45,5.37-2.98,8.04-4.53,1.34-.12,1.93-.72,1.3-2.08,1.5-7.73,9.45-10.49,12.86-16.8,1.16-2.15,3.94-2.09,6.06-2.71,3.7-1.09,7.43-1.83,9.14-6.03.45-1.09,1.6-1.97,3.09-1.49,4.28-2.63,6.99.64,9.87,2.8,1.39,1.04,2.13,2.85,3.59,3.92,3.57,3.47,5.95,8.01,9.91,11.14,2.24,3.09,5.37,5.7,5.4,10-2.03,4.42.28,6.34,4.19,7.33.75.31,1.3.85,1.74,1.51,1.04,2.09,2.84,4.05,1.2,6.63.56,3.73,3.48,2.96,5.97,3.34,2.09.32,3.69-1.2,5.66-1.03,2.95.67,5.9.68,8.85,0,1.34.66,2.67,1.35,4.23.77,1.9-1.21,3.85-.54,5.74-.05,7.09,1.87,14.41,2.87,21.31,5.48,2.35,2.52,6.02,2.59,8.61,4.66,5.98,1.38,9.92,5.73,14.06,9.77.8,1.03,1.59,2.07,2.39,3.1,2.47.83,3.96,2.9,5.79,4.55.88.8,1.64,2.32,2.98,1.75,1.51-.64,1.28-2.4,1.28-3.78,0-1.92-.74-3.88.4-5.72-.51-6.83-2.72-13.19-5.52-19.35-.37-.82-.82-1.49-.61-2.41,2.18-5.59.63-9.34-5.41-13.04-.5-1.05-1.73-1.87-1.05-3.31,1.43-6.14,2.4-12.27-.04-18.4-.8-4.28,3.03-5.45,5.18-7.75,6.09.45,9.98-4.52,15.2-6.22,3.35,1.13,7.27.86,9.78,4.04,1.78,2.56,1.71,6.98,6.49,6.55l4.33,3.26c-.67,4-.73,7.69,4.4,8.75l5.47,6.56c-.08.68-.15,1.37-.23,2.05-.46.64-1.23,1.09-1.84.78-5.19-2.66-8.21,0-10.65,4.23-2.74,4.28-1.86,7.73,2.91,11.38,2.43,6.45,2.49,12.95-.95,18.94-2.96,5.13.67,8.9,2.26,12.77,1.44,3.54,2.97,6.99,3.8,10.73-.2,2.06.25,4.06.46,6.09.36.85.13,1.84.64,2.64Z"/>
  <path class="cls-61" d="m326.81,350.39c3.61-1.67,5.86,1.38,8.65,2.54-1.51,3.68-4.68,1.42-7.06,1.93-1.76.38-3.91-1.42-5.53,1.21,2.4,2.05,5.5.68,8.1,1.76,2.69,1.13,3.83,2.58,3.26,5.27-.62,2.92-2.71,2.85-5.05,2.25-1.18-.3-2.62-.74-3.65-.34-4.11,1.58-6.92.79-8.54-3.59-.74-1.99-2.86-2.57-5-3.83-.8,5.65-5.31,8.64-8.69,12.54.8.38,1.28.7,1.35.63,4.62-4.79,10.34-2.94,15.83-2.82,2.65.06,5.44,1.33,5.85,3.12,1.16,5.02,5.29,7.66,7.7,11.58.79,1.29,2.17,2.97.07,4.2-1.8,1.05-2.18-1.17-3.26-1.83-3.54-2.17-3.93-7.62-8.82-8.35-.8-.12-1.61-1.16-2.44-.51-3.35,2.62-6.39,3.52-9.91-.07-1.34-1.36-2.44.75-3.03,2.01-1.64,3.45-3.68,3.6-6.19.93-.12-.13-.28-.23-.4-.36-3.87-4.03-5.26,4.48-8.45,1.82-3.36-2.8-5.6-3.75-7.04,1.52-.48,1.76-2.06,2.45-3.89,2.11-1.97-.37-2.29-1.86-2.58-3.6-.68-4.13-4.08-3.43-7.38-4.06-5.04-.96-10.16,5.92-14.69-.48-1.29-1.82-3.22-.67-4.38.06-4.56,2.86-8.76,2.4-13.14-1.07-.94,4.51-3.3,6.97-7.98,6.04.03-1.63-.33-3.39.17-4.85,1.13-3.3.8-4.94-3.21-5.23-2.54-.18-2.72-2.65-1.95-4.69,1-2.67.48-5.33.74-8.88-3.01,2.45-7.16,3.38-3.21,7.79.85.95,1.48,2.67.47,3.48-3.01,2.45-3.85,6.58-5,9.43-1.92,4.74-2.94,7.81-8.65,7.22-.98-.1-.96,2.11-.96,3.37,0,.24,0,.48.01.72-.14,1-.61,1.85-1.21,2.64-2.16,2.17-2.48,6.07-6.41,6.62-1.49.21-1.15,1.5-.66,2.53,1.26,2.66.91,5.6,1.4,8.39.9,5.04-1.08,6.5-6.44,5.22-1.94-1.61-3.46-4.19-6.67-2.9-4.7-3.92-8.29-8.55-9.5-14.74,3.9-2.19,8.88-2.64,11.24-7.35,1.2-2.4,2.95-4.58-1.24-5.68-3.08-.81-3.28-3.48-3.71-6.16-1.51,1.93-.29,3.99-.73,5.86-.41,1.73-1.27,3-3.07,3.37-1.58.33-2.84-.37-3.76-1.61-1.41-1.9-2.35-4.06-3.14-6.28-.92-2.6-2.47-4.39-5.93-4.57.74,2.06,1.54,4.67-.37,5.84-6.49,3.98-2.74,9.38-2.38,14.32.6,1.76.39,3.52-.02,5.27-.09.5-.15,1-.15,1.51.15,1.05.19,2.1.02,3.16-.32,2.56-.13,5.13-.14,7.71,0,7.74,0,15.47,0,23.19-.01,2.21-.03,4.43-.02,6.64.01.63,0,1.25,0,1.88-.09,2.17.21,4.45-1.45,6.25-6.35,1.19-9.21-1.08-9.75-9.44-.41-6.43-.05-12.91-.1-19.37-.02-2.27.25-4.64,2.04-5.94,2.14-1.55,4.28-2.51,2.77-5.81-.92-2.02-.25-4.62-2.87-6.05-2.19-1.2-2.36-3.63-1.64-5.8,1.6-4.81.26-9.22-1.62-13.53-.66-1.5-.92-2.71.15-3.98,2.03-2.42.58-4.32-1.12-6.7-1.35,1.53-1.82,4.27-4.47,3.8-2.11-.37-4.23-.77-6.31-1.3-1.11-.29-1.87-1.17-1.88-2.38-.01-1.46.9-2.18,2.22-2.68,1.24-.47,3.95.78,3.33-1.95-.39-1.74-1.66-3.67-4.17-3.6-.89.03-1.94.08-2.64-.34-1.68-1.02-2.36-2.74-2.02-4.67.4-2.29,2.18-3.01,4.06-2.37,3.78,1.28,4.57-.68,4.4-3.73-.16-2.9,1.23-4.09,3.58-5.78,2.87-2.07,6.31-4.2,7.42-8.35.91-3.42,3.94-3.76,7.24-.99,2.89,2.43,5.46,5.38,9.83,4.52,1-.2,2.36.3,2.74-1.07.34-1.21-.77-1.93-1.53-2.64-.64-.61-1.41-1.11-2.18-1.56-3.69-2.13-4.37-7.58-.58-9.25,3.6-1.59,4.45-4.61,5.66-7.33,1.09-2.44,2.74-3.7,4.82-3.5,3.27.32,4.56-1.46,5.68-3.86,1.31-2.8,5.29-4.16,4.37-8.25-.08-.35,1.25-1.39,1.99-1.48,2.31-.27,2.82-1.58,3.02-3.66.33-3.34,2.88-3.3,5.29-2.83,2.51.49,3.66,2.16,3.13,4.77-.18.88-.65,1.72-.72,2.6-.06.84-.07,2,.42,2.51.73.76,1.63.01,2.3-.61,1.53-1.42,3.29-2.92,4.97-.58,1.78,2.47.29,4.83-1.82,5.95-3.34,1.77-6.95,4.26-10.76.65-.51-.48-1.22-1.14-1.79-1.09-1.42.12-3.37-1.84-4.16.42-.62,1.76.28,3.73,2.16,4.46,2,.77,4.97.9,3.59,3.94-1.31,2.89-3.51-.04-4.93.04-3.97.22-8.22,1.36-11.57,5.34,4.14.96,7.63,4.8,11.14-.82.62-1,3.89-1,5.64-.48,3.45,1.04,6.54,3,10.44,1.17,1.29-.6,2.6,1.07,2.67,2.71.1,2.16.17,4.36-.08,6.5-.19,1.61-.85,3.23-2.83,3.51-1.78.25-3.14-.12-3.55-2.28-.54-2.87-3.25-1.53-4.89-2.31-1.08-.51-2.22-.55-2.45.98-.31,1.97.86,1.85,2.33,1.67,1.74-.22,3.96-.57,3.87,2.26-.08,2.65-1.95,3.11-4.2,2.91-1.22-.11-2.47.02-3.7.05-2.01.04-4.36.02-5.08,2.23-.79,2.42,2.14,2.41,3.26,3.6,2.18,2.31,4.14,4.23,2.72,7.99-.94,2.48-2.39,6.02,3.06,6.25,2.23.09,3.24,2.65,2.95,5.1-.34,2.94-2.57,3.68-4.96,4.07-1.11.18-2.8-1.02-3.11.89-.29,1.8,1.77,1.33,2.69,2.01,1.16.84,2.46,1.51,3.52,2.46,1.62,1.44,3.17,1.69,4.73.08,1.7-1.76,3.42-2.65,5.59-.72.54.48,1.39.82,1.84.04.3-.51.37-1.56.05-1.96-2.88-3.53-1.78-6.56,1.22-9.25-1.31-1.24-2.13-.61-2.98.18-1.55,1.43-3.38,1.52-4.87.2-1.22-1.08-1.75-2.66-1.01-4.45.85-2.06,2.42-2.65,4.35-2.22,1.87.42,3.64.53,4.98-.99,1.03-1.18,2.56-2.96.47-4.01-1.33-.66-1.67-5.2-4.61-1.62-1.28,1.56-3.01,1.36-4.04-.38-1.07-1.8-.15-3.14,1.67-3.78,3.6-1.27,5.49-5.03,9.36-6.14,1.67-.48,3.96-2.9-.4-4.09-2.18-.59-2.9-2.75-2.08-4.86,1.01-2.61.33-4.93-.45-7.38-.68-2.14-2.36-4.64.27-6.4,3.11-2.06,3.53,1.98,5.97,3.24-1.11-3.56-.83-7.24-5.71-7.31-1.93-.03-3.16-1.72-2.54-3.4,1.2-3.26,0-6.93,1.95-9.97.63-.98,1.12-1.96.27-2.95-1.65-1.94-1.3-3.9-.56-6.1.38-1.12.57-2.92-.04-3.65-2.95-3.49-.93-5.95,1.38-8.37,2.26-2.37,4.81-4.41,5.65-7.9.43-1.78,2.35-2.59,3.95-1.84,2.8,1.31,4.7-.08,6.92-1.37,5.44-3.17,6.84-2.95,11.37,1.2.51-2.21.46-4.21-.85-6.21-1.88-2.87-.58-4.92,2.48-4.55,5.36.64,5.54-2.63,5.37-6.24-.1-2.15-.32-4.39,2.36-4.53,2.71-.15,3.04,2.05,2.63,4.23-.26,1.38-.58,2.77,1.53,2.33,1.24-.26,3.07-.23,2.44-2.6-1.44-5.39,2.69-7.83,5.85-10.76,1.21,1.79.69,3.65.25,5.52-.51,1.31.59,2.07,1.02,3.06-1.59,5.21-1.34,10.44-.37,15.73.45,2.48-.53,4.42-3.21,4.68-2.34.22-3.64-1.28-3.95-3.55-.19-1.42.08-2.92-.91-4.16,1.08,1.81.62,3.84.85,5.78.27,2.36,2.99,2.96,3.74,5.11,1.27,3.63-.78,7.28-4.79,8.11q-5.31,1.1-9.96,5.67c3.72.44,6.15-1.38,8.73-2.78,10.47-5.67,14.18-3.2,14.33,8.82.07,5.66-1.49,11.01-1.92,16.56-.16,2.07-.41,3.76,1.67,4.4,7.96,2.48,9.41,8.55,8.81,15.86.08-4.48,1.16-8.78,1.05-13.18-.02-.89.56-1.79,1.4-2.2,3.82-1.82,7.09.04,10.07,2.01,2.69,1.78,3.91,5.2,1.93,7.58-2.96,3.55-2.44,7.28-2.48,11.59,3.41-1.69,5.8-6.25,10.43-3.17,1.06.71,1.11-1.03,1.34-1.78.75-2.41,2.45-3.09,4.63-2.38,2.2.72,3.42,2.6,2.3,4.65-1.02,1.88-.57,2.82.66,4.13,1.04,1.11,1.04,2.6.88,4.1-.67,6.25-.09,6.74,6.22,5.44.53-.11,1.07-.15,1.61-.15,1.94.16,3.77.63,5.3,1.93Z"/>
  <path class="cls-118" d="m318.15,426.81c-.69-.47-1.39-.95-2.08-1.42-3.79-1.05-7.36.37-10.99.97-1.52.53-3.34.55-4.04,2.44,0,6.88,0,13.76,0,20.64,1.02,1.39,1.14,2.82.21,4.3-2.18,1.36-4.76-.12-6.98.99-.38-.29-.76-.58-1.14-.87-1.68-4.26-.63-8.71-.93-13.06-.18-9.35.37-18.71-.31-28.05-.38-2.63-.28-5.26-.07-7.89.75-3.69.2-7.43.39-11.14.1-1.9-.4-3.96,1.29-5.49,10.41-.12,20.82-.57,31.21.24,4.12,1.8,9.01.78,12.88,3.52,4.38,1.44,5.77,5.19,6.96,9.09.25,1.3.71,2.62-.25,3.85-.31.43-.9.88-.88,1.3.49,9.92-5.6,14.75-13.73,18.03-.48.19-.96.37-1.66.64,3.67,4.26,8.04,7.76,10.83,12.6,1.74.99,2.56,2.61,3.04,4.46,1.31,3.49,3.41,6.52,5.55,9.52.87,1.84.1,2.84-1.73,2.78-2.15-.07-4.22.58-6.35.53-.65-.18-1.19-.53-1.62-1.05-3.07-7.74-8.33-14.06-13.28-20.59-2.81-1.4-4.92-3.52-6.32-6.34Z"/>
  <path class="cls-24" d="m35.87,388.45c6.94,1.82,14.23,2.77,19.17,9.06,1.33,1.69,2.47,3.45,3.64,5.22,2.32,1.64,2.94,3.84,2.17,6.52.36,2.88.72,5.76,1.08,8.63.52,1.85.56,3.7-.03,5.54-.18,7.74-1.84,14.93-6.52,21.39-4.72,6.5-13.85,10.5-21.73,9.11-2.08-.37-4.29,0-6.44.03-1.82,1.33-3.94.81-5.95.93-2.81,0-5.62-.01-8.43.01-.28,0-.56.01-.84.02-5.01.63-2.64-3.39-3.41-5.44-.27-.58-.28-1.16-.05-1.75.18-3.37-.36-6.75.19-10.11-.1-12.7.21-25.4-.14-38.09.12-3.72-2.99-7.77,1.14-11.08,8.7-.61,17.41-.62,26.11,0Z"/>
  <path class="cls-24" d="m107.33,389.63c1.69-.05,2.31,1.07,3.16,2.36,9.29,14.13,18.71,28.18,28.04,42.28.61.92,1.16,1.77,2.18,2.23.87.45,1.48.21,1.86-.71.59-2.08.23-4.2.33-6.3,0-9.96,0-19.9,0-29.84.47-3.63-1.12-7.49,1.2-10.91,6.86-1.64,6.51,3.08,6.55,7.47.19.65.18,1.29-.03,1.94-.24,16.45-.23,32.91,0,49.36.21.64.22,1.29.02,1.94-.11,1.59-.22,3.18-.37,5.29-2.76-2.18-5.66.28-8.36-.98-2.19-.6-3.28-2.35-4.33-4.15-9.03-13.94-18.47-27.61-27.58-41.47-.33-.38-.48-1.03-1.2-.83-.37,2.05.04,4.07-.04,6.11.29,13.44-.95,26.8-1.6,40.18-.31.14-.64.27-.97.36-2.2,1.02-4.33.78-6.42-.33.02-.67.05-1.34.07-2.01.78-2.5-1.19-4.91-.25-7.42.14-13.89.25-27.77-.09-41.65-.2-.65-.22-1.3-.04-1.96.12-3.62.23-7.25.35-10.87,2.5-.91,5.01-.78,7.52-.08Z"/>
  <path class="cls-24" d="m179.84,397.29c2.97,4.88,5.79,9.87,9.54,14.22,2.44.69,3.11,3.07,4.52,4.75,4.18,6.37,8.08,12.95,12.95,18.81.46.32.93.66,1.44.02.32-11.99.05-23.94.11-35.89.19-3.14-.54-6.39,1.09-9.36,1.73-1.26,3.67-.53,5.52-.6,2.33,1.5.94,4.12,1.82,6.06,0,.65-.08,1.28-.25,1.9-.26,16.71-.1,33.41-.08,50.12.03.33.05.65.08.98-.73,1.72,1.09,4.69-1.16,5.2-3.28.75-7.04,1.18-9.73-2.06-1.76-.27-2.36-1.79-3.25-3.01-8.98-13.41-18.07-26.74-26.67-40.4-.57-1.01-1.16-2.02-.78-3.09-.61.47-.61,1.51-1.04,2.33-.55,1.89-.24,3.81-.29,5.73.23,10.26-.23,20.5-.47,30.74-.41,3.28.98,6.76-1.12,9.85-1.45.42-2.9,1.21-4.34,1.18-1.74-.03-4.19-.26-2.23-3.2.82-2.11-.24-4.25.12-6.38.14-13.62-.31-27.24.26-40.86.05-1.22-.28-2.06-1.15-2.79-.13-.32-.13-.64,0-.96,1.97-1.45,1.66-3.53,1.24-5.44-.44-2.02-.72-3.9.46-5.73,1.86-1.5,4.05-1.22,6.19-1.15,4.39,1.4,6.76,4.45,7.23,9.02Z"/>
  <path class="cls-61" d="m450.24,455.18c-.08-1.02,1.56-2.6-.26-3.13-1.18-.34-2.83.28-4.05.91-1.72.88-.45,2.21.02,3.24.59,1.3,1.32,2.57,2.16,3.73,1.38,1.89.77,3.35-.74,4.72-1.72,1.56-3.48,1.22-4.64-.49-2.05-3.05-4.36-5.44-7.87-7.01-2.65-1.18-2.56-3.68-.2-5.67,2.96-2.49,5.44-5.39,9.54-6.61,3.08-.92,6.46-2.1,8.86-4.8.95-1.07,2.62-1.98,3.91-1.35,4.12,2.03,8.15,0,12.2.06,2.68.05,4.41,1.18,4.49,3.52.07,2.39-1.69,4.01-4.31,3.59-1.46-.24-3.19-1.01-3.47,1-.27,1.95,2.04,1.54,3.19,2.16,1.14.62,2.64.68,3.58-.24,2.91-2.84,6.72-2.63,10.19-3.72,3.83-1.2,7.04.54,10.53.11,1.97-.24,3.43,1.14,4.07,2.96.66,1.89-.68,3.18-2.08,3.97-3.33,1.88-4.01,5.31-5.17,8.42-1.85,4.95-5.38,6.69-10.41,4.89-.51-.18-1.15-.71-1.48-.55-7.15,3.53-13.94-2.87-21.17-.67-3.58,1.09-7.22-4.04-6.87-9.03Z"/>
  <path class="cls-61" d="m352.9,163.63c-.99-3.71-4.18-6.14-5.58-9.61-1.1-1.12-.89-2.57-1.09-3.96-.72-4.95-4.4-6.32-8.65-6.91-4.01.05-3.07-5.44-7.1-6.19-1.79-.33-3.78-1.33-5.87-1.4q.21-6.52,6.16-3.86c.93.41,1.68.19,2.53-.21,5.99-2.85,12.52-1.43,17.22,3.8,2.51,2.8,4.37,6.24,6.34,9.13,2.19,3.21,3.65,7.75,7.58,10.15,5.1,3.12,4.85,9.3,6.48,14.2.99,2.98-6.98,10.02-10.39,10.13.73-2.67-2.66-3.97-2.16-6.56.19-1.68.19-3.39,1.1-5.16-1.53.29-2.33,1.36-3.56,1.28-2.37-.74-2.86-2.67-3-4.82Z"/>
  <path class="cls-109" d="m110.56,407.02c9.31,13.59,18.62,27.18,27.9,40.79.27.4.17,1.05.24,1.58.25,3.73-.93,6.87-4.53,8.25-3.65,1.39-6.76,1.12-9.93-2.32-2.09-2.27-5.9-2.95-6.23-6.95-1.87-3.09-1.9-6.39-1.08-9.78.17-3.16-1.19-4.88-4.43-5.33-2.62-.36-4.61-1.73-4.76-4.77,0-5.33,0-10.65,0-15.97,0-.6.01-1.19.05-1.79.8-1.33-.1-3.93,2.76-3.71Z"/>
  <path class="cls-109" d="m176.55,407.03c9.07,13.11,17.17,26.88,26.75,39.65.28.37.16,1.04.23,1.57,1.08,3.59.93,6.93-3.04,8.45-3.37,1.29-6.45,2.65-10.01-1.33-2.13-2.39-6.22-3.26-7.56-7v-1.09c-1.93-2.58-1.72-5.39-.8-8.23,1.17-3.61-.07-5.57-3.81-5.9-2.06-.18-3.87-.72-4.86-2.78-.55-6.29-.12-12.59-.25-18.88.41-2.03-.88-5.34,3.35-4.47Z"/>
  <path class="cls-109" d="m343.21,401.64c-.14-4.24-3.59-6.53-5.63-9.65-.05-4.09-.03-8.19-.21-12.28-.05-1.14-.27-2.14.9-2.8,4.23-2.38,8.91-1.77,13.18-.97,3.05.57,4.11,4.52,4.37,7.38.37,4.07.62,8.23-.52,12.37-1.92,6.95-1.77,7-9.03,7.03-1.2.14-2.19-.31-3.06-1.09Z"/>
  <path class="cls-118" d="m83.33,453.63c-.31.11-.62.22-.94.31-2.18.5-4.37,1.05-6.49-.22l-.13.1c-.79-1.63-.53-3.29-.16-4.96.49-17.81.06-35.63.24-53.44.02-2.28-.58-4.72,1.09-6.76l-.1-.18c2.17-.54,4.33-.89,6.44.25.09.27.16.55.22.83.98,16.9.25,33.81.38,50.71.03,4.44.8,8.96-.54,13.36Z"/>
  <path class="cls-61" d="m385.97,456.43c1.05-.79,1.92-1.84,3.02-2.19,3.01-.97,2.96-2.37,1.39-4.77-1.35-2.05-1.44-4.54.14-6.59,1.12-1.45,3.08-1.5,4.45-.65,1.86,1.15,3.39,2.84,5.04,4.33.25.23.29.84.53.91,7.21,2.07,7.07,8.17,7.98,13.96.35,2.21-.05,3.54-1.61,4.61-1.73,1.2-3.66,2.83-5.8.87-4.57-4.18-9.36-7.3-15.91-4.67-.88.35-2.16-.04-2.35-.84-.71-2.97-1.24-6-1.57-9.04-.09-.78.95-1.47,1.92-1.62,1.21-.18,2.01.42,2.69,1.38.97,1.39-.8,2.73.07,4.31Z"/>
  <path class="cls-31" d="m240.44,424.51c-.18.33-.23.68-.14,1.05,0,.26-.02.52-.02.78.05,2.32-.22,4.66.27,6.97.29,2.25-.13,4.56.53,6.77.49,1.87-.1,3.82.44,5.68.24.68.45,1.37.52,2.09-.62,3.55-4.48,4.19-6.1,6.85-.72,0-1.44,0-2.16,0-1.67-2.05-1.04-4.49-1.06-6.77-.15-18.75.18-37.51-.19-56.26-.25-.99-.59-2,.21-2.92l3.21-.14c4.5.71,7.27,2.69,5.74,7.85-.14.82-.41,1.59-.88,2.27-.88,3.86-.64,7.8-.85,11.71,1.32,1.28,1.04,3.6,2.91,4.53.39.25.74.55,1.06.89.8,2.81-2.28,4.47-2.08,7.11-.23.74-1,.97-1.41,1.53Z"/>
  <path class="cls-24" d="m367.89,407.08c.07.72.14,1.44.21,2.17-2.19,5.67-.87,11.63-1.42,17.43.87,1.57.37,3.15.01,4.72-.7,1.82-.36,3.9-1.42,5.62-1.48,1.36-3.07,1.38-4.74.41.22-9.51-1.92-18.9-1.32-28.44.09-1.34-.54-2.73-.84-4.09.76-2.66.18-5.38.36-8.07.26-2.46-.59-5,.56-7.4,2.55-.34,5.09-.66,7.61.2v-.04c1.54,4.82-.42,9.88.99,14.71.02.92.01,1.85,0,2.77Z"/>
  <path class="cls-61" d="m267.46,165.88c-.26-2.09.12-3.78,2.4-4.22,1.61-.31,3.39-.44,4.38,1.22,1.21,2.04.68,3.9-1.4,5.04-2.11,1.15-2.48,3-2.26,5.06.35,3.19-.75,5.63-3.33,7.47-.85.6-2.03,1.1-1.62,2.48,1.44,4.79-1.62,8.21-3.59,11.93-1.02,1.91-2.18,3.22-.1,5.57,2.32,2.62.41,4.37-2.56,4.45-2.78.08-5.55-.86-6.87-3.41-1.17-2.25.96-3.39,2.56-4.66,2.11-1.68,1.73-3.63-.63-4.61-1.89-.79-2.41-1.92-2.22-3.73.23-2.26,1.85-2.52,3.68-3.17,3.5-1.24,6.48-3.15,7.23-7.51.48-2.75,1.66-5.58,3.24-7.86,1-1.45,2.04-2.37,1.09-4.04Z"/>
  <path class="cls-61" d="m424.16,457.3c0,2.27.05,4.54-1.79,4.67-2.86.21-5.81,3.01-8.63.25-1.57-1.54-4.6-2.98-3.18-5.63,2.05-3.83,1.13-5.9-2.44-7.78-1.78-.94-3.37-2.87-1.47-4.86,1.78-1.87,3.08-5.64,6.84-3.44,4.42,2.59,8.93,4.41,14.18,3.69,1.43-.2,2.48.63,2.73,2.05.31,1.74-.69,2.72-2.31,3.06-.88.18-2.15-.14-2.61.35-1.3,1.4-9.8.05-2.2,5.26.69.48.72,1.93.87,2.38Z"/>
  <path class="cls-118" d="m240.3,396.3c2.84-5.01-2.8-5.18-4.35-7.69,0,0-.1-.15-.1-.15,5.1-.89,10.25-.16,15.37-.39,9,.26,18.01-.52,27,.41l-.09.13c1.2,1.66-.04,3.72.9,5.42.15.31.2.63.14.97-1.27,2.49-3.09,2.83-5.36,1.39-1.44,0-2.88,0-4.33,0-1.8,1.34-3.61,1.34-5.41,0-4.33,0-8.65,0-12.98,0-.94.74-2,1.18-3.19,1.28-.87.11-1.75.13-2.62.07-1.78-.03-3.55-.13-4.97-1.43Z"/>
  <path class="cls-57" d="m403.8,352.74c1.85-1.37,5.26-.88,5.26-4.46,2.56,1.04,4.34,3.74,7.49,3.51,2.64-.82,5.22-.97,7.61.77.71.1,1.42.21,2.12.31,3.02,1.76,7.03.56,9.74,3.26,1.04.3,1.63.89,1.26,2.07-2.37,1.51-6.82.76-5.97,5.86.14.82-1.9.82-2.65.12-1.33-1.24-2.84-2.01-4.52-2.56-1.41.37-2.37-.53-3.43-1.17-2.06-1.31-4.35-.63-6.55-.79-2.14.47-4.03-1.64-6.22-.58-1.89,2.14-2.49,5.37-5.49,6.57-.24.4-.56.47-.97.26.73-3.79-4.46-4.13-4.37-7.54,2.1-2.03,4.45-3.75,6.68-5.62Z"/>
  <path class="cls-118" d="m235.93,454.7c-1-4.52,4.88-3.88,5.41-7.26,1.92-2.29,4.64-2.03,6.95-1.52,6.01,1.35,12.02.73,18.04.64,3.64-1.51,7.51-.45,11.24-.99,1.01.03,1.8.45,2.32,1.33.26.57.38,1.17.37,1.79-.03,1.8.28,3.67-.99,5.23-1.08,1.52-2.16-.95-3.24.01-7.77.99-15.58.95-23.38.94-5.23-.5-10.47-.85-15.71-.13l-.5.09-.49-.14Z"/>
  <path class="cls-61" d="m421.97,359.37c.73.75,1.45,1.49,2.18,2.24-.57.69-1.2,1.34-1.7,2.08-.57.85-2.89.96-1.34,2.72.97,1.1,1.83,2.87,3.91,1.34,2.47-1.82,4.07-.18,5.18,1.83,1,1.8-.27,3.12-1.63,4.06-.65.45-1.92.83-2.45.5-5.14-3.17-10.24-1.23-15.32-.04-2.94.69-5.82.55-6.74-2.56-.93-3.16,1.57-4.43,4.38-4.65,2.31-.19,3.03-1.01,1.45-2.98-1.27-1.58-.67-3.02.21-4.47,1.76-.54,3.59-.46,5.39-.7,2.15.26,4.42-.61,6.47.64Z"/>
  <path class="cls-61" d="m371.33,378.49c-4.39-.23-6.39-3.35-8.1-7.09-1.13-2.47-.13-3.85,1.62-4.99,2-1.3,3.88-.07,4.43,1.61,1.65,5.05,4.96,4.96,8.94,3.5,3.66-1.33,4.24,2.35,6.09,3.87,1.3,1.07.94,2.57-.12,3.86-1.8,2.17-3.59,1.87-5.58.21-1.11-.92-2.35-.49-3.54.14-1.5.8-.74,1.63-.21,2.6,1.31,2.39-.23,3.79-2.01,4.81-1.8,1.03-3.07-.22-4.11-1.54-1.5-1.91-.38-3.32,1.01-4.67.59-.57,1.69-.74,1.57-2.33Z"/>
  <path class="cls-61" d="m412.27,187.4c-9.46.4-18.07-3.43-27.05-5.43-1.39-8.11-.79-8.15,7.61-6.07,4.08,1.01,7.73,3.29,12.31,3.31,4.25.02,8.37,2.29,7.12,8.19Z"/>
  <path class="cls-61" d="m434.94,201.83c-5.36-2.28-9.35-6.54-14.06-9.77.01-1.26.02-2.52.05-3.79.04-1.81-.18-3.87,2.49-3.88,2.22,0,5.13-.91,5.87,2.24.57,2.46,1.26,3.39,4.05,3.66,3.46.33,4.53,3.15,3.45,6.5-.55,1.7-1.23,3.36-1.85,5.04Z"/>
  <path class="cls-61" d="m240.18,446.34c-2.37-1.82,1.34-3.72-.08-5.55-.56-1.05-.37-2.16-.23-3.26.82-1.73-.29-4.02,1.54-5.46,3.32-.27,5.5.59,5.4,4.59-.08,3.2,1,4.92,4.5,2.58,1.05-.7,2.72-.47,4.1-.66.29.22.6.42.93.5,2.03.45,5.79-.92,5.32,2.45-.44,3.09-3.85,2.07-6.25,1.4-2.23-.09-4.07.38-4.33,3.09-3.6,1.33-7.25.73-10.9.33Z"/>
  <path class="cls-61" d="m279.39,447.24c-.4-.3-.79-.6-1.19-.9-3.41.82-6.88.18-10.32.37-.67.05-1.22-.18-1.66-.7-.14-2.74.15-5.05,3.71-5.4,1.11-.11,2.14-1.17,3.16-1.86,1.61-1.08,3.05-2.66,5.31-1.6,2.4,1.13,1.91,3.15,1.66,5.14-.06.46.12.96.19,1.39,2.11.47,2.29-1.61,3.44-2.3,1.26-.75,2.45-.68,3.37.47,1.11,1.38.87,2.79-.56,3.72-1.62,1.06-3.39,1.87-5.1,2.78-.92.08-1.54-.39-2.02-1.12Z"/>
  <path class="cls-61" d="m416.67,171.48c3.18,1.31,5.92,1.54,6.63-3.01.2-1.31,1.4-1.48,2.51-1.47,1.11,0,2.46.22,2.44,1.52-.06,3.3-.11,6.66-.78,9.86-.37,1.76-2.26,2.84-4.29,2.1-3.33-1.21-6.04-3.72-9.63-4.48-1.01-.21-1.4-1.65-.96-2.77.73-1.84,2.29-2.06,4.09-1.75Z"/>
  <path class="cls-61" d="m376.4,456.59c-.16,2.98-3.5,2.93-4.82,5.29-2.73,4.89-8.65,6.4-13.56,4.68-1.34-.47-2.12-1.48-1.77-2.93.4-1.66,1.81-2.74,3.2-1.87,2.6,1.61,3.82,1.18,4.48-1.78.25-1.11,1.34-1.76,2.5-1.74,2.49.05,4.56-.27,5.44-3.17.31-1.05,1.65-1.38,2.79-.96,1.11.4,1.72,1.26,1.74,2.48Z"/>
  <path class="cls-61" d="m447.78,201.73c1.61,4.3,1.38,8.54-.64,13.38-3.69-3.16-7.18-6.21-9.81-10.19.11-.14.3-.26.33-.42q1.63-6.85,7.63-2.32c.87.66,1.69-.14,2.49-.46Z"/>
  <path class="cls-61" d="m118.02,448.36c1.76,2.46,3.29,5.26,7.12,4.47.43-.09,1.1.26,1.44.61,5.33,5.63,8.46,4.72,11.39-3.3.11-.3.49-.5.75-.75,1.07,1.46,2.13,2.91,3.2,4.37-1.25.51-1.79,1.65-2.54,2.68-2.98,4.06-6.87,4.93-11.41,2.87-1.96-.89-3.78-2.33-5.83-2.78-4.95-1.08-6.03-3.77-4.11-8.17Z"/>
  <path class="cls-61" d="m255.03,230.04c4.03-.11,7.11,4.09,5.5,7.29-.78,1.56-.53,3.18-1.02,4.69-.57,1.78-1.41,3.51-3.76,2.96-2.57-.6-3.01-2.63-2.1-4.62,1.14-2.48,1.48-4.12-.79-6.48-1.8-1.87.15-3.5,2.16-3.84Z"/>
  <path class="cls-61" d="m281.42,459.07c.51-2.19.83-3.59,1.17-4.98.33-1.37,1.17-2.29,2.6-2.27,1.42.02,2.46.95,2.5,2.33.06,2.5.84,4,3.58,4.32,1.3.15,2.1,1.42,1.74,2.88-.41,1.67-1.61,2.24-3.27,1.95-1.75-.31-3.49-.62-5.25-.86-2.51-.34-3.26-1.88-3.07-3.38Z"/>
  <path class="cls-61" d="m358.62,366.88c-2.64-.3-4.72-.99-4.81-4.41-.11-4.09,2.76-4.81,5.56-4.9,2.54-.08,5.15,1.22,5.06,4.32-.09,3.44-2.58,4.8-5.81,4.99Z"/>
  <path class="cls-61" d="m182.93,448.36c1.89,4.79,7.99,3.79,10.73,8.2,1.72,2.78,8.97-1.4,9.09-5.28.03-1.16.45-2.05.79-3.04.72,1.07,1.44,2.14,2.16,3.21-.85,4.14-9.12,9.67-12.84,8.61-1.2-.34-1.43-1.51-2.06-2.35-.63-.84-1.57-2.41-2-2.29-7.36,2.07-4.37-4.37-5.87-7.06Z"/>
  <path class="cls-61" d="m365.58,431c.37-1.44.73-2.89,1.1-4.33,1.25.66,2.59,1.19,3.73,2,1.93,1.37,4.74,2.27,3.8,5.6-.92,3.27-3.32,4.39-6.48,4.3-.71-.02-1.42-.03-2.13-.05-.49-.77-.4-1.62-.38-2.47.14-1.68-.32-3.4.36-5.05Z"/>
  <path class="cls-61" d="m402.25,174.54c-3.54.13-5.94-.96-6.16-4.7-.15-2.54,1.55-4.11,3.63-3.47,2.63.81,7.24-.84,7.11,4.54-.08,3.3-2.23,3.73-4.58,3.63Z"/>
  <path class="cls-61" d="m240.3,396.3c1.78.03,3.56.06,5.34.08.46.77.14,2.37.64,2.37,1.27.02.87-1.66,1.58-2.37h3.22c.03,1.78-.04,3.45-1.27,5-2.67,3.38-.42,3.67,2.35,3.51-.3,2.65,1.44,4.06,3.25,5.43-3.32,2.62-6.32-.18-9.44-.66-.5-.08-1.34-1.61-1.13-2.11,1.64-3.97-1.87-5.6-3.44-8.1-.41-.03-.77-.17-1.08-.45-.09-.18-.18-.36-.27-.54.09-.72.18-1.45.26-2.17Z"/>
  <path class="cls-61" d="m495.19,433.28c1.76.37,3.1,1.49,3.43,3.43.33,1.97-5.13,7.45-7.08,7.1-1.91-.34-3.19-1.63-3.37-3.62-.15-1.74,5.11-6.9,7.02-6.9Z"/>
  <path class="cls-78" d="m292.29,405c.02,2.48.04,4.97.07,7.45.83,9.35.13,18.71.36,28.07-.37,4.06.8,8.21-.7,12.2-1.27-1.36-.9-3.06-.9-4.65-.02-18.28-.02-36.55,0-54.83,0-1.58-.42-3.3.97-4.61.19.27.37.54.56.8-.1,5.19.56,10.4-.35,15.57Z"/>
  <path class="cls-14" d="m83.33,453.63c.05-21.36.11-42.71.16-64.07,1.34.85.97,2.23.97,3.43.02,19.15.03,38.3-.01,57.45,0,1.12.62,2.62-1.12,3.19Z"/>
  <path class="cls-76" d="m232.76,390.76c1.62,1.65.98,3.74.99,5.65.05,19.43.03,38.86.03,58.29l-.52.13-.52-.13c-1.26-5.43-.26-10.94-.58-16.41,0-14.09-.02-28.17.03-42.26,0-1.76-.53-3.62.57-5.27Z"/>
  <path class="cls-61" d="m402.54,379.36c-.14,2.74-1.43,4.75-4.44,4.75-2.42,0-4.1-1.61-4.07-4.04.03-3.02,2.04-5.17,4.88-5.31,2.35-.12,3.51,2.05,3.64,4.59Z"/>
  <path class="cls-57" d="m435.17,145.23c4.36,5.06,4.37,10.63.04,18.4-2.42-6.13-1.86-12.26-.04-18.4Z"/>
  <path class="cls-30" d="m76.94,388.66c0,18.37,0,36.74-.05,55.1,0,1.92.58,3.99-.89,5.71-1.58-5.76-.26-11.63-.69-17.44,0-10.05,0-20.1,0-30.16.41-4.4-.84-8.89.7-13.23.32-.06.63-.05.94.01Z"/>
  <path class="cls-33" d="m216.27,396.19c.11-.35.11-.69.02-1.04-.53-2.14-.6-4.27.02-6.41,1.63.88,1.22,2.46,1.22,3.83.02,17.42.02,34.84.01,52.26,0,1.24.16,2.55-.96,3.48,0,0-.38.11-.38.11-.4-17.41-.54-34.82.07-52.23Z"/>
  <path class="cls-57" d="m359.08,446.15c.12-.29.2-.59.24-.9,2.22-1.38,4.64-.4,6.97-.61.63.17,1.09.54,1.4,1.12,1.15,2.87.51,5.56-.78,8.2-2.9.06-6.35,2.13-8.05-2.22-.1-1.87-.4-3.75.22-5.59Z"/>
  <path class="cls-57" d="m436.25,166.94c5.9.19,6.33.61,8.18,8.27.6,2.47.13,4.34-2.77,4.77-1.61-4.43-4.59-8.28-5.41-13.04Z"/>
  <path class="cls-61" d="m174.44,430.98c2.8,1.58,6.85-.26,8.9,2.61,1.92,2.7-1.06,5.79-.46,8.85.3,1.55.05,3.22.05,4.83-2.61-1.21-4.81-2.54-2.99-6.07.83-1.6,2.53-3.15.82-5.33-2-2.55-4.17-.92-6.32-.55-1.44-1.45-1.45-2.9,0-4.35Z"/>
  <path class="cls-61" d="m273.8,414.68c.17-.69.17-1.52.55-2.06,1.41-2.01,1.25-5.92,5.1-5.14,2.2.44,1.93,2.75,1.9,4.55-.06,3.62-1.92,5.24-5.5,4.87-.32.35-.71.44-1.15.31-.6-.31-1.05-.78-1.32-1.4-.08-.46.05-.83.43-1.12Z"/>
  <path class="cls-57" d="m455.54,131.26c-3.28,5.26-10.43,8.18-15.2,6.22,4.06-4.56,9.11-6.67,15.2-6.22Z"/>
  <path class="cls-115" d="m150.29,397.32c.12-.37.24-.74.35-1.11.2.29.58.58.59.88.51,17.15.53,34.31-.01,51.46,0,.3-.38.59-.59.88-.12-.37-.25-.74-.37-1.11-.51-17-.57-34,.03-51Z"/>
  <path class="cls-61" d="m341.9,441.96c-1.9-.88-2.42-2.7-3.04-4.46,2.65-.53,4.77-3.35,8.02-1.47,1.69.98,4.19,1.15,3.36,3.87-.65,2.15-2.64,2.19-4.51,1.57-1.39-.46-2.73-1.13-3.84.48Z"/>
  <path class="cls-10" d="m232.76,390.76c-.04,15.94-.08,31.88-.12,47.82-.29.52-.57.5-.85,0-.06-15.73-.12-31.46-.15-47.2,0-.97-.42-2.25,1.1-2.63,0,.67.01,1.34.02,2Z"/>
  <path class="cls-61" d="m300.71,453.68c.1-1.41.21-2.82.31-4.24,2.1-.18,4.24-.14,6.28-.6,2.02-.46,3.66-.43,4.09,1.87.37,2-1.08,2.79-2.85,3.03-2.6.36-5.2.72-7.81,1.08-.32-.25-.43-.51-.33-.76.1-.26.2-.39.31-.39Z"/>
  <path class="cls-61" d="m378.73,364.87c2.18.45,3.86,2.61,6.38,1.87,2.23-.65,4.46-.63,6.69,0l-.1.15c-.47,3.23-2.52,4.39-5.55,4.33-1.75-.04-3.5,0-5.26,0-1.37-1.89-2.62-3.82-2.16-6.34Z"/>
  <path class="cls-61" d="m301.03,428.8c-3.25-4.88,1.58-2.62,2.98-3.4.65-.4,1.36-.39,2.08-.29.88.35,1.87.54,2.33,1.54.23.85.44,1.71.69,2.55.55,1.83.69,3.71-1.32,4.59-2.18.95-3.23-.51-3.74-2.46-.41-1.57-1.43-2.38-3.01-2.52Z"/>
  <path class="cls-61" d="m317.98,459.42c-2.09,1.74.9,6.41-3.62,7.17-1.61.27-3.1-1.37-2.39-2.75,1.29-2.52-.88-6.8,3.49-7.62,1.61-.3,2.52,1.09,2.52,3.2Z"/>
  <path class="cls-3" d="m143,437.57c-.22.58-.03,1.78-.85,1.56-1.09-.29-1.51-1.44-1.45-2.63,1.76-3.01,1.06-6.32,1.09-9.51.08-9.17.04-18.34.05-27.52.32-.09.63-.17.95-.26.48.5.69,1.1.64,1.79.01,9.9,0,19.8,0,29.7-.19,2.28.44,4.62-.43,6.86Z"/>
  <path class="cls-40" d="m99.74,401.52c1.33,1.09.97,2.62.97,4.02,0,13.15-.05,26.3-.08,39.46-.62.42-1.11.3-1.47-.36-.09-.93-.06-1.87-.07-2.81.22-5.42-.46-10.85.39-16.25,0-.75,0-1.5-.01-2.24-.47-7.28-.97-14.56.26-21.82Z"/>
  <path class="cls-61" d="m108.47,429.89c1.66,1.36,3.41,2.1,5.68,2.28,4.73.36,5.4,2.19,2.78,6.42-2.49-2.1-5.55-3.09-8.47-4.35-1.09-1.45-1.09-2.9,0-4.35Z"/>
  <path class="cls-61" d="m343.74,371.16c-.35,1.83-1.7,2.11-3.19,2.21-1.92.12-3.94-.34-5.61,1.09-1.11.95-2.25,1.08-3.2-.22-.55-.76-.64-1.66-.16-2.51.69-1.24,2.02-2.09,3.07-1.23,2.37,1.95,3.67.32,5.45-.88,1.59-1.07,3.04-.43,3.64,1.54Z"/>
  <path class="cls-71" d="m108.47,429.89c0,1.45,0,2.9,0,4.35-.08,5.2-.11,10.41-.29,15.61-.05,1.26.85,2.93-1.02,3.74.05-14.11.1-28.21.15-42.32.41-.35.69-.27.86.24.1,6.13.2,12.25.3,18.38Z"/>
  <path class="cls-61" d="m435.67,447.24c-2.19-.63-3.87-1.74-3.68-4.03.15-1.92,1.62-3.4,3.54-3.32,2.12.09,3.68,1.57,3.55,3.84-.12,1.98-1.75,2.91-3.41,3.5Z"/>
  <path class="cls-57" d="m348.4,349.61c-.05-1.69.32-3.13,2.09-3.83.82-.33,1.66-.78,2.45-.16.97.76.32,1.58-.2,2.25-1.83,2.36-1.04,4.19,1.07,5.79-.91.42-1.8.93-2.74,1.25-3.49,1.21-4.45.03-3.08-3.34.25-.61.27-1.3.4-1.95Z"/>
  <path class="cls-61" d="m437.29,358.2c-.42-.69-.84-1.38-1.26-2.07.39-2.47,2.12-3.29,4.27-3.13,1.54.12,2.53,1.38,3.05,2.78.52,1.37-.32,2.4-1.24,3.34-2.09,2.15-3.47.69-4.83-.93Z"/>
  <path class="cls-28" d="m8.62,399.52c1.67,1.13,1.2,2.89,1.2,4.45,0,11.56-.03,23.12-.06,34.69-.77.28-1.26.02-1.47-.77-.15-8.07-.02-16.14-.06-24.21.2-4.36-.41-8.74.34-13.09.13-.35.15-.71.05-1.07Z"/>
  <path class="cls-61" d="m355.68,427.83c-.48,2.02-1.46,3.25-3.67,3.12-2.23-.12-3.25-1.52-3.14-3.45.11-1.95,1.35-3.15,3.56-3.04,2.25.12,2.95,1.55,3.25,3.36Z"/>
  <path class="cls-61" d="m458.79,500.34h-6.49c.23-1.72-.64-3.69,1.06-5.06,1.02-.82,2.12-1.22,3.48-.59,2.69,1.22,1.76,3.61,1.96,5.65Z"/>
  <path class="cls-44" d="m174.44,430.98c0,1.45,0,2.9,0,4.35-.1,3.24-.19,6.48-.29,9.72-.69.38-1.16.2-1.42-.55-.05-.64-.07-1.28-.06-1.93.05-10.09-.1-20.18.07-30.27.27-.71.77-.98,1.5-.79.07,6.49.14,12.98.2,19.46Z"/>
  <path class="cls-61" d="m275.79,460.43c-.07,2.23-1.31,3-3.12,3.09-1.87.09-3.78-.1-4.03-2.44-.22-2.03,1.25-2.77,3.04-2.89,1.91-.13,3.54.25,4.1,2.24Z"/>
  <path class="cls-45" d="m324.71,388.47c-10.44.05-20.87.11-31.31.16-.42.63-.76.59-1.02-.12,0,0-.29.12-.3.12,1.55-1.85,3.68-1.15,5.53-1.07,9.03.43,18.12-1.21,27.09.91Z"/>
  <path class="cls-68" d="m273.8,414.68c0,.3,0,.6.01.9-.91,1.32-2.31,1.76-3.74,1.84-7.71.39-15.43.41-23.14,0-1.29-.07-2.42-.65-3.41-1.47l-1.06-.36c-.08-.82.15-1.27,1.07-.91,10.1,0,20.19,0,30.29,0Z"/>
  <path class="cls-61" d="m366.82,444.04c3.18-1.96,4.15.71,5,2.69,1.51,3.53-1.33,4.69-3.72,5.97-1.89-2.25.38-5.25-1.36-7.52l.11-.14c-.41-.21-.55-.42-.43-.65.13-.23.25-.35.39-.35Z"/>
  <path class="cls-57" d="m471.81,141.85c-5.68,2.28-6.56,1.39-6.49-6.55,3.91.43,4.3,4.39,6.49,6.55Z"/>
  <path class="cls-35" d="m75.64,401.62c0,10.15,0,20.3.01,30.45-.3.49-.6.5-.88-.02,0-10.13,0-20.26,0-30.4.27-.51.56-.52.87-.03Z"/>
  <path class="cls-57" d="m480.55,153.85c-2.22-.18-4.93.95-6.25-1.83-1.28-2.7.44-4.82,1.85-6.92,2.08,2.61,1.67,6.48,4.4,8.75Z"/>
  <path class="cls-61" d="m230.53,381.58c-.12,1.83-.53,3.39-1.96,3.26-2.7-.23-2.99-2.71-3.34-4.8-.2-1.17.39-2.32,1.76-2.06,2.13.4,2.89,2.23,3.54,3.6Z"/>
  <path class="cls-61" d="m60.86,409.24c-1.92-1.77-.7-4.6-2.17-6.52,1.06.07,2.2-.08,3.16.26,1.86.67,2.85,2.37,2.72,4.18-.15,2.09-2.09,2.04-3.71,2.08Z"/>
  <path class="cls-91" d="m266.23,446.01l1.08.35c0,.25,0,.5,0,.75-8.66.11-17.31.21-25.97.32-.39-.37-.77-.73-1.16-1.1,3.63-.11,7.27-.22,10.9-.33,5.05,0,10.1,0,15.15,0Z"/>
  <path class="cls-47" d="m278.21,388.48c-9.03-.01-18.07-.03-27.1-.04-.01-.25-.02-.5-.04-.75,9.05.16,18.14-1.22,27.14.8Z"/>
  <path class="cls-61" d="m386.98,170.14c-1.66.06-2.71-.54-2.79-2.39-.09-1.99.74-2.98,2.78-2.94,1.79.04,2.53.96,2.53,2.67,0,1.71-.72,2.7-2.53,2.66Z"/>
  <path class="cls-112" d="m252.18,453.97c7.95-.01,15.9-.02,23.85-.04-2.94,3.36-6.62-.02-9.81,1.06-3.88.87-7.82.19-11.73.41-.6,0-1.2-.02-1.8-.07-.69-.26-.86-.72-.52-1.37Z"/>
  <path class="cls-89" d="m8.58,413.58c.11,8.32.22,16.64.33,24.95.22.26.31.54.26.82-.05.29-.1.43-.17.43-.44.21-.87.18-1.29-.09,0-8.7-.01-17.4-.02-26.1.28-.51.57-.52.88-.02Z"/>
  <path class="cls-7" d="m35.87,388.45c-8.7,0-17.41,0-26.11,0,8.7-1.55,17.41-1.53,26.11,0Z"/>
  <path class="cls-61" d="m273.8,396.39c1.83-.29,3.84.11,5.36-1.39.01.54.05,1.07.03,1.61-.06,2.12.29,4.86-2.8,4.75-3.05-.11-2.49-2.89-2.6-4.97Z"/>
  <path class="cls-61" d="m494.49,500.34h-5.41c.14-2.19-.46-5.16,2.96-4.96,2.92.18,2.34,2.93,2.45,4.96Z"/>
  <path class="cls-61" d="m316.93,433.72c-.25,1.6-1.1,2.63-2.83,2.48-1.44-.12-2.3-1.12-2.26-2.5.05-1.65,1.06-2.65,2.78-2.51,1.44.12,2.13,1.12,2.31,2.53Z"/>
  <path class="cls-61" d="m341.97,366.69c-2.01,0-3.03-.89-3.08-2.54-.04-1.39.82-2.38,2.26-2.5,1.72-.14,2.71.86,2.78,2.51.06,1.44-.95,2.19-1.96,2.54Z"/>
  <path class="cls-61" d="m284.48,420.69c-.26,1.6-1.11,2.62-2.84,2.47-1.44-.13-2.29-1.12-2.25-2.51.06-1.65,1.07-2.64,2.79-2.49,1.44.12,2.13,1.12,2.3,2.54Z"/>
  <path class="cls-61" d="m373.3,419.2c2.01,0,3.03.89,3.08,2.54.04,1.39-.82,2.38-2.26,2.5-1.72.14-2.71-.86-2.78-2.51-.07-1.44.95-2.18,1.96-2.54Z"/>
  <path class="cls-61" d="m400.73,439.78c1.6.21,2.61.93,2.67,2.38.1,2.04-1.25,2.73-3.05,2.92-1.99.21-1.79-1.45-1.94-2.48-.25-1.73.97-2.51,2.32-2.83Z"/>
  <path class="cls-84" d="m99.74,401.52c-.09,7.27-.17,14.54-.26,21.82-1.55-7.58-1.52-15.17-.02-22.75.14.3.23.61.28.94Z"/>
  <path class="cls-61" d="m259.56,172.35c0,2.02-.88,3.05-2.53,3.09-1.38.04-2.37-.82-2.49-2.27-.14-1.73.85-2.72,2.5-2.8,1.44-.07,2.17.96,2.53,1.97Z"/>
  <path class="cls-61" d="m429.4,438.87c0,1.72-.89,2.75-2.54,2.79-1.38.03-2.37-.83-2.48-2.28-.13-1.72.86-2.73,2.5-2.78,1.39-.04,2.27.85,2.52,2.27Z"/>
  <path class="cls-61" d="m268.37,405.07c2.01,0,3.03.89,3.08,2.54.04,1.39-.82,2.38-2.26,2.5-1.72.14-2.71-.86-2.78-2.51-.07-1.44.95-2.18,1.96-2.54Z"/>
  <path class="cls-61" d="m257,434.1c-1.6-.26-2.62-1.11-2.47-2.84.12-1.45,1.11-2.31,2.49-2.26,1.64.05,2.63,1.07,2.49,2.79-.12,1.45-1.11,2.14-2.52,2.31Z"/>
  <path class="cls-61" d="m330.63,461.54c1.59.26,2.61,1.12,2.46,2.85-.13,1.45-1.12,2.3-2.5,2.26-1.64-.06-2.63-1.07-2.48-2.8.12-1.45,1.12-2.13,2.52-2.31Z"/>
  <path class="cls-61" d="m358.04,435.89c-.25,1.6-1.1,2.63-2.83,2.48-1.44-.12-2.3-1.12-2.25-2.51.05-1.65,1.06-2.65,2.78-2.51,1.44.12,2.13,1.12,2.31,2.53Z"/>
  <path class="cls-61" d="m350.32,464.48c-1.71,0-2.74-.89-2.78-2.55-.03-1.39.83-2.38,2.27-2.49,1.72-.13,2.72.87,2.77,2.52.04,1.4-.85,2.28-2.26,2.53Z"/>
  <path class="cls-61" d="m255.41,410.33c-1.9-.11-4.1.48-5.1-1.92-.77-1.84,1.2-2.36,1.85-3.51h2.16c2.11,1.46,1.98,3.37,1.08,5.43Z"/>
  <path class="cls-61" d="m277.07,430.8c-2.01,0-3.03-.89-3.08-2.54-.04-1.39.82-2.38,2.26-2.5,1.72-.14,2.71.86,2.78,2.51.07,1.44-.95,2.18-1.96,2.54Z"/>
  <path class="cls-64" d="m74.77,432.05c.29,0,.58.02.88.02.11,5.8.23,11.6.34,17.39-.07,1.45-.15,2.9-.22,4.35-2.31-7.16-.43-14.52-1-21.76Z"/>
  <path class="cls-61" d="m337.75,453.73c.28.03.56.07.84.12.91.98,2.57-.13,3.36,1.2-.04,2.34-.61,4.77-3.5,3.75-2.39-.84-2.67-3.06-.7-5.07Z"/>
  <path class="cls-61" d="m318.15,426.81c2.71,1.51,4.84,3.6,6.32,6.34-4.93.73-7.05-1.38-6.32-6.34Z"/>
  <path class="cls-61" d="m363.46,380.74c-.55,1.58-1.42,2.54-2.86,2.15-1.59-.43-2.27-1.89-1.95-3.37.3-1.39,1.6-1.93,2.99-1.49,1.36.44,1.87,1.54,1.82,2.71Z"/>
  <path class="cls-125" d="m268.23,210.34c-.23,7.3,1.23,14.66-.8,21.9.29-7.3-1.21-14.66.8-21.9Z"/>
  <path class="cls-61" d="m366.83,349.66c7.22-2.9,3.52,2.9,4.15,5.25-2.91-.54-4.22-2.34-4.15-5.25Z"/>
  <path class="cls-106" d="m27.11,454.87h4.07c-6.4.55-12.82,2.32-19.16.03l-.12-.18c2.84-.79,5.73-.18,8.6-.38,2.2.24,4.48-.54,6.61.52Z"/>
  <path class="cls-61" d="m264.06,396.39h5.41c-.03,2.05-.3,4.12-2.96,3.93-2.28-.16-2.44-2.1-2.45-3.93Z"/>
  <path class="cls-61" d="m255.41,442.93c.54,0,1.07.04,1.61,0,1.53-.12,3.91.48,4.01-1.54.1-2.17-2.37-1.43-3.81-1.8-.64-.17-1.2-.65-1.8-1,.35,0,.71-.03,1.06,0,2.17.23,4.77-.83,6.16,1.85.42.82.29,1.9-.46,2.45-2.19,1.6-4.5,1.77-6.76.05Z"/>
  <path class="cls-61" d="m483.45,142.17c-.03,1.59-1.03,1.92-2.2,1.85-1.34-.09-2.6-.57-2.54-2.19.05-1.26,1.06-1.88,2.23-1.87,1.44.02,2.3.85,2.5,2.21Z"/>
  <path class="cls-61" d="m361.42,455.06c-1.07,2.99-3.41,2.58-4.83,1-1.18-1.32-1.32-3.73,1.48-4.44.76.41,1.13,1.17,1.63,1.81.35.78,1.45.76,1.71,1.63Z"/>
  <path class="cls-61" d="m243.51,414.67c-.36.3-.71.61-1.07.91-3.46.16-3.65-1.54-2.33-4.11-.37-.53-.25-.91.35-1.13,3.39-.24,3.06,2.16,3.05,4.34Z"/>
  <path class="cls-84" d="m99.49,425.58c0,5.79,0,11.58-.01,17.38-.33.47-.64.49-.93-.03.51-5.77-1.08-11.66.94-17.35Z"/>
  <path class="cls-57" d="m373.5,358.17c4.94.22,2.44,4.01,3,6.33l.1.37c-2.1.54-2.41-1.31-3.25-2.45-1.33-1.46.13-2.83.14-4.25Z"/>
  <path class="cls-70" d="m252.18,453.97c-.01.26-.03.53-.04.79-1.37,1.08-2.82.73-4.29.25-3.62-1.14-7.33,1.6-10.93-.27,5-1.92,10.16-.65,15.25-.77Z"/>
  <path class="cls-41" d="m366.92,406.11c0-5.51-.02-11.01-.03-16.52.33.07.65.13.98.19.94,1.36.64,2.79.22,4.22-.02,2.53-.03,5.06-.05,7.59.24,1.66,1.53,3.58-1.12,4.51Z"/>
  <path class="cls-66" d="m231.79,438.58c.28,0,.57,0,.85,0,.03,5.37.07,10.74.11,16.12-2.48-5.24-.65-10.75-.95-16.12Z"/>
  <path class="cls-61" d="m352.94,373.25c.11-1.32.67-1.93,1.76-1.81,1.2.14,1.95.88,2.15,2.07.19,1.08-.39,1.82-1.42,1.83-1.48.02-2.21-.98-2.49-2.1Z"/>
  <path class="cls-49" d="m251.06,387.68c.01.25.02.5.04.75-5.09,0-10.17.02-15.26.02,4.99-1.98,10.14-.58,15.22-.78Z"/>
  <path class="cls-90" d="m265.13,424.42l-15.15-.02c-.3-.69-.14-1.24.47-1.67,4.75-1.59,9.51-1.61,14.26,0,.61.44.75,1,.42,1.68Z"/>
  <path class="cls-106" d="m253.23,455.02c4.33,0,8.66-.02,12.99-.02-4.2,2.02-8.66.48-12.97.95-.37-.2-.49-.4-.38-.61.12-.21.23-.32.36-.32Z"/>
  <path class="cls-5" d="m240.46,410.33c-.12.38-.23.76-.35,1.13-1.4-4.32-1.54-8.65-.08-12.99,0,0,.16-.26.16-.26l.29.1c.47,3.29.55,6.58-.05,9.86,0,.72.02,1.44.02,2.16Z"/>
  <path class="cls-6" d="m75.64,401.62c-.29,0-.58.02-.87.03.6-4.32-1.39-8.88,1.22-13.01-.12,4.33-.24,8.65-.36,12.98Z"/>
  <path class="cls-127" d="m8.58,413.58c-.29,0-.59.02-.88.02.4-4.33-.96-8.78.87-13.02,0,4.33,0,8.66.01,12.99Z"/>
  <path class="cls-121" d="m292.02,452.72c.09-4.01.18-8.01.27-12.02.39-.48.63-.39.76.19.03,4.33.05,8.65.08,12.98-.37-.38-.73-.77-1.1-1.15Z"/>
  <path class="cls-95" d="m241.41,432.06c-.3,1.84.54,3.88-.98,5.49-1.27-1.35-.46-3.02-.69-4.53.13-2.52-.29-5.06.28-7.57l.29.11c1.89,1.91.67,4.35,1.11,6.5Z"/>
  <path class="cls-8" d="m306.25,425.7c-.75-.1-1.5-.2-2.25-.31,4.02-1.52,8.04-1.54,12.06,0-1.47.1-2.94.21-4.41.31-1.8.57-3.6.57-5.4,0Z"/>
  <path class="cls-37" d="m341.95,455.06c-1.1-.45-2.64.34-3.36-1.2,2.88-1.07,6.91,2.2,8.86-2.38,1.37,1.43,1.99,2.82-.66,3.32-1.57.3-3.22.19-4.83.26Z"/>
  <path class="cls-18" d="m144.1,388.74c-.09,3.56-.19,7.12-.28,10.67-.24,0-.49.02-.73.03l-.4.08c-.28-3.64-.94-7.29.36-10.88.36-.03.71,0,1.05.1Z"/>
  <path class="cls-75" d="m210,389.7c-.03,3.25-.06,6.5-.09,9.74-.61.35-1.13.26-1.58-.29-.35-.51-.6-1.07-.74-1.67-.47-3.09-.04-6.03,1.44-8.79,0,0-.11-.05-.11-.05.36.05.72.09,1.08.14.37.2.49.41.37.61-.12.2-.25.31-.37.31Z"/>
  <path class="cls-92" d="m265.13,424.42c0-.29.02-.58.02-.88,2.7-2.67,5.92-1.81,9.08-1.37.6.25,1.14.59,1.64,1.01-3.33,2.59-7.17.71-10.74,1.23Z"/>
  <path class="cls-101" d="m143.05,388.64c-.12,3.63-.24,7.25-.36,10.88-.28-.03-.57-.04-.85-.04.54-3.6-1.32-7.47,1.21-10.84Z"/>
  <path class="cls-72" d="m361.42,455.06c-.85-.25-1.91-.09-2.31-1.21-.43-.85-.55-1.65.35-2.3,1.7,3.08,4.59,2.15,7.21,2.16.41.19.56.4.44.63-.12.23-.25.35-.38.35-1.77.12-3.54.25-5.31.37Z"/>
  <path class="cls-88" d="m7.71,439.7c.29-.03.58-.05.86-.07,1.3,2.89.74,5.86.36,8.82-.08.35-.18.69-.33,1.02-1.31-1.24-.81-2.91-1.03-4.41-.73-1.81-1.19-3.61.05-5.4l.08.03Z"/>
  <path class="cls-42" d="m250.01,423.55c0,.28-.02.57-.03.85-3.18.03-6.36.07-9.54.1.29-.43.58-.86.87-1.29,2.98-2.04,5.89-2.19,8.7.34Z"/>
  <path class="cls-61" d="m7.63,439.66c-.02,1.8-.03,3.6-.05,5.4-1.76-1.82-4.57-3.65.05-5.4Z"/>
  <path class="cls-61" d="m98.55,442.92c.31,0,.62.01.93.03.09.75.19,1.5.28,2.25.45,1.45.88,2.91-.31,4.24-3.31-1.75-1.12-4.28-.91-6.52Z"/>
  <path class="cls-65" d="m366.73,454.69c.03-.33,0-.65-.06-.98.03-2.84.05-5.69.08-8.53,2.49,2.14.49,5.09,1.36,7.52-.28.79-.24,1.79-1.38,1.98Z"/>
  <path class="cls-32" d="m173.05,443.99c.1.39.2.79.29,1.18.45,2.85.94,5.7-.32,8.48l-.48.06s-.47-.12-.47-.12c.03-3.19.05-6.38.08-9.57.28-.53.58-.51.9-.04Z"/>
  <path class="cls-99" d="m240.44,408.17c.02-3.29.03-6.57.05-9.86.3.38.6.77.91,1.15-.49,2.88.88,5.97-.95,8.71Z"/>
  <path class="cls-98" d="m359.37,389.73c-.07,2.5-.14,5.01-.21,7.51-.23.52-.5.57-.82.07.33-2.84-1.4-5.92.98-8.52.36.19.48.39.38.61-.11.22-.21.33-.33.33Z"/>
  <path class="cls-54" d="m380.99,181.2c-2.95,1.45-5.9,1.45-8.85,0,2.95,0,5.9,0,8.85,0Z"/>
  <path class="cls-110" d="m173.03,453.65c.11-2.83.21-5.66.32-8.48.27-.04.53-.08.8-.12-.38,2.87,1.43,6.02-1.11,8.61Z"/>
  <path class="cls-57" d="m293.45,162.59c1.39.23,2.39,1.03,1.55,2.38-.81,1.31-2,.83-2.85-.3.43-.69.87-1.39,1.3-2.08Z"/>
  <path class="cls-79" d="m99.77,453.62c2.14.11,4.28.22,6.42.33-2.32,3.38-4.35,1.2-6.42-.33Z"/>
  <path class="cls-61" d="m343.21,401.64c1.14.02,2.34-.12,3.06,1.09-.24,1.12.75,3.35-1.98,2.2-.36-1.1-.72-2.19-1.08-3.29Z"/>
  <path class="cls-126" d="m414.41,359.08c-1.34,1.36-2.79,1.31-4.31.35-.72-.12-1.44-.24-2.16-.36,2-1.63,4.33-.61,6.51-.85.36.21.47.41.34.6-.13.18-.26.27-.39.27Z"/>
  <path class="cls-61" d="m373.36,362.42c1.08.82,2.17,1.63,3.25,2.45-.49.74-1.11,1.7-2.01,1.27-1.52-.72-1.25-2.33-1.24-3.72Z"/>
  <path class="cls-22" d="m359.37,389.73c-.05-.31-.07-.63-.05-.94,2.54.16,5.26-1.26,7.59.84-2.51.03-5.03.06-7.54.1Z"/>
  <path class="cls-100" d="m75.9,453.71c2.16.07,4.32.15,6.49.22-2.21,1.2-4.42,2.77-6.49-.22Z"/>
  <path class="cls-36" d="m366.82,444.04c.01.33.03.67.04,1-2.52.07-5.03.14-7.55.21,2.19-2.37,5.01-.78,7.5-1.21Z"/>
  <path class="cls-117" d="m107.33,389.63c-2.51.03-5.01.05-7.52.08,2.49-1.94,5-1.61,7.52-.08Z"/>
  <path class="cls-23" d="m358.34,397.31c.27-.02.55-.04.82-.07-.14,2.56.89,5.25-.79,7.65-.01-2.53-.02-5.06-.03-7.58Z"/>
  <path class="cls-36" d="m279.39,447.24c.84.06,1.59.3,2.02,1.12-.38,1.8.8,3.96-1.25,5.36-.98-1.72.23-3.8-.88-5.5-.07-.34-.03-.67.11-.98Z"/>
  <path class="cls-63" d="m359.47,451.56c-.12.77-.23,1.53-.35,2.3-.35-.74-.69-1.49-1.04-2.23.4-1.81-.59-3.88,1-5.47.13,1.8.26,3.6.38,5.41Z"/>
  <path class="cls-74" d="m267.42,248.51c-.08-1.84-.17-3.68-.25-5.52.45-.32.89-.63,1.34-.95-.45,2.14.61,4.54-1.08,6.47Z"/>
  <path class="cls-25" d="m275.87,423.19l-.51.06-.51-.1c-1.78-2.18-1.83-4.32.1-6.44.29.08.59.14.9.18,0,2.1.02,4.2.03,6.3Z"/>
  <path class="cls-38" d="m99.45,449.45c.1-1.41.21-2.83.31-4.24.29-.07.58-.14.87-.22-.16,2.22.79,4.57-.8,6.62-.13-.72-.26-1.44-.38-2.16Z"/>
  <path class="cls-61" d="m255.41,410.33c.11-1.91-.07-3.75-1.08-5.43,3.33,1.21,2.56,3.25,1.08,5.43Z"/>
  <path class="cls-93" d="m392.67,366.96c1.86.63,3.72,1.25,5.58,1.88-2-.2-4.72,1.73-5.58-1.88Z"/>
  <path class="cls-94" d="m83.27,388.73c-2.15-.08-4.29-.16-6.44-.25,2.2-1.33,4.36-1.77,6.44.25Z"/>
  <path class="cls-61" d="m270.68,196.32c-.42,1.07.5,2.57-1.06,3.27-1.92-1.83-1.39-2.87,1.06-3.27Z"/>
  <path class="cls-119" d="m216.31,388.74c0,2.14-.01,4.27-.02,6.41-1.48-1.61-.68-3.62-.97-5.45-.35-.21-.47-.41-.35-.61.12-.2.24-.29.36-.29.32-.14.64-.16.97-.06Z"/>
  <path class="cls-67" d="m366.92,406.11c1.63-1.19.61-3.04,1.12-4.51.35.74.7,1.47,1.05,2.21-.23,1.15.2,2.55-1.21,3.27-.32-.32-.64-.64-.96-.96Z"/>
  <path class="cls-108" d="m27.11,454.87c-2.16-.04-4.32-.08-6.48-.13-.36-.2-.47-.38-.34-.54.12-.16.25-.24.38-.24,2.19,0,4.37-.02,6.56-.02-.06.31-.1.62-.13.93Z"/>
  <path class="cls-16" d="m365.59,436.37c0,.72,0,1.44,0,2.15-1.68-.41-3.79,1.16-5.07-1.09,1.45-.09,3.05.54,4.19-.95.23-.54.53-.55.88-.11Z"/>
  <path class="cls-94" d="m300.71,453.68c0,.39.01.77.02,1.16-2.16-.03-4.31-.06-6.47-.1,1.91-1.82,4.33-.51,6.45-1.06Z"/>
  <path class="cls-96" d="m164.63,450.5c0-2.19,0-4.37,0-6.56,1.93-.04,1.35,1.46,1.51,2.5-.23,1.39.57,2.96-.69,4.18-.27-.05-.55-.09-.83-.11Z"/>
  <path class="cls-1" d="m215.33,388.8c.03.3.03.6-.01.9-1.77,0-3.55,0-5.32,0-.02-.31-.02-.61,0-.92,1.78,0,3.55.02,5.33.02Z"/>
  <path class="cls-58" d="m253.23,455.02c0,.31.02.62.02.93-1.82-.19-3.81.64-5.39-.94,1.43-.08,2.86-.17,4.29-.25.36.09.72.17,1.09.26Z"/>
  <path class="cls-34" d="m306.25,425.7c1.8,0,3.6,0,5.4,0-.86,1.09-2.09.89-3.24.95-.72-.32-1.44-.63-2.16-.95Z"/>
  <path class="cls-128" d="m279.02,394.03c-1.51-1.61-.65-3.61-.9-5.42,2.07,1.51.76,3.59.9,5.42Z"/>
  <path class="cls-124" d="m368.09,394.01c-.07-1.41-.15-2.81-.22-4.22,2.38,1.29.97,2.77.22,4.22Z"/>
  <path class="cls-111" d="m279.28,448.22c1.83,1.58.77,3.63.88,5.5-.3.06-.59.13-.89.2,0-1.9,0-3.8,0-5.7Z"/>
  <path class="cls-27" d="m61.92,423.42c0-1.85.02-3.7.03-5.54,1.39,1.86,1.32,3.7-.03,5.54Z"/>
  <path class="cls-107" d="m165.46,450.61c.11-1.46.21-2.92.32-4.38.24-.54.52-.57.86-.08-.19,1.85.84,3.95-1.13,5.43.07-.33.06-.65-.04-.97Z"/>
  <path class="cls-103" d="m401.5,365.9c.32-.08.65-.16.97-.26-.28.41-.56.82-.83,1.23-.15-.31-.19-.63-.13-.97Z"/>
  <path class="cls-61" d="m472.98,166.89c1.52-2.51,1.67-6.93,4.73-7.08,2.4-.12,5.15,2.28,8.08,2.66.19,4.45-.51,7.72-6.31,5.69-1.61-.56-3.57-.11-5.36-.13-.7-.05-1.05-.45-1.13-1.13Z"/>
  <path class="cls-57" d="m472.98,166.89c.38.38.76.75,1.13,1.13-.64,3.87.18,7.45,2.09,10.83-5.31.24-5.18-4.49-6.42-7.58-.88-2.18.44-4.15,3.2-4.38Z"/>
  <path class="cls-61" d="m424.17,352.56c-2.55-.15-5.24,1.19-7.61-.77.01-2.29.38-4.45,3.29-4.37,3.2.08,3.67,2.75,4.32,5.14Z"/>
  <path class="cls-61" d="m407.06,342.96c-1.68-1.95-1.39-4.23-1.1-6.52,2.14.46,4.13,1.02,4.14,3.87,0,2.17-1.21,2.71-3.04,2.65Z"/>
  <path class="cls-26" d="m483.74,269.19c0-5.12,0-10.23,0-15.35.3-.5.57-.48.82.04-.24,5.11,1.34,10.31-.83,15.31Z"/>
  <path class="cls-114" d="m484.57,253.88c-.28-.01-.55-.02-.82-.04.33-3.98-1.08-8.07.82-11.94,0,3.99,0,7.99,0,11.98Z"/>
  <path class="cls-81" d="m406.69,334.28c-1.43-3.26-1.41-6.52-.02-9.79,0,3.26.02,6.53.02,9.79Z"/>
  <path class="cls-7" d="m413.26,321.11c1.66-1.63,3.69-.82,5.59-.84-1.28,4.23-3.75.43-5.59.84Z"/>
  <path class="cls-73" d="m482.41,230.02c-.32-.75-.64-1.49-.95-2.24-.66-1.87-.89-3.72.14-5.55,1.82,2.43.81,5.16.81,7.79Z"/>
  <path class="cls-56" d="m481.59,222.23c-.05,1.85-.1,3.7-.14,5.55-1.58-2.13-1.46-4.3-.15-6.49.12.31.22.62.29.94Z"/>
  <path class="cls-9" d="m375.49,276.51c-13.02.66-25.34-10.6-26-23.75,0-.22.02-.45.03-.67.03-1.35.03-2.69,0-4.04-.01-.22-.02-.45-.03-.67.61-11.05,7.84-21.19,17.58-23.86,11.21-3.08,24.41-.57,31.69,9.39,10.26,14.03,4.65,36.85-12.43,42.24-1.45.46-2.82.23-4.21.51-2.01,1.87-4.44.36-6.62.85Z"/>
  <path class="cls-61" d="m321.53,349.44c-1.35.02-2.32.83-3.39,1.5-2.93,1.84-4.65-1.16-6.71-2.11-1.64-.76-.72-2.84.24-4.28.39-.59,1.01-1.37.88-1.91-.81-3.3-3.64-6.2-1.47-10.12.36-.64-1.71-1.57-3.07-1.39-1.35.18-1.71,1.19-1.72,2.35,0,1.22.1,2.44.15,3.62-3.22,1.18-4.91-5.35-8.01-1.66-2.1,2.5-4.33,4.14-8.04,5.15,1.31-3.8,2.59-7.22.99-10.89-.61-1.41,1.23-1.9,2.14-2.71,2.77-2.43,2.39-6.07-.79-7.88-.93-.53-1.98-.87-2.98-1.27-5.19-2.09-6.48-.97-6.13,4.48.29,4.5-1.01,8.99-.53,13.64-2.22-1.95-3.4-3.84-2.95-6.87,1.11-7.57-4.41-10.46-10.01-12.82-2.72-1.15-2.44-1.8-1.06-4.13,2.21-3.73,1.34-8.4,2.11-12.59.56-3.04,1.08-6.91-.22-10.52-1.81-5.05-2.88-5.87-7.55-3.58-3.5,1.71-7.02,3.39-10.47,5.19-2.1,1.09-4.33.65-5.21-1.03-1.17-2.22,1.54-2.51,2.8-3.63,2.91-2.6,5.42-5.18,9.98-4.15,1.92.43,2.79-2.1,3.24-3.8.5-1.91-.28-3.75-2.18-4.43-2.47-.88-3.01-2.24-2-4.54,1.27-2.89-1.75-4.89-1.99-9.26,2.64,3.1,4.95,4.38,4.45,7.82-.3,2.04.7,3.82,3.05,3.33,2.27-.47,1.97-2.08,1.59-4.21-.94-5.14-3.37-10.68,1.78-15.17,4.89,3.83,3.92,10.16,6.19,15.13,1.09,2.39-2.92,4.72-2.1,7.81-2.54,2.6-1.42,4.21,1.42,5.37,5.1,3.77,2.27,9.38,3.24,14.11-.01,2.95,1.42,3.98,4.21,3.2,1.35.88,3.22,1.9,3.07,3.44-.46,4.76,2.77,6.62,5.99,8.5,2.68,1.56,4.88,3.4,6.04,6.41,1.35,3.51,4.63,3.33,7.58,3.69,1.59,2.3,3.01,4.84,6.46,4.35,1.09.36,2.18.72,3.28,1.09,3.21,2.85,4.4,7.51,8.47,9.6-.72,1.09-1.44,2.17-2.16,3.26-.64.85-1.56,1.71-.87,2.85.8,1.33,2.03,1.22,3.27.57l-.1-.34c1.67-.15,3.68-1.54,4.56,1.24-.26.88-.06,2.01-1.27,2.38-1.76,1.43-2.45,3.75-4.2,5.19Z"/>
  <path class="cls-61" d="m403.8,352.74c-.54,3.89-3.01,5.47-6.68,5.62-2.39-.91-4.36.68-6.52,1.09-2.94.75-5.45,0-7.54-2.18-1.79-1.43-3.36-2.92-4.54-5.05-2.3-4.16-3.58-7.7,1.82-10.45,1.17-.59,1.9-2.06,2.83-3.12-.07-1.62,1.14-2.38,2.18-3.25.81-.7,1.77-1.28,2.39-2.11,4.79-6.4,4.83-6.45,9.11.33,3.13,4.96,5.63,10.16,5.74,16.25.02.96.79,1.91,1.22,2.87Z"/>
  <path class="cls-61" d="m322.3,334.27c-4.39-.45-6.97-3.37-8.47-9.6,2.04-.42,4.07-1.07,6.12-1.19,1.65-.1,4.64-.86,4.73.87.12,2.29,2.04,4.79.03,7.11-.81.93-1.6,1.87-2.4,2.81Z"/>
  <path class="cls-61" d="m337.57,143.15c2.11-1.95,4.45-1.84,6.01.31,1.61,2.21,6.6,2.74,3.98,7.38-.47.84-.19,2.11-.25,3.18-4.76-2.26-6.57-7.18-9.74-10.87Z"/>
  <path class="cls-57" d="m352.9,163.63c2.49.45,1.33,3.48,3.1,4.43,1.15.72,1.63,1.7,1.16,3.05-3.5,1.97-4.56-1.24-5.85-3.11-1.16-1.68-1.37-3.81,1.59-4.37Z"/>
  <path class="cls-57" d="m321.53,349.44c-.49-3.28,1-4.93,4.2-5.19.36,2.05.72,4.09,1.08,6.14-1.88.36-3.7.38-5.28-.95Z"/>
  <path class="cls-61" d="m357.15,171.11c-.39-1.02-.77-2.03-1.16-3.05,1.4-1.25,2.8-2.5,4.59-4.1.77,3.64-.53,6.05-2.23,8.36l-1.21-1.22Z"/>
  <path class="cls-61" d="m281.41,297.2c-.44,2.59-2.2,2.82-3.92,1.71-1.98-1.28-2.17-3.15-.29-4.91,1.39,1.09,3.48,1.24,4.21,3.2Z"/>
  <path class="cls-61" d="m310.55,323.58c-5.86,1.76-6.21,1.52-6.46-4.35,3.36-.35,4.02,3.33,6.46,4.35Z"/>
  <path class="cls-61" d="m322.53,340.96c-.49,2.2-2.04,2.3-3.67,1.6-.69-.3-1.43-1.22-1.54-1.95-.31-2.01,1.02-2.84,2.81-3.08.1,1.63.89,2.79,2.4,3.43Z"/>
  <path class="cls-61" d="m273.96,279.88c-1.77-.14-4.07.78-4.43-2.23-.27-2.29.81-3.25,3.01-3.14.27,1.85-.05,3.85,1.42,5.37Z"/>
  <path class="cls-57" d="m383.06,357.27c2.82-.32,4.71,2.57,7.54,2.18-2.93.72-6.6,4.01-7.54-2.18Z"/>
  <path class="cls-57" d="m372.67,342.36c-1.04-.41-2-1.08-1.92-2.22.08-1.08,1.01-2.01,2.13-1.93,1.08.08,2,1.01,1.93,2.14-.07,1.09-1,1.78-2.14,2.02Z"/>
  <path class="cls-57" d="m338.05,348.88c-1.04-.41-2-1.08-1.92-2.22.08-1.08,1.01-2.01,2.13-1.93,1.08.08,2,1.01,1.93,2.14-.07,1.09-1,1.78-2.14,2.02Z"/>
  <path class="cls-57" d="m385.35,335.4c-.01,1.56-.78,2.62-2.18,3.25-.83-.21-2.06-.23-1.76-1.46.52-2.06,2.35-1.77,3.94-1.79Z"/>
  <path class="cls-125" d="m391.8,366.74c-2.23,0-4.46,0-6.69,0,2.23-1.52,4.46-1.49,6.69,0Z"/>
  <path class="cls-123" d="m326.99,341.86c-1.11-1.91-3.09-.64-4.56-1.24,1.84-.77,4.01-2.76,4.56,1.24Z"/>
  <path class="cls-69" d="m375.49,276.51c2.03-1.64,4.41-.65,6.62-.85-.06.29-.14.58-.22.87-1.71,1.27-3.54.66-5.36.38-.35-.13-.7-.26-1.05-.39Z"/>
  <path class="cls-15" d="m376.53,276.9c1.79-.13,3.57-.25,5.36-.38-1.66,1.98-3.48,1.52-5.36.38Z"/>
  <path class="cls-51" d="m349.48,252.76c-1.52-1.79-1.54-3.59,0-5.38,0,0,.2-.13.2-.13.59,1.88.58,3.75,0,5.63l-.19-.12Z"/>
  <path class="cls-61" d="m179.84,397.29c-2.31-2.44-3.53-5.83-6.55-7.65-2.04-1-4.2-.35-6.3-.42-2.03,1.57.28,4.29-1.57,5.91-3.8-1.95.38-5.5-1.82-8.28-3.11-3.92,1.13-4.67,3.6-6.36,3.48-2.38,1.17-4.85-1.41-7.14,6.14-.66,10.2.5,11.02,6.87.17,1.34,1.33,2.52,1.88,3.84.63,1.5,1.53,2.57,3.24,2.09,1.94-.55,2.44-2.25,1.87-3.9-.77-2.22-.87-4.19.56-6.13.67-.91,1.47-1.74,2.67-1.33,1.57.55.64,1.72.49,2.7-.36,2.39-.74,4.78,2.5,5.6,4.44,1.12,5.03,4.26,1.89,7.91-3.25,3.78-6.54,7.07-12.05,6.3Z"/>
  <path class="cls-61" d="m206.71,436.49c-5.95-5.6-9.47-12.94-13.87-19.65.64-1.45,1.48-2.71,3.07-3.26,1.45.65,2.94,1.7,4.42.19,1.3-1.33,1.13-2.87.35-4.47-1.56-3.23.61-7.53-3.1-10.27-.92-.68.21-2.43,1.3-2.11,4.1,1.2,5.44-.91,6.28-4.37.19-.76,1.68-1.2,2.57-1.79,1.26,2.56.29,5.29.61,7.92,1.15,10.51.25,21.05.53,31.58-.24,2.25.76,4.93-2.18,6.23Z"/>
  <path class="cls-61" d="m245.05,341.48c-4.56-3.48-8.27-1.09-11.69,1.5-3.2,2.43-3.9,3.03-6.73-1.54-2.84-4.59-2.11-8.6-2.77-13.02,3.86-.32,5.59,1.3,6.07,5.27.29,2.45,1.97,4.62,5.03,4.91,3.11.3,3.82-1.76,4.74-4.1,1.18-2.99,2.64-5.76,6.71-2.85,1.33.95,3.68,1.17,4.56-1.15.99-2.6,3.08-3.35,5.44-3.83,3.57-.73,4.12-2.48,1.86-5.29-.71-.88-2.35-1.92-.62-3.03,1.41-.9,2.74-.06,3.49,1.47,1.31,2.69,1.43,5.98,4.19,7.99.85.62.26,2.06-.73,1.9-4.99-.8-8.83,2.5-13.3,3.45-1.87.4-3.72,1.05-5.8.26-1.39-.52-3.39-.78-4,1.45-.56,2.06.19,3.5,2.37,4.07.69.18,1.31.58,1.97.87-.27.55-.54,1.11-.81,1.66Z"/>
  <path class="cls-61" d="m220.7,297.05c.86-2.24,1-4.3,2.07-5.1,3.79-2.81,5.11-5.45.87-8.94-.68-.56-.87-2.03,0-2.36,3.28-1.24,6.67-2.23,10.04-3.2.77-.22,1.29.54,1.48,1.25.45,1.72-1.11,1.95-2.03,2.7-4.94,4.06-4.99,7.48.18,11.57,2.84,2.25.69,3.9-.39,5.37-1,1.37-3,2.84-4.31.36-1.77-3.35-4.4-2.21-7.93-1.66Z"/>
  <path class="cls-61" d="m238.87,305c.15,1.76-1.07,1.7-2.04,2.16-3.74,1.77-4.35,4.94-.85,6.63,4.1,1.97,2.85,8.18,8,8.96.71.11.64,2.19-.65,2.52-1.9.48-3.74.91-5.57,1.73-1.88.84-1.88-1.17-1.77-2.3.4-4.06-.8-6.35-5.28-7.09-1.65-.27-6.99-1.97-1.63-5.54.97-.65,1.32-1.63,1.4-2.78.1-1.32-1.31-3.18.59-3.86,2.14-.77,4.51-.95,6.8-1.26.32-.04.74.6.99.83Z"/>
  <path class="cls-61" d="m154.11,368.88c-.06-3.93-1.73-6.21.08-8.66.69-.94.61-2-.04-3.02-.64-1.02-3.66-2.1-.2-3.17,1.65-.51,4.02-.61,3.97,2.09-.11,5.49,2.93,6.69,7.59,6.45,4.05-.21,6.82,3.82,11,3.67.86-.03,1.01,1.37.54,2.25-.58,1.09-1.59,1.73-2.56.69-2.84-3.02-6.04-2.41-9.45-1.37-1.13.34-2.74.51-3.37-.88-2.66-5.85-4.68-2.93-7.57,1.95Z"/>
  <path class="cls-61" d="m280.49,363.18c1.49.16,2.53,1.12,2.54,2,.03,3.11,3.43,7.12.97,8.85-3.64,2.55-4.31-2.69-6.31-4.55-.95-.88-2.29-1.67-1.15-3.01,1.14-1.33,2.7-2.28,3.94-3.29Z"/>
  <path class="cls-2" d="m166.64,446.15c-.29.03-.57.06-.86.08-.38-.77-.76-1.53-1.15-2.3-.07-.29-.08-.59-.04-.88,1.04-2.43.25-4.98.5-7.47,0-7.96,0-15.92,0-23.87.17-2.65-.38-5.32.35-7.95-.24-.74-.48-1.47-.72-2.21,2.58.54,1.98,2.62,1.98,4.3,0,13.43-.04,26.87-.06,40.3Z"/>
  <path class="cls-61" d="m265.63,351.34c-.77-8.04.99-10.32,6.53-9.46,1.33.21,2.49.4,2.56,2.06.07,1.62-.96,1.99-2.34,2.27-4.5.93-4.49.99-6.74,5.13Z"/>
  <path class="cls-61" d="m256.02,356.83c.84,2.88-.11,4.45-3.2,4.59-1.94.09-3.66-1.15-3.31-2.58.66-2.68,3-5.14,5.41-5.66,2.36-.51.88,2.31,1.1,3.65Z"/>
  <path class="cls-61" d="m266.86,359.04c.11.49-.45-.61.83-1.32.26-.14.76-.16.98,0,1.11.86.32,1.87.22,2.88-.26,2.65-.31,5.32-.52,7.98-.1,1.31.5,3.12-1.61,3.38-1.46.19-2.06-1.28-2.9-2.11-1.32-1.3-.85-2.8.58-3.57,2.41-1.3,3.27-3.14,2.41-7.25Z"/>
  <path class="cls-61" d="m193.07,362.37c-.5,2.35-.3,4.85-3.62,4.46-2.48-.29-2.78-2.42-2.77-3.94,0-2.8,2.83-3.82,4.78-4.05,1.66-.2,1.46,2.34,1.61,3.53Z"/>
  <path class="cls-61" d="m195.91,413.59c-.76,1.34-1.07,3.1-3.07,3.26-1.15-1.78-2.31-3.56-3.46-5.34,4.19-5.7,4.45,1.09,6.53,2.08Z"/>
  <path class="cls-52" d="m165.46,411.45c0,8.33-.01,16.67-.02,25-.33.46-.63.43-.89-.07,0-8.33.02-16.66.03-24.99.33-.52.62-.47.88.06Z"/>
  <path class="cls-61" d="m170.51,355.51c2.79-1.29,5.2-2.71,7.26.39.42.62.64,1.53-.14,1.79-2.62.88-5.14.98-7.12-2.18Z"/>
  <path class="cls-61" d="m241.73,312.15c4.33-.46,7.61,1.01,10.48-1.09-2.67,3.88-5.75,4.12-10.48,1.09Z"/>
  <path class="cls-61" d="m301.91,349.58c0-2.39.32-4.72-1.44-6.64-.69-.76-.53-1.77.31-2.3.98-.63,1.64.13,2.04.95,1.4,2.81,2.45,5.61-.91,7.99Z"/>
  <path class="cls-61" d="m266.25,336.55c2.86-1.66.89-5.04,3.96-4.97,1.16.03,2.58.87,2.26,2.44-.6,2.99-3.13,2.26-6.22,2.53Z"/>
  <path class="cls-61" d="m250.54,301.32c-.68,2-.65,3.3-2.07,3.33-1.41.03-1.65-1.04-1.6-2.16.06-1.3.92-1.83,2.1-1.82,1.06.01,1.61.55,1.57.65Z"/>
  <path class="cls-105" d="m165.42,395.12c.8-2.03-.89-4.58,1.3-6.33.38.2.51.4.39.62-.12.22-.24.33-.36.33-1,3.56,2,7.87-2.03,10.86.74-1.76,1.23-3.55.7-5.48Z"/>
  <path class="cls-61" d="m192.93,337.58c-2.75,1.4-4.23,1.13-5.51-1.23,2.02-.92,3.36.03,5.51,1.23Z"/>
  <path class="cls-61" d="m253.77,343.2c3.19-.03,3.03,1.81,3.63,3.63-3.09-.05-2.98-1.86-3.63-3.63Z"/>
  <path class="cls-61" d="m237.82,366.13c-1.15-.06-1.58-.74-1.69-1.69-.09-.78.22-1.4.99-1.62,1.05-.3,1.73.23,1.87,1.24.12.93-.3,1.7-1.16,2.07Z"/>
  <path class="cls-61" d="m176.06,336.03c-.91-1.89-.95-3.17.24-4.7,1.6,1.5,1.46,2.79-.24,4.7Z"/>
  <path class="cls-46" d="m207.89,398.42c-.05-2.55-.1-5.1-.14-7.64.12-.89.27-1.76,1.29-2.08-.11,3.22-.22,6.44-.33,9.65-.23.54-.5.56-.82.07Z"/>
  <path class="cls-61" d="m267.33,336.42c-.1,1.86-.18,3.24-1.97,3.06-.56-.06-1.58-.94-1.51-1.13.58-1.56,2.07-1.68,3.48-1.93Z"/>
  <path class="cls-61" d="m302.26,349.3c-1.89,2.36-3.35,2.8-5.61,1.3,1.87-1.63,3.69-.81,5.61-1.3Z"/>
  <path class="cls-61" d="m233.6,353.18c2.05.65,4,.16,3.81,1.85-.15,1.4-1.64.88-2.53.21-.38-.29-.55-.86-1.28-2.05Z"/>
  <path class="cls-85" d="m165.46,411.45c-.29-.02-.59-.04-.88-.06.24-2.55-.86-5.25.86-7.63,0,2.56.02,5.12.02,7.69Z"/>
  <path class="cls-21" d="m164.56,436.38c.3.02.59.05.89.07-.05,2.23,1.02,4.61-.85,6.6-.01-2.22-.02-4.45-.04-6.67Z"/>
  <path class="cls-61" d="m298.96,360.76c.49.35,1.04.53,1.18.88.32.78-.2,1.34-.93,1.35-.33,0-.89-.55-.96-.92-.06-.34.4-.77.71-1.31Z"/>
  <path class="cls-61" d="m335.64,408.17c-1.55,6.41-6.11,9.31-12.18,9.63-7.13.37-14.29.1-21.43.15-1.49.01-2.42-.39-2.22-2.09,1.1-4.74.22-9.55.51-14.31.6-1.97-1.53-4.84,1.94-5.85,7.49.19,14.98-.49,22.46.35,5.19,1.05,9.86,2.74,10.92,8.89-.03.18-.06.36-.08.55-.01.37.02.74.12,1.1.06.18.11.35.17.53.07.38,0,.73-.2,1.06Z"/>
  <path class="cls-53" d="m293.04,440.89c-.25-.06-.51-.12-.76-.19.02-9.42.05-18.83.07-28.25,1.92,9.44.63,18.95.68,28.44Z"/>
  <path class="cls-13" d="m324.71,396.05c-7.61-.01-15.21-.02-22.82-.04-.37-.21-.48-.39-.34-.55.13-.15.26-.23.4-.23,7.58.31,15.23-1.18,22.75.81Z"/>
  <path class="cls-29" d="m292.38,388.51c.34.06.67.1,1.02.12-.71,5.43.96,11.03-1.11,16.37.03-5.5.06-10.99.09-16.49Z"/>
  <path class="cls-113" d="m300.69,401.7c-.26,4.72,1.36,9.57-.88,14.17,0-4.77,0-9.53,0-14.3.37-.46.66-.42.88.13Z"/>
  <path class="cls-62" d="m300.69,401.7c-.3-.04-.59-.08-.88-.13.77-2.09-1.96-5.39,2.16-6.34-.02.26-.05.52-.07.78-1.92,1.57-.6,3.83-1.21,5.69Z"/>
  <path class="cls-120" d="m335.63,404.94c.9.42.86,1.22.82,2.02-.25.41-.54.46-.88.09l-.38.07c-.28-.76-.28-1.51,0-2.27l.25-.13.19.21Z"/>
  <path class="cls-59" d="m335.57,407.05c.3,0,.59-.03.88-.09-.27.4-.54.81-.81,1.21-.02-.37-.04-.75-.06-1.12Z"/>
  <path class="cls-61" d="m35.8,396.23c10.04.43,17.67,8.35,17.43,20.54.67,2.95.63,5.91.03,8.87.08,7.47-2.07,13.63-8.61,18.2-3.37,2.35-6.79,3.2-10.57,3.4-3.76.19-7.59-.37-11.28.14-4.77.67-5.94-1.48-5.52-5.59.03-.32.06-.64.08-.96-.03-12.51.3-25.01-.17-37.52-.32-.94-.41-1.87.04-2.79,1.15-1.28-3.1-4.03,1.21-4.45,5.79-.61,11.58-.77,17.37.16Z"/>
  <path class="cls-87" d="m17.23,400.52c.12.73.24,1.46.36,2.19.63,13.06.48,26.13.08,39.19,0,0-.39-.11-.39-.11-1.55-1.48-.92-3.4-.93-5.14-.06-10.31-.05-20.63,0-30.95,0-1.75-.54-3.65.88-5.18Z"/>
  <path class="cls-80" d="m35.8,396.23c-5.79-.05-11.58-.11-17.37-.16,5.8-1.47,11.59-1.73,17.37.16Z"/>
  <path class="cls-12" d="m8.94,448.44c-.12-2.94-.24-5.88-.36-8.82.11-.36.22-.73.33-1.09.29.04.57.08.86.12-.25,3.27.96,6.65-.82,9.79Z"/>
  <path class="cls-82" d="m53.26,425.64c0-2.96-.02-5.91-.03-8.87,1.5,2.95,1.54,5.91.03,8.87Z"/>
  <path class="cls-116" d="m20.67,453.97c-.01.26-.03.52-.05.78-2.91,0-5.82-.02-8.73-.02,2.79-1.78,5.83-.69,8.77-.76Z"/>
  <path class="cls-17" d="m150.29,397.32c0,17-.02,34-.03,51-.98-1.02-.87-2.31-.87-3.57,0-14.63,0-29.25,0-43.88,0-1.26-.1-2.55.9-3.56Z"/>
  <path class="cls-77" d="m143.09,399.44c.24,0,.49,0,.73-.03,0,10.53,0,21.07,0,31.6-.3.48-.55.45-.76-.07,0-10.5.02-21,.02-31.5Z"/>
  <path class="cls-43" d="m110.56,407.02c-.71,1.11-1.42,2.22-2.12,3.33-1.11-2.12-1.02-4.25-.06-6.39,1.59.4,2.13,1.56,2.18,3.06Z"/>
  <path class="cls-86" d="m108.38,403.95c.02,2.13.04,4.26.06,6.39-.09.39-.18.77-.27,1.16-.28-.09-.57-.17-.86-.24.31-2.45-1.3-5.17,1.07-7.31Z"/>
  <path class="cls-83" d="m143.06,430.94c.25.03.51.05.76.07-.09,2.21,1,4.57-.82,6.56.02-2.21.04-4.42.06-6.63Z"/>
  <path class="cls-19" d="m216.27,396.19c-.02,17.41-.04,34.82-.07,52.23-1.26-1.59-.8-3.47-.8-5.23-.03-13.93-.03-27.86,0-41.8,0-1.76-.51-3.65.86-5.2Z"/>
  <path class="cls-97" d="m209.04,399.48c.29-.01.58-.03.87-.04.02,12.07.06,24.14.03,36.21,0,3.07-.11,3.07-2.17,2.04.43-2.54.74-5.09.58-7.67.41-10.18-.84-20.39.68-30.54Z"/>
  <path class="cls-4" d="m173.05,443.99c-.3.01-.6.03-.9.04,0-10.87-.02-21.74-.03-32.6.19-.15.38-.29.57-.44.22.11.43.21.65.32-.1,10.9-.19,21.79-.29,32.69Z"/>
  <path class="cls-11" d="m174.24,411.51c-.3-.07-.6-.14-.9-.21,0,0-.18.13-.18.13-.85-1.79-.62-3.6-.14-5.43,2.51-4.3,2.4.54,3.53,1.02-2.92.37-2.1,2.7-2.32,4.48Z"/>
  <path class="cls-104" d="m208.72,430.99c-.06,2.27,1.08,4.71-.94,6.7-.36-.4-.71-.8-1.07-1.2,1.02-1.71,1.19-3.61,1.2-5.54.3-.5.57-.48.82.05Z"/>
  <path class="cls-39" d="m166.76,389.73c-.03-.31-.04-.63-.03-.95,2.23.01,4.59-1.09,6.57.85-2.18.03-4.36.07-6.54.1Z"/>
  <path class="cls-122" d="m173.02,406c.05,1.81.1,3.62.14,5.43h-.52s-.52,0-.52,0c.19-1.83-.6-3.82.9-5.42Z"/>
  <path class="cls-118" d="m274.95,416.71c-.03,2.15-.07,4.29-.1,6.44-3.23.13-6.46.26-9.69.39-5.05,0-10.09,0-15.14,0-2.9-.11-5.8-.23-8.7-.34-3.1-3.59,2.4-4.56,2.19-7.27,10.1-.12,20.2-.24,30.3-.36.38.38.76.75,1.14,1.13Z"/>
  <path class="cls-60" d="m240.01,425.45c.03,2.57.06,5.15.1,7.72-.29.49-.56.48-.8-.05.14-2.57-.91-5.24.7-7.67Z"/>
  <path class="cls-129" d="m239.31,433.12c.27.02.53.03.8.05.11,1.46.21,2.92.32,4.38-.11,1.08-.21,2.16-.32,3.24-1.72-2.4-.69-5.09-.79-7.67Z"/>
  <path class="cls-55" d="m365.59,436.37c-.29.03-.59.07-.88.11.15-1.85-.64-3.84.87-5.47,0,1.79,0,3.57,0,5.36Z"/>
  <path class="cls-61" d="m247.86,396.39c.92,1.63,1.67,3.29-.3,4.68-.95.67-2.05.65-2.93-.18-2.1-2.02.49-3.03,1.01-4.5h2.22Z"/>
  <path class="cls-50" d="m414.41,359.08c.01-.29.03-.58.05-.86,2.5.39,5.3-1.15,7.51,1.15-2.52-.1-5.04-.19-7.56-.29Z"/>
  <path class="cls-91" d="m267.31,447.11c0-.25,0-.5,0-.75,3.63,0,7.26-.01,10.9-.02-3.52,1.86-7.25.65-10.89.77Z"/>
  <path class="cls-67" d="m208.72,430.99c-.27-.01-.54-.03-.82-.05,0-10.85-.01-21.69-.02-32.53.27-.02.54-.05.82-.07.11.38.23.76.34,1.14-.11,10.5-.22,21.01-.32,31.51Z"/>
  <path class="cls-20" d="m349.67,252.88c0-1.88,0-3.75,0-5.63,1.43,1.88,1.43,3.75,0,5.63Z"/>
  <path class="cls-61" d="m302.8,332.01c-1.41-.05-2.64-.68-2.81-2.37-.18-1.69.82-2.74,2.46-2.77,1.67-.03,2.5,1.13,2.62,2.73.11,1.46-.52,2.38-2.27,2.4Z"/>
  <path class="cls-61" d="m276.77,311.28c-1.71,0-2.74-.89-2.78-2.55-.04-1.39.82-2.38,2.26-2.5,1.72-.14,2.72.86,2.78,2.51.04,1.39-.84,2.28-2.25,2.54Z"/>
  <path class="cls-102" d="m335.2,404.85c0,.76,0,1.51,0,2.27-.87-.76-.8-1.52,0-2.27Z"/>
  <path class="cls-48" d="m17.67,441.9c-.03-13.06-.06-26.13-.08-39.19,1.18,1.17.9,2.68.9,4.1.01,10.32,0,20.63,0,30.95,0,1.43.24,2.92-.81,4.15Z"/>
</svg>